G75*
%MOIN*%
%OFA0B0*%
%FSLAX24Y24*%
%IPPOS*%
%LPD*%
%AMOC8*
5,1,8,0,0,1.08239X$1,22.5*
%
%ADD10C,0.0000*%
%ADD11C,0.0160*%
%ADD12C,0.0030*%
%ADD13C,0.0080*%
%ADD14C,0.0060*%
%ADD15C,0.0050*%
D10*
X005550Y005680D02*
X005552Y005730D01*
X005558Y005780D01*
X005568Y005829D01*
X005582Y005877D01*
X005599Y005924D01*
X005620Y005969D01*
X005645Y006013D01*
X005673Y006054D01*
X005705Y006093D01*
X005739Y006130D01*
X005776Y006164D01*
X005816Y006194D01*
X005858Y006221D01*
X005902Y006245D01*
X005948Y006266D01*
X005995Y006282D01*
X006043Y006295D01*
X006093Y006304D01*
X006142Y006309D01*
X006193Y006310D01*
X006243Y006307D01*
X006292Y006300D01*
X006341Y006289D01*
X006389Y006274D01*
X006435Y006256D01*
X006480Y006234D01*
X006523Y006208D01*
X006564Y006179D01*
X006603Y006147D01*
X006639Y006112D01*
X006671Y006074D01*
X006701Y006034D01*
X006728Y005991D01*
X006751Y005947D01*
X006770Y005901D01*
X006786Y005853D01*
X006798Y005804D01*
X006806Y005755D01*
X006810Y005705D01*
X006810Y005655D01*
X006806Y005605D01*
X006798Y005556D01*
X006786Y005507D01*
X006770Y005459D01*
X006751Y005413D01*
X006728Y005369D01*
X006701Y005326D01*
X006671Y005286D01*
X006639Y005248D01*
X006603Y005213D01*
X006564Y005181D01*
X006523Y005152D01*
X006480Y005126D01*
X006435Y005104D01*
X006389Y005086D01*
X006341Y005071D01*
X006292Y005060D01*
X006243Y005053D01*
X006193Y005050D01*
X006142Y005051D01*
X006093Y005056D01*
X006043Y005065D01*
X005995Y005078D01*
X005948Y005094D01*
X005902Y005115D01*
X005858Y005139D01*
X005816Y005166D01*
X005776Y005196D01*
X005739Y005230D01*
X005705Y005267D01*
X005673Y005306D01*
X005645Y005347D01*
X005620Y005391D01*
X005599Y005436D01*
X005582Y005483D01*
X005568Y005531D01*
X005558Y005580D01*
X005552Y005630D01*
X005550Y005680D01*
D11*
X001180Y005680D02*
X001182Y005821D01*
X001188Y005962D01*
X001198Y006102D01*
X001212Y006242D01*
X001230Y006382D01*
X001251Y006521D01*
X001277Y006660D01*
X001306Y006798D01*
X001340Y006934D01*
X001377Y007070D01*
X001418Y007205D01*
X001463Y007339D01*
X001512Y007471D01*
X001564Y007602D01*
X001620Y007731D01*
X001680Y007858D01*
X001743Y007984D01*
X001809Y008108D01*
X001880Y008231D01*
X001953Y008351D01*
X002030Y008469D01*
X002110Y008585D01*
X002194Y008698D01*
X002280Y008809D01*
X002370Y008918D01*
X002463Y009024D01*
X002558Y009127D01*
X002657Y009228D01*
X002758Y009326D01*
X002862Y009421D01*
X002969Y009513D01*
X003078Y009602D01*
X003190Y009687D01*
X003304Y009770D01*
X003420Y009850D01*
X003539Y009926D01*
X003660Y009998D01*
X003782Y010068D01*
X003907Y010133D01*
X004033Y010196D01*
X004161Y010254D01*
X004291Y010309D01*
X004422Y010361D01*
X004555Y010408D01*
X004689Y010452D01*
X004824Y010493D01*
X004960Y010529D01*
X005097Y010561D01*
X005235Y010590D01*
X005373Y010615D01*
X005513Y010635D01*
X005653Y010652D01*
X005793Y010665D01*
X005934Y010674D01*
X006074Y010679D01*
X006215Y010680D01*
X006356Y010677D01*
X006497Y010670D01*
X006637Y010659D01*
X006777Y010644D01*
X006917Y010625D01*
X007056Y010603D01*
X007194Y010576D01*
X007332Y010546D01*
X007468Y010511D01*
X007604Y010473D01*
X007738Y010431D01*
X007872Y010385D01*
X008004Y010336D01*
X008134Y010282D01*
X008263Y010225D01*
X008390Y010165D01*
X008516Y010101D01*
X008639Y010033D01*
X008761Y009962D01*
X008881Y009888D01*
X008998Y009810D01*
X009113Y009729D01*
X009226Y009645D01*
X009337Y009558D01*
X009445Y009467D01*
X009550Y009374D01*
X009653Y009277D01*
X009753Y009178D01*
X009850Y009076D01*
X009944Y008971D01*
X010035Y008864D01*
X010123Y008754D01*
X010208Y008642D01*
X010290Y008527D01*
X010369Y008410D01*
X010444Y008291D01*
X010516Y008170D01*
X010584Y008047D01*
X010649Y007922D01*
X010711Y007795D01*
X010768Y007666D01*
X010823Y007536D01*
X010873Y007405D01*
X010920Y007272D01*
X010963Y007138D01*
X011002Y007002D01*
X011037Y006866D01*
X011069Y006729D01*
X011096Y006591D01*
X011120Y006452D01*
X011140Y006312D01*
X011156Y006172D01*
X011168Y006032D01*
X011176Y005891D01*
X011180Y005750D01*
X011180Y005610D01*
X011176Y005469D01*
X011168Y005328D01*
X011156Y005188D01*
X011140Y005048D01*
X011120Y004908D01*
X011096Y004769D01*
X011069Y004631D01*
X011037Y004494D01*
X011002Y004358D01*
X010963Y004222D01*
X010920Y004088D01*
X010873Y003955D01*
X010823Y003824D01*
X010768Y003694D01*
X010711Y003565D01*
X010649Y003438D01*
X010584Y003313D01*
X010516Y003190D01*
X010444Y003069D01*
X010369Y002950D01*
X010290Y002833D01*
X010208Y002718D01*
X010123Y002606D01*
X010035Y002496D01*
X009944Y002389D01*
X009850Y002284D01*
X009753Y002182D01*
X009653Y002083D01*
X009550Y001986D01*
X009445Y001893D01*
X009337Y001802D01*
X009226Y001715D01*
X009113Y001631D01*
X008998Y001550D01*
X008881Y001472D01*
X008761Y001398D01*
X008639Y001327D01*
X008516Y001259D01*
X008390Y001195D01*
X008263Y001135D01*
X008134Y001078D01*
X008004Y001024D01*
X007872Y000975D01*
X007738Y000929D01*
X007604Y000887D01*
X007468Y000849D01*
X007332Y000814D01*
X007194Y000784D01*
X007056Y000757D01*
X006917Y000735D01*
X006777Y000716D01*
X006637Y000701D01*
X006497Y000690D01*
X006356Y000683D01*
X006215Y000680D01*
X006074Y000681D01*
X005934Y000686D01*
X005793Y000695D01*
X005653Y000708D01*
X005513Y000725D01*
X005373Y000745D01*
X005235Y000770D01*
X005097Y000799D01*
X004960Y000831D01*
X004824Y000867D01*
X004689Y000908D01*
X004555Y000952D01*
X004422Y000999D01*
X004291Y001051D01*
X004161Y001106D01*
X004033Y001164D01*
X003907Y001227D01*
X003782Y001292D01*
X003660Y001362D01*
X003539Y001434D01*
X003420Y001510D01*
X003304Y001590D01*
X003190Y001673D01*
X003078Y001758D01*
X002969Y001847D01*
X002862Y001939D01*
X002758Y002034D01*
X002657Y002132D01*
X002558Y002233D01*
X002463Y002336D01*
X002370Y002442D01*
X002280Y002551D01*
X002194Y002662D01*
X002110Y002775D01*
X002030Y002891D01*
X001953Y003009D01*
X001880Y003129D01*
X001809Y003252D01*
X001743Y003376D01*
X001680Y003502D01*
X001620Y003629D01*
X001564Y003758D01*
X001512Y003889D01*
X001463Y004021D01*
X001418Y004155D01*
X001377Y004290D01*
X001340Y004426D01*
X001306Y004562D01*
X001277Y004700D01*
X001251Y004839D01*
X001230Y004978D01*
X001212Y005118D01*
X001198Y005258D01*
X001188Y005398D01*
X001182Y005539D01*
X001180Y005680D01*
D12*
X004285Y003115D02*
X004285Y002745D01*
X004285Y002930D02*
X004409Y002930D01*
X004285Y003115D02*
X004532Y003115D01*
X004653Y003054D02*
X004653Y002807D01*
X004715Y002745D01*
X004839Y002745D01*
X004900Y002807D01*
X004900Y003054D01*
X004839Y003115D01*
X004715Y003115D01*
X004653Y003054D01*
X005022Y003115D02*
X005022Y002745D01*
X005022Y002868D02*
X005207Y002868D01*
X005269Y002930D01*
X005269Y003054D01*
X005207Y003115D01*
X005022Y003115D01*
X005145Y002868D02*
X005269Y002745D01*
X005666Y002515D02*
X005851Y002515D01*
X005913Y002454D01*
X005913Y002330D01*
X005851Y002268D01*
X005666Y002268D01*
X005666Y002145D02*
X005666Y002515D01*
X005758Y002745D02*
X005758Y002992D01*
X005882Y003115D01*
X006005Y002992D01*
X006005Y002745D01*
X006127Y002745D02*
X006127Y003115D01*
X006312Y003115D01*
X006374Y003054D01*
X006374Y002930D01*
X006312Y002868D01*
X006127Y002868D01*
X006250Y002868D02*
X006374Y002745D01*
X006495Y002807D02*
X006557Y002745D01*
X006680Y002745D01*
X006742Y002807D01*
X006863Y002745D02*
X007110Y002745D01*
X007232Y002745D02*
X007232Y002992D01*
X007355Y003115D01*
X007479Y002992D01*
X007479Y002745D01*
X007600Y002745D02*
X007785Y002745D01*
X007847Y002807D01*
X007847Y002868D01*
X007785Y002930D01*
X007600Y002930D01*
X007479Y002930D02*
X007232Y002930D01*
X006863Y003115D02*
X006863Y002745D01*
X006650Y002515D02*
X006650Y002268D01*
X006526Y002145D01*
X006403Y002268D01*
X006403Y002515D01*
X006281Y002515D02*
X006035Y002515D01*
X006035Y002145D01*
X006281Y002145D01*
X006158Y002330D02*
X006035Y002330D01*
X005913Y002145D02*
X005790Y002268D01*
X005758Y002930D02*
X006005Y002930D01*
X006005Y003345D02*
X005758Y003345D01*
X005758Y003715D01*
X006005Y003715D01*
X005882Y003530D02*
X005758Y003530D01*
X006127Y003407D02*
X006188Y003345D01*
X006250Y003345D01*
X006312Y003407D01*
X006312Y003715D01*
X006250Y003715D02*
X006374Y003715D01*
X006495Y003715D02*
X006680Y003715D01*
X006742Y003654D01*
X006742Y003530D01*
X006680Y003468D01*
X006495Y003468D01*
X006495Y003345D02*
X006495Y003715D01*
X006618Y003468D02*
X006742Y003345D01*
X006680Y003115D02*
X006557Y003115D01*
X006495Y003054D01*
X006495Y002807D01*
X006742Y003054D02*
X006680Y003115D01*
X007079Y002515D02*
X007202Y002392D01*
X007202Y002145D01*
X007202Y002330D02*
X006955Y002330D01*
X006955Y002392D02*
X006955Y002145D01*
X006833Y002145D02*
X006771Y002145D01*
X006771Y002207D01*
X006833Y002207D01*
X006833Y002145D01*
X006955Y002392D02*
X007079Y002515D01*
X007600Y002745D02*
X007600Y003115D01*
X007785Y003115D01*
X007847Y003054D01*
X007847Y002992D01*
X007785Y002930D01*
D13*
X006771Y007089D02*
X005589Y007089D01*
X005589Y008271D02*
X006771Y008271D01*
D14*
X006880Y008630D02*
X006980Y008630D01*
X006980Y008730D01*
X006980Y009130D02*
X006980Y009230D01*
X006880Y009230D01*
X006480Y009230D02*
X006380Y009230D01*
X006380Y009130D01*
X006380Y008730D02*
X006380Y008630D01*
X006480Y008630D01*
X005730Y008630D02*
X005630Y008630D01*
X005730Y008630D02*
X005730Y008730D01*
X005730Y009130D02*
X005730Y009230D01*
X005630Y009230D01*
X005230Y009230D02*
X005130Y009230D01*
X005130Y009130D01*
X005130Y008730D02*
X005130Y008630D01*
X005230Y008630D01*
X004480Y008630D02*
X004480Y008730D01*
X004480Y008630D02*
X004380Y008630D01*
X003980Y008630D02*
X003880Y008630D01*
X003880Y008730D01*
X003880Y009130D02*
X003880Y009230D01*
X003980Y009230D01*
X004380Y009230D02*
X004480Y009230D01*
X004480Y009130D01*
X003980Y006480D02*
X003880Y006480D01*
X003980Y006480D02*
X003980Y006380D01*
X003980Y005980D02*
X003980Y005880D01*
X003880Y005880D01*
X003480Y005880D02*
X003380Y005880D01*
X003380Y005980D01*
X003380Y006380D02*
X003380Y006480D01*
X003480Y006480D01*
X007380Y008630D02*
X007380Y008730D01*
X007380Y008630D02*
X007480Y008630D01*
X007880Y008630D02*
X007980Y008630D01*
X007980Y008730D01*
X007980Y009130D02*
X007980Y009230D01*
X007880Y009230D01*
X007480Y009230D02*
X007380Y009230D01*
X007380Y009130D01*
X008380Y009130D02*
X008380Y009230D01*
X008480Y009230D01*
X008880Y009230D02*
X008980Y009230D01*
X008980Y009130D01*
X008980Y008730D02*
X008980Y008630D01*
X008880Y008630D01*
X008480Y008630D02*
X008380Y008630D01*
X008380Y008730D01*
D15*
X008405Y008273D02*
X007955Y008273D01*
X007955Y007972D02*
X008405Y008273D01*
X008405Y007972D02*
X007955Y007972D01*
X007955Y007816D02*
X007955Y007665D01*
X007955Y007740D02*
X008405Y007740D01*
X008405Y007665D02*
X008405Y007816D01*
X008330Y007505D02*
X008030Y007505D01*
X007955Y007430D01*
X007955Y007205D01*
X008405Y007205D01*
X008405Y007430D01*
X008330Y007505D01*
X008855Y007534D02*
X009230Y007534D01*
X009305Y007609D01*
X009305Y007759D01*
X009230Y007834D01*
X008855Y007834D01*
X008855Y007995D02*
X008855Y008295D01*
X008855Y008145D02*
X009305Y008145D01*
X009230Y007374D02*
X008930Y007374D01*
X008855Y007299D01*
X008855Y007149D01*
X008930Y007074D01*
X009230Y007074D01*
X009305Y007149D01*
X009305Y007299D01*
X009230Y007374D01*
X009230Y006914D02*
X008930Y006914D01*
X008855Y006839D01*
X008855Y006613D01*
X009305Y006613D01*
X009305Y006839D01*
X009230Y006914D01*
X007695Y009605D02*
X007470Y009830D01*
X007395Y009755D02*
X007695Y010055D01*
X007395Y010055D02*
X007395Y009605D01*
X007234Y009605D02*
X006934Y009605D01*
X006934Y010055D01*
X006774Y009980D02*
X006699Y010055D01*
X006549Y010055D01*
X006474Y009980D01*
X006474Y009680D01*
X006549Y009605D01*
X006699Y009605D01*
X006774Y009680D01*
X006314Y009680D02*
X006239Y009605D01*
X006088Y009605D01*
X006013Y009680D01*
X006088Y009830D02*
X006239Y009830D01*
X006314Y009755D01*
X006314Y009680D01*
X006088Y009830D02*
X006013Y009905D01*
X006013Y009980D01*
X006088Y010055D01*
X006239Y010055D01*
X006314Y009980D01*
X005295Y009930D02*
X005220Y010005D01*
X005070Y010005D01*
X004995Y009930D01*
X004995Y009855D01*
X005070Y009780D01*
X005220Y009780D01*
X005295Y009705D01*
X005295Y009630D01*
X005220Y009555D01*
X005070Y009555D01*
X004995Y009630D01*
X004834Y009630D02*
X004759Y009555D01*
X004609Y009555D01*
X004534Y009630D01*
X004534Y009930D01*
X004609Y010005D01*
X004759Y010005D01*
X004834Y009930D01*
X003551Y008605D02*
X003326Y008605D01*
X003326Y008155D01*
X003551Y008155D01*
X003626Y008230D01*
X003626Y008530D01*
X003551Y008605D01*
X003166Y008605D02*
X003166Y008155D01*
X002865Y008605D01*
X002865Y008155D01*
X002705Y008230D02*
X002705Y008380D01*
X002555Y008380D01*
X002405Y008230D02*
X002480Y008155D01*
X002630Y008155D01*
X002705Y008230D01*
X002405Y008230D02*
X002405Y008530D01*
X002480Y008605D01*
X002630Y008605D01*
X002705Y008530D01*
X003255Y005580D02*
X003255Y005280D01*
X003105Y005430D02*
X003405Y005430D01*
X003565Y005430D02*
X003565Y005655D01*
X003866Y005655D01*
X004026Y005655D02*
X004026Y005355D01*
X004176Y005205D01*
X004326Y005355D01*
X004326Y005655D01*
X003866Y005430D02*
X003866Y005280D01*
X003791Y005205D01*
X003640Y005205D01*
X003565Y005280D01*
X003565Y005430D02*
X003716Y005505D01*
X003791Y005505D01*
X003866Y005430D01*
M02*
