G75*
%MOIN*%
%OFA0B0*%
%FSLAX24Y24*%
%IPPOS*%
%LPD*%
%AMOC8*
5,1,8,0,0,1.08239X$1,22.5*
%
%ADD10C,0.2560*%
%ADD11R,0.0769X0.0158*%
%ADD12R,0.0532X0.0375*%
%ADD13R,0.0532X0.0532*%
%ADD14R,0.0336X0.0414*%
%ADD15R,0.0454X0.0493*%
%ADD16R,0.0493X0.0454*%
%ADD17OC8,0.0690*%
%ADD18OC8,0.0436*%
D10*
X005680Y006680D03*
D11*
X004814Y008786D03*
X004814Y008983D03*
X004814Y009180D03*
X004814Y009377D03*
X004814Y009574D03*
X006546Y009574D03*
X006546Y009377D03*
X006546Y009180D03*
X006546Y008983D03*
X006546Y008786D03*
D12*
X004066Y004192D03*
X004066Y003680D03*
X004066Y003180D03*
X004066Y002668D03*
X007294Y002668D03*
X007294Y003180D03*
X007294Y003680D03*
D13*
X007294Y004180D03*
D14*
X002674Y004180D03*
X003186Y004180D03*
X002436Y007180D03*
X001924Y007180D03*
X008674Y009180D03*
X009186Y009180D03*
X009436Y005430D03*
X008924Y005430D03*
X008674Y004180D03*
X009186Y004180D03*
D15*
X009515Y006930D03*
X008845Y006930D03*
D16*
X002930Y005765D03*
X002930Y005095D03*
D17*
X003680Y010680D03*
X004430Y010680D03*
X005180Y010680D03*
X005930Y010680D03*
X006680Y010680D03*
X007430Y010680D03*
D18*
X008305Y009930D03*
X007430Y008680D03*
X009055Y006180D03*
X003430Y006555D03*
X003055Y009680D03*
M02*
