G75*
%MOIN*%
%OFA0B0*%
%FSLAX24Y24*%
%IPPOS*%
%LPD*%
%AMOC8*
5,1,8,0,0,1.08239X$1,22.5*
%
%ADD10C,0.1320*%
%ADD11R,0.0769X0.0158*%
%ADD12R,0.0375X0.0532*%
%ADD13R,0.0532X0.0532*%
%ADD14R,0.0473X0.0485*%
%ADD15R,0.0651X0.0572*%
%ADD16R,0.0572X0.0651*%
%ADD17OC8,0.0690*%
%ADD18R,0.0436X0.0436*%
D10*
X006180Y005680D03*
D11*
X005314Y007286D03*
X005314Y007483D03*
X005314Y007680D03*
X005314Y007877D03*
X005314Y008074D03*
X007046Y008074D03*
X007046Y007877D03*
X007046Y007680D03*
X007046Y007483D03*
X007046Y007286D03*
D12*
X006942Y004544D03*
X006430Y004544D03*
X005930Y004544D03*
X005930Y001316D03*
X006430Y001316D03*
X006942Y001316D03*
X005418Y001316D03*
D13*
X005430Y004544D03*
D14*
X003586Y002180D03*
X004274Y002180D03*
X002524Y006180D03*
X001836Y006180D03*
X002336Y007180D03*
X003024Y007180D03*
X009336Y004680D03*
X010024Y004680D03*
X010024Y003930D03*
X009336Y003930D03*
D15*
X008430Y003265D03*
X008430Y002595D03*
D16*
X003515Y004180D03*
X002845Y004180D03*
D17*
X003680Y006180D03*
X004180Y008930D03*
X005430Y008930D03*
X006680Y008930D03*
X007680Y008930D03*
X008680Y008930D03*
D18*
X007180Y006930D03*
X004680Y005180D03*
X004180Y003180D03*
X007780Y003080D03*
X004430Y007430D03*
M02*
