G75*
%MOIN*%
%OFA0B0*%
%FSLAX24Y24*%
%IPPOS*%
%LPD*%
%AMOC8*
5,1,8,0,0,1.08239X$1,22.5*
%
%ADD10C,0.0000*%
%ADD11C,0.0160*%
%ADD12R,0.0709X0.0098*%
%ADD13R,0.0315X0.0472*%
%ADD14R,0.0472X0.0472*%
%ADD15R,0.0413X0.0425*%
%ADD16R,0.0591X0.0512*%
%ADD17R,0.0512X0.0591*%
%ADD18OC8,0.0630*%
%ADD19R,0.0376X0.0376*%
%ADD20C,0.0060*%
%ADD21C,0.0100*%
%ADD22C,0.0080*%
%ADD23C,0.0090*%
D10*
X005550Y005680D02*
X005552Y005730D01*
X005558Y005780D01*
X005568Y005829D01*
X005582Y005877D01*
X005599Y005924D01*
X005620Y005969D01*
X005645Y006013D01*
X005673Y006054D01*
X005705Y006093D01*
X005739Y006130D01*
X005776Y006164D01*
X005816Y006194D01*
X005858Y006221D01*
X005902Y006245D01*
X005948Y006266D01*
X005995Y006282D01*
X006043Y006295D01*
X006093Y006304D01*
X006142Y006309D01*
X006193Y006310D01*
X006243Y006307D01*
X006292Y006300D01*
X006341Y006289D01*
X006389Y006274D01*
X006435Y006256D01*
X006480Y006234D01*
X006523Y006208D01*
X006564Y006179D01*
X006603Y006147D01*
X006639Y006112D01*
X006671Y006074D01*
X006701Y006034D01*
X006728Y005991D01*
X006751Y005947D01*
X006770Y005901D01*
X006786Y005853D01*
X006798Y005804D01*
X006806Y005755D01*
X006810Y005705D01*
X006810Y005655D01*
X006806Y005605D01*
X006798Y005556D01*
X006786Y005507D01*
X006770Y005459D01*
X006751Y005413D01*
X006728Y005369D01*
X006701Y005326D01*
X006671Y005286D01*
X006639Y005248D01*
X006603Y005213D01*
X006564Y005181D01*
X006523Y005152D01*
X006480Y005126D01*
X006435Y005104D01*
X006389Y005086D01*
X006341Y005071D01*
X006292Y005060D01*
X006243Y005053D01*
X006193Y005050D01*
X006142Y005051D01*
X006093Y005056D01*
X006043Y005065D01*
X005995Y005078D01*
X005948Y005094D01*
X005902Y005115D01*
X005858Y005139D01*
X005816Y005166D01*
X005776Y005196D01*
X005739Y005230D01*
X005705Y005267D01*
X005673Y005306D01*
X005645Y005347D01*
X005620Y005391D01*
X005599Y005436D01*
X005582Y005483D01*
X005568Y005531D01*
X005558Y005580D01*
X005552Y005630D01*
X005550Y005680D01*
D11*
X003285Y002582D02*
X002675Y002582D01*
X002794Y002435D02*
X002294Y003054D01*
X001906Y003748D01*
X001641Y004498D01*
X001507Y005282D01*
X001507Y005835D01*
X001518Y005823D01*
X001559Y005800D01*
X001605Y005787D01*
X001812Y005787D01*
X001812Y006157D01*
X001859Y006157D01*
X001859Y005787D01*
X002066Y005787D01*
X002112Y005800D01*
X002153Y005823D01*
X002166Y005836D01*
X002235Y005767D01*
X002430Y005767D01*
X002430Y004599D01*
X002389Y004558D01*
X002389Y003802D01*
X002507Y003685D01*
X003330Y003685D01*
X003330Y002593D01*
X003296Y002593D01*
X003179Y002475D01*
X003179Y002096D01*
X002794Y002435D01*
X002807Y002424D02*
X003179Y002424D01*
X003179Y002265D02*
X002987Y002265D01*
X003167Y002107D02*
X003179Y002107D01*
X003622Y001767D02*
X003875Y001767D01*
X003944Y001836D01*
X003957Y001823D01*
X003998Y001800D01*
X004044Y001787D01*
X004251Y001787D01*
X004251Y002157D01*
X004298Y002157D01*
X004298Y002203D01*
X004661Y002203D01*
X004661Y002416D01*
X004649Y002462D01*
X004625Y002503D01*
X004592Y002537D01*
X004551Y002560D01*
X004505Y002573D01*
X004298Y002573D01*
X004298Y002203D01*
X004251Y002203D01*
X004251Y002573D01*
X004044Y002573D01*
X003998Y002560D01*
X003957Y002537D01*
X003944Y002524D01*
X003875Y002593D01*
X003830Y002593D01*
X003830Y003640D01*
X005566Y003640D01*
X005788Y003418D01*
X005788Y003418D01*
X005888Y003318D01*
X005888Y003318D01*
X006668Y002538D01*
X006738Y002468D01*
X006830Y002430D01*
X007935Y002430D01*
X007935Y002257D01*
X008052Y002139D01*
X008808Y002139D01*
X008925Y002257D01*
X008925Y003304D01*
X009206Y003517D01*
X009625Y003517D01*
X009694Y003586D01*
X009707Y003573D01*
X009748Y003550D01*
X009794Y003537D01*
X010001Y003537D01*
X010001Y003907D01*
X010048Y003907D01*
X010048Y003953D01*
X010411Y003953D01*
X010411Y004166D01*
X010399Y004212D01*
X010375Y004253D01*
X010342Y004287D01*
X010310Y004305D01*
X010342Y004323D01*
X010375Y004357D01*
X010399Y004398D01*
X010411Y004444D01*
X010411Y004657D01*
X010048Y004657D01*
X010048Y004703D01*
X010411Y004703D01*
X010411Y004916D01*
X010399Y004962D01*
X010375Y005003D01*
X010342Y005037D01*
X010301Y005060D01*
X010255Y005073D01*
X010048Y005073D01*
X010048Y004703D01*
X010001Y004703D01*
X010001Y005073D01*
X009794Y005073D01*
X009748Y005060D01*
X009707Y005037D01*
X009694Y005024D01*
X009625Y005093D01*
X009046Y005093D01*
X008929Y004975D01*
X008929Y004385D01*
X009008Y004305D01*
X008929Y004225D01*
X008929Y003935D01*
X008647Y003721D01*
X008548Y003721D01*
X007830Y005236D01*
X007830Y006172D01*
X007833Y006214D01*
X007830Y006222D01*
X007830Y006230D01*
X007820Y006254D01*
X007820Y007463D01*
X007824Y007493D01*
X007820Y007510D01*
X007820Y007528D01*
X007808Y007556D01*
X007801Y007586D01*
X007790Y007600D01*
X007783Y007616D01*
X007769Y007630D01*
X008247Y007630D01*
X008339Y007668D01*
X008409Y007738D01*
X008426Y007781D01*
X008858Y008301D01*
X008883Y008327D01*
X008888Y008338D01*
X008895Y008347D01*
X008906Y008382D01*
X008920Y008415D01*
X008920Y008427D01*
X008923Y008438D01*
X008923Y008444D01*
X009195Y008717D01*
X009195Y009143D01*
X008893Y009445D01*
X008467Y009445D01*
X008180Y009158D01*
X007893Y009445D01*
X007467Y009445D01*
X007180Y009158D01*
X006893Y009445D01*
X006490Y009445D01*
X006460Y009475D01*
X006325Y009610D01*
X005185Y009610D01*
X005050Y009475D01*
X004750Y009175D01*
X004750Y008285D01*
X004794Y008240D01*
X004760Y008206D01*
X004760Y008010D01*
X002685Y008010D01*
X002550Y007875D01*
X002450Y007775D01*
X002450Y007573D01*
X002359Y007573D01*
X002359Y007203D01*
X002312Y007203D01*
X002312Y007157D01*
X001949Y007157D01*
X001949Y006944D01*
X001961Y006898D01*
X001985Y006857D01*
X002018Y006823D01*
X002059Y006800D01*
X002105Y006787D01*
X002312Y006787D01*
X002312Y007157D01*
X002359Y007157D01*
X002359Y006787D01*
X002450Y006787D01*
X002450Y006593D01*
X002235Y006593D01*
X002166Y006524D01*
X002153Y006537D01*
X002112Y006560D01*
X002066Y006573D01*
X001859Y006573D01*
X001859Y006203D01*
X001812Y006203D01*
X001812Y006573D01*
X001605Y006573D01*
X001591Y006569D01*
X001641Y006862D01*
X001906Y007612D01*
X002294Y008306D01*
X002794Y008925D01*
X003391Y009451D01*
X004069Y009868D01*
X004807Y010164D01*
X005584Y010332D01*
X006379Y010366D01*
X007168Y010265D01*
X007929Y010032D01*
X008639Y009674D01*
X009279Y009201D01*
X009829Y008626D01*
X010274Y007967D01*
X010602Y007242D01*
X010803Y006473D01*
X010870Y005680D01*
X010803Y004887D01*
X010602Y004118D01*
X010411Y003695D01*
X010411Y003907D01*
X010048Y003907D01*
X010048Y003537D01*
X010255Y003537D01*
X010301Y003550D01*
X010342Y003573D01*
X010368Y003600D01*
X010274Y003393D01*
X009829Y002734D01*
X009279Y002159D01*
X008639Y001686D01*
X007929Y001328D01*
X007299Y001135D01*
X007299Y001635D01*
X007182Y001752D01*
X006701Y001752D01*
X006686Y001736D01*
X006670Y001752D01*
X006190Y001752D01*
X006180Y001742D01*
X006170Y001752D01*
X005690Y001752D01*
X005674Y001736D01*
X005659Y001752D01*
X005178Y001752D01*
X005061Y001635D01*
X005061Y001141D01*
X004807Y001196D01*
X004069Y001492D01*
X003622Y001767D01*
X003843Y001631D02*
X005061Y001631D01*
X005061Y001473D02*
X004118Y001473D01*
X004036Y001790D02*
X003897Y001790D01*
X004251Y001790D02*
X004298Y001790D01*
X004298Y001787D02*
X004505Y001787D01*
X004551Y001800D01*
X004592Y001823D01*
X004625Y001857D01*
X004649Y001898D01*
X004661Y001944D01*
X004661Y002157D01*
X004298Y002157D01*
X004298Y001787D01*
X004298Y001948D02*
X004251Y001948D01*
X004251Y002107D02*
X004298Y002107D01*
X004298Y002265D02*
X004251Y002265D01*
X004251Y002424D02*
X004298Y002424D01*
X004659Y002424D02*
X007935Y002424D01*
X007935Y002265D02*
X004661Y002265D01*
X004661Y002107D02*
X009207Y002107D01*
X009380Y002265D02*
X008925Y002265D01*
X008925Y002424D02*
X009532Y002424D01*
X009684Y002582D02*
X008925Y002582D01*
X008925Y002741D02*
X009834Y002741D01*
X009941Y002899D02*
X008925Y002899D01*
X008925Y003058D02*
X010048Y003058D01*
X010155Y003216D02*
X008925Y003216D01*
X009018Y003375D02*
X010262Y003375D01*
X010338Y003533D02*
X009641Y003533D01*
X010001Y003692D02*
X010048Y003692D01*
X010048Y003850D02*
X010001Y003850D01*
X010001Y003953D02*
X010001Y004287D01*
X010001Y004657D01*
X010048Y004657D01*
X010048Y003953D01*
X010001Y003953D01*
X010001Y004009D02*
X010048Y004009D01*
X010048Y004167D02*
X010001Y004167D01*
X010001Y004326D02*
X010048Y004326D01*
X010048Y004484D02*
X010001Y004484D01*
X010001Y004643D02*
X010048Y004643D01*
X010048Y004801D02*
X010001Y004801D01*
X010001Y004960D02*
X010048Y004960D01*
X010400Y004960D02*
X010809Y004960D01*
X010780Y004801D02*
X010411Y004801D01*
X010411Y004643D02*
X010739Y004643D01*
X010698Y004484D02*
X010411Y004484D01*
X010344Y004326D02*
X010656Y004326D01*
X010615Y004167D02*
X010411Y004167D01*
X010411Y004009D02*
X010553Y004009D01*
X010481Y003850D02*
X010411Y003850D01*
X010822Y005118D02*
X007886Y005118D01*
X007830Y005277D02*
X010836Y005277D01*
X010849Y005435D02*
X007830Y005435D01*
X007830Y005594D02*
X010863Y005594D01*
X010864Y005752D02*
X007830Y005752D01*
X007830Y005911D02*
X010850Y005911D01*
X010837Y006069D02*
X007830Y006069D01*
X007830Y006228D02*
X010823Y006228D01*
X010810Y006386D02*
X007820Y006386D01*
X007820Y006545D02*
X010784Y006545D01*
X010803Y006473D02*
X010803Y006473D01*
X010743Y006703D02*
X007820Y006703D01*
X007820Y006862D02*
X010701Y006862D01*
X010660Y007020D02*
X007820Y007020D01*
X007820Y007179D02*
X010619Y007179D01*
X010559Y007337D02*
X007820Y007337D01*
X007824Y007496D02*
X010488Y007496D01*
X010416Y007654D02*
X008305Y007654D01*
X008453Y007813D02*
X010344Y007813D01*
X010272Y007971D02*
X008584Y007971D01*
X008715Y008130D02*
X010165Y008130D01*
X010058Y008288D02*
X008847Y008288D01*
X008925Y008447D02*
X009951Y008447D01*
X009843Y008605D02*
X009083Y008605D01*
X009195Y008764D02*
X009698Y008764D01*
X009546Y008922D02*
X009195Y008922D01*
X009195Y009081D02*
X009394Y009081D01*
X009227Y009239D02*
X009099Y009239D01*
X009012Y009398D02*
X008941Y009398D01*
X008798Y009556D02*
X006379Y009556D01*
X006135Y009150D02*
X005938Y009150D01*
X005945Y009143D01*
X005945Y008740D01*
X006010Y008675D01*
X006010Y007785D01*
X005875Y007650D01*
X005868Y007650D01*
X005868Y007548D01*
X005848Y007528D01*
X005848Y007483D01*
X005803Y007483D01*
X005803Y007483D01*
X005803Y007483D01*
X005848Y007483D01*
X005848Y007438D01*
X005868Y007418D01*
X005868Y007294D01*
X007340Y006575D01*
X007340Y007057D01*
X007046Y007057D01*
X007046Y007286D01*
X007046Y007286D01*
X007046Y007057D01*
X006668Y007057D01*
X006622Y007069D01*
X006581Y007093D01*
X006548Y007127D01*
X006524Y007168D01*
X006512Y007213D01*
X006512Y007286D01*
X006588Y007286D01*
X006588Y007286D01*
X006512Y007286D01*
X006512Y007359D01*
X006519Y007385D01*
X006512Y007410D01*
X006512Y007483D01*
X006557Y007483D01*
X006557Y007483D01*
X006512Y007483D01*
X006512Y007528D01*
X006492Y007548D01*
X006492Y008206D01*
X006609Y008323D01*
X006976Y008323D01*
X007268Y008614D01*
X007180Y008702D01*
X006893Y008415D01*
X006467Y008415D01*
X006165Y008717D01*
X006165Y009120D01*
X006135Y009150D01*
X006165Y009081D02*
X005945Y009081D01*
X005945Y008922D02*
X006165Y008922D01*
X006165Y008764D02*
X005945Y008764D01*
X006010Y008605D02*
X006277Y008605D01*
X006435Y008447D02*
X006010Y008447D01*
X006010Y008288D02*
X006574Y008288D01*
X006492Y008130D02*
X006010Y008130D01*
X006010Y007971D02*
X006492Y007971D01*
X006492Y007813D02*
X006010Y007813D01*
X005879Y007654D02*
X006492Y007654D01*
X006512Y007496D02*
X005848Y007496D01*
X005868Y007337D02*
X006512Y007337D01*
X006521Y007179D02*
X006105Y007179D01*
X006429Y007020D02*
X007340Y007020D01*
X007340Y006862D02*
X006754Y006862D01*
X007079Y006703D02*
X007340Y006703D01*
X007046Y007179D02*
X007046Y007179D01*
X006273Y006540D02*
X006009Y006540D01*
X005693Y006409D01*
X005451Y006167D01*
X005320Y005851D01*
X005320Y005509D01*
X005451Y005193D01*
X005677Y004967D01*
X005670Y004960D01*
X005468Y004960D01*
X005468Y004582D01*
X005392Y004582D01*
X005392Y004506D01*
X005468Y004506D01*
X005468Y004128D01*
X005625Y004128D01*
X005606Y004120D01*
X003971Y004120D01*
X003971Y004558D01*
X003853Y004675D01*
X002930Y004675D01*
X002930Y005883D01*
X002931Y005885D01*
X002931Y006475D01*
X002910Y006497D01*
X002910Y006767D01*
X003231Y006767D01*
X003412Y006640D01*
X003165Y006393D01*
X003165Y005967D01*
X003467Y005665D01*
X003893Y005665D01*
X004195Y005967D01*
X004195Y006330D01*
X004630Y006330D01*
X004722Y006368D01*
X004792Y006438D01*
X005346Y006992D01*
X006273Y006540D01*
X006263Y006545D02*
X004898Y006545D01*
X005057Y006703D02*
X005939Y006703D01*
X005614Y006862D02*
X005215Y006862D01*
X004780Y007134D02*
X004476Y006830D01*
X004009Y006830D01*
X003431Y007238D01*
X003431Y007475D01*
X003357Y007550D01*
X004585Y007550D01*
X004685Y007450D01*
X004780Y007450D01*
X004780Y007438D01*
X004760Y007418D01*
X004760Y007154D01*
X004780Y007134D01*
X004760Y007179D02*
X003516Y007179D01*
X003431Y007337D02*
X004760Y007337D01*
X004639Y007496D02*
X003411Y007496D01*
X003740Y007020D02*
X004666Y007020D01*
X004508Y006862D02*
X003965Y006862D01*
X003322Y006703D02*
X002910Y006703D01*
X002910Y006545D02*
X003316Y006545D01*
X003165Y006386D02*
X002931Y006386D01*
X002931Y006228D02*
X003165Y006228D01*
X003165Y006069D02*
X002931Y006069D01*
X002931Y005911D02*
X003221Y005911D01*
X003380Y005752D02*
X002930Y005752D01*
X002930Y005594D02*
X005320Y005594D01*
X005320Y005752D02*
X003980Y005752D01*
X004139Y005911D02*
X005345Y005911D01*
X005410Y006069D02*
X004195Y006069D01*
X004195Y006228D02*
X005511Y006228D01*
X005670Y006386D02*
X004740Y006386D01*
X005351Y005435D02*
X002930Y005435D01*
X002930Y005277D02*
X005416Y005277D01*
X005526Y005118D02*
X002930Y005118D01*
X002930Y004960D02*
X005167Y004960D01*
X005170Y004960D02*
X005124Y004948D01*
X005083Y004924D01*
X005050Y004891D01*
X005026Y004850D01*
X005014Y004804D01*
X005014Y004582D01*
X005392Y004582D01*
X005392Y004960D01*
X005170Y004960D01*
X005014Y004801D02*
X002930Y004801D01*
X002430Y004801D02*
X001589Y004801D01*
X001562Y004960D02*
X002430Y004960D01*
X002430Y005118D02*
X001535Y005118D01*
X001508Y005277D02*
X002430Y005277D01*
X002430Y005435D02*
X001507Y005435D01*
X001507Y005594D02*
X002430Y005594D01*
X002430Y005752D02*
X001507Y005752D01*
X001812Y005911D02*
X001859Y005911D01*
X001859Y006069D02*
X001812Y006069D01*
X001812Y006228D02*
X001859Y006228D01*
X001859Y006386D02*
X001812Y006386D01*
X001812Y006545D02*
X001859Y006545D01*
X001614Y006703D02*
X002450Y006703D01*
X002359Y006862D02*
X002312Y006862D01*
X002312Y007020D02*
X002359Y007020D01*
X002312Y007179D02*
X001753Y007179D01*
X001809Y007337D02*
X001949Y007337D01*
X001949Y007416D02*
X001949Y007203D01*
X002312Y007203D01*
X002312Y007573D01*
X002105Y007573D01*
X002059Y007560D01*
X002018Y007537D01*
X001985Y007503D01*
X001961Y007462D01*
X001949Y007416D01*
X001980Y007496D02*
X001865Y007496D01*
X001930Y007654D02*
X002450Y007654D01*
X002487Y007813D02*
X002018Y007813D01*
X002107Y007971D02*
X002646Y007971D01*
X002284Y008288D02*
X004750Y008288D01*
X004760Y008130D02*
X002196Y008130D01*
X002408Y008447D02*
X003963Y008447D01*
X003975Y008435D02*
X004180Y008435D01*
X004385Y008435D01*
X004675Y008725D01*
X004675Y008930D01*
X004675Y009135D01*
X004385Y009425D01*
X004180Y009425D01*
X004180Y008930D01*
X004675Y008930D01*
X004180Y008930D01*
X004180Y008930D01*
X004180Y008930D01*
X004180Y008435D01*
X004180Y008930D01*
X004180Y008930D01*
X004180Y008930D01*
X003685Y008930D01*
X003685Y009135D01*
X003975Y009425D01*
X004180Y009425D01*
X004180Y008930D01*
X003685Y008930D01*
X003685Y008725D01*
X003975Y008435D01*
X003805Y008605D02*
X002535Y008605D01*
X002663Y008764D02*
X003685Y008764D01*
X003685Y008922D02*
X002791Y008922D01*
X002971Y009081D02*
X003685Y009081D01*
X003789Y009239D02*
X003151Y009239D01*
X003331Y009398D02*
X003947Y009398D01*
X004180Y009398D02*
X004180Y009398D01*
X004180Y009239D02*
X004180Y009239D01*
X004180Y009081D02*
X004180Y009081D01*
X004180Y008922D02*
X004180Y008922D01*
X004180Y008764D02*
X004180Y008764D01*
X004180Y008605D02*
X004180Y008605D01*
X004180Y008447D02*
X004180Y008447D01*
X004397Y008447D02*
X004750Y008447D01*
X004750Y008605D02*
X004555Y008605D01*
X004675Y008764D02*
X004750Y008764D01*
X004750Y008922D02*
X004675Y008922D01*
X004675Y009081D02*
X004750Y009081D01*
X004814Y009239D02*
X004571Y009239D01*
X004413Y009398D02*
X004972Y009398D01*
X005131Y009556D02*
X003562Y009556D01*
X003820Y009715D02*
X008558Y009715D01*
X008419Y009398D02*
X007941Y009398D01*
X008099Y009239D02*
X008261Y009239D01*
X008244Y009873D02*
X004081Y009873D01*
X004476Y010032D02*
X007929Y010032D01*
X007412Y010190D02*
X004925Y010190D01*
X005973Y010349D02*
X006514Y010349D01*
X006941Y009398D02*
X007419Y009398D01*
X007261Y009239D02*
X007099Y009239D01*
X007083Y008605D02*
X007259Y008605D01*
X007100Y008447D02*
X006925Y008447D01*
X001180Y005680D02*
X001182Y005821D01*
X001188Y005962D01*
X001198Y006102D01*
X001212Y006242D01*
X001230Y006382D01*
X001251Y006521D01*
X001277Y006660D01*
X001306Y006798D01*
X001340Y006934D01*
X001377Y007070D01*
X001418Y007205D01*
X001463Y007339D01*
X001512Y007471D01*
X001564Y007602D01*
X001620Y007731D01*
X001680Y007858D01*
X001743Y007984D01*
X001809Y008108D01*
X001880Y008231D01*
X001953Y008351D01*
X002030Y008469D01*
X002110Y008585D01*
X002194Y008698D01*
X002280Y008809D01*
X002370Y008918D01*
X002463Y009024D01*
X002558Y009127D01*
X002657Y009228D01*
X002758Y009326D01*
X002862Y009421D01*
X002969Y009513D01*
X003078Y009602D01*
X003190Y009687D01*
X003304Y009770D01*
X003420Y009850D01*
X003539Y009926D01*
X003660Y009998D01*
X003782Y010068D01*
X003907Y010133D01*
X004033Y010196D01*
X004161Y010254D01*
X004291Y010309D01*
X004422Y010361D01*
X004555Y010408D01*
X004689Y010452D01*
X004824Y010493D01*
X004960Y010529D01*
X005097Y010561D01*
X005235Y010590D01*
X005373Y010615D01*
X005513Y010635D01*
X005653Y010652D01*
X005793Y010665D01*
X005934Y010674D01*
X006074Y010679D01*
X006215Y010680D01*
X006356Y010677D01*
X006497Y010670D01*
X006637Y010659D01*
X006777Y010644D01*
X006917Y010625D01*
X007056Y010603D01*
X007194Y010576D01*
X007332Y010546D01*
X007468Y010511D01*
X007604Y010473D01*
X007738Y010431D01*
X007872Y010385D01*
X008004Y010336D01*
X008134Y010282D01*
X008263Y010225D01*
X008390Y010165D01*
X008516Y010101D01*
X008639Y010033D01*
X008761Y009962D01*
X008881Y009888D01*
X008998Y009810D01*
X009113Y009729D01*
X009226Y009645D01*
X009337Y009558D01*
X009445Y009467D01*
X009550Y009374D01*
X009653Y009277D01*
X009753Y009178D01*
X009850Y009076D01*
X009944Y008971D01*
X010035Y008864D01*
X010123Y008754D01*
X010208Y008642D01*
X010290Y008527D01*
X010369Y008410D01*
X010444Y008291D01*
X010516Y008170D01*
X010584Y008047D01*
X010649Y007922D01*
X010711Y007795D01*
X010768Y007666D01*
X010823Y007536D01*
X010873Y007405D01*
X010920Y007272D01*
X010963Y007138D01*
X011002Y007002D01*
X011037Y006866D01*
X011069Y006729D01*
X011096Y006591D01*
X011120Y006452D01*
X011140Y006312D01*
X011156Y006172D01*
X011168Y006032D01*
X011176Y005891D01*
X011180Y005750D01*
X011180Y005610D01*
X011176Y005469D01*
X011168Y005328D01*
X011156Y005188D01*
X011140Y005048D01*
X011120Y004908D01*
X011096Y004769D01*
X011069Y004631D01*
X011037Y004494D01*
X011002Y004358D01*
X010963Y004222D01*
X010920Y004088D01*
X010873Y003955D01*
X010823Y003824D01*
X010768Y003694D01*
X010711Y003565D01*
X010649Y003438D01*
X010584Y003313D01*
X010516Y003190D01*
X010444Y003069D01*
X010369Y002950D01*
X010290Y002833D01*
X010208Y002718D01*
X010123Y002606D01*
X010035Y002496D01*
X009944Y002389D01*
X009850Y002284D01*
X009753Y002182D01*
X009653Y002083D01*
X009550Y001986D01*
X009445Y001893D01*
X009337Y001802D01*
X009226Y001715D01*
X009113Y001631D01*
X008998Y001550D01*
X008881Y001472D01*
X008761Y001398D01*
X008639Y001327D01*
X008516Y001259D01*
X008390Y001195D01*
X008263Y001135D01*
X008134Y001078D01*
X008004Y001024D01*
X007872Y000975D01*
X007738Y000929D01*
X007604Y000887D01*
X007468Y000849D01*
X007332Y000814D01*
X007194Y000784D01*
X007056Y000757D01*
X006917Y000735D01*
X006777Y000716D01*
X006637Y000701D01*
X006497Y000690D01*
X006356Y000683D01*
X006215Y000680D01*
X006074Y000681D01*
X005934Y000686D01*
X005793Y000695D01*
X005653Y000708D01*
X005513Y000725D01*
X005373Y000745D01*
X005235Y000770D01*
X005097Y000799D01*
X004960Y000831D01*
X004824Y000867D01*
X004689Y000908D01*
X004555Y000952D01*
X004422Y000999D01*
X004291Y001051D01*
X004161Y001106D01*
X004033Y001164D01*
X003907Y001227D01*
X003782Y001292D01*
X003660Y001362D01*
X003539Y001434D01*
X003420Y001510D01*
X003304Y001590D01*
X003190Y001673D01*
X003078Y001758D01*
X002969Y001847D01*
X002862Y001939D01*
X002758Y002034D01*
X002657Y002132D01*
X002558Y002233D01*
X002463Y002336D01*
X002370Y002442D01*
X002280Y002551D01*
X002194Y002662D01*
X002110Y002775D01*
X002030Y002891D01*
X001953Y003009D01*
X001880Y003129D01*
X001809Y003252D01*
X001743Y003376D01*
X001680Y003502D01*
X001620Y003629D01*
X001564Y003758D01*
X001512Y003889D01*
X001463Y004021D01*
X001418Y004155D01*
X001377Y004290D01*
X001340Y004426D01*
X001306Y004562D01*
X001277Y004700D01*
X001251Y004839D01*
X001230Y004978D01*
X001212Y005118D01*
X001198Y005258D01*
X001188Y005398D01*
X001182Y005539D01*
X001180Y005680D01*
X001617Y004643D02*
X002430Y004643D01*
X002389Y004484D02*
X001646Y004484D01*
X001702Y004326D02*
X002389Y004326D01*
X002389Y004167D02*
X001758Y004167D01*
X001814Y004009D02*
X002389Y004009D01*
X002389Y003850D02*
X001870Y003850D01*
X001938Y003692D02*
X002500Y003692D01*
X002115Y003375D02*
X003330Y003375D01*
X003330Y003533D02*
X002027Y003533D01*
X002204Y003216D02*
X003330Y003216D01*
X003330Y003058D02*
X002292Y003058D01*
X002419Y002899D02*
X003330Y002899D01*
X003330Y002741D02*
X002547Y002741D01*
X003830Y002741D02*
X006466Y002741D01*
X006307Y002899D02*
X003830Y002899D01*
X003830Y003058D02*
X006149Y003058D01*
X005990Y003216D02*
X003830Y003216D01*
X003830Y003375D02*
X005832Y003375D01*
X005673Y003533D02*
X003830Y003533D01*
X003971Y004167D02*
X005080Y004167D01*
X005083Y004164D02*
X005124Y004140D01*
X005170Y004128D01*
X005392Y004128D01*
X005392Y004506D01*
X005014Y004506D01*
X005014Y004284D01*
X005026Y004238D01*
X005050Y004197D01*
X005083Y004164D01*
X005014Y004326D02*
X003971Y004326D01*
X003971Y004484D02*
X005014Y004484D01*
X005014Y004643D02*
X003886Y004643D01*
X005392Y004643D02*
X005468Y004643D01*
X005468Y004801D02*
X005392Y004801D01*
X005392Y004960D02*
X005468Y004960D01*
X005468Y004484D02*
X005392Y004484D01*
X005392Y004326D02*
X005468Y004326D01*
X005468Y004167D02*
X005392Y004167D01*
X006180Y004118D02*
X006180Y003734D01*
X006242Y003672D01*
X006242Y003672D01*
X006984Y002930D01*
X007935Y002930D01*
X007935Y003603D01*
X008013Y003682D01*
X007506Y004753D01*
X007299Y004547D01*
X007299Y004225D01*
X007182Y004108D01*
X006701Y004108D01*
X006665Y004145D01*
X006657Y004140D01*
X006611Y004128D01*
X006430Y004128D01*
X006430Y004544D01*
X006430Y004128D01*
X006249Y004128D01*
X006203Y004140D01*
X006203Y004140D01*
X006180Y004118D01*
X006180Y004009D02*
X007858Y004009D01*
X007933Y003850D02*
X006180Y003850D01*
X006222Y003692D02*
X008008Y003692D01*
X007935Y003533D02*
X006381Y003533D01*
X006539Y003375D02*
X007935Y003375D01*
X007935Y003216D02*
X006698Y003216D01*
X006856Y003058D02*
X007935Y003058D01*
X008487Y003850D02*
X008817Y003850D01*
X008929Y004009D02*
X008412Y004009D01*
X008336Y004167D02*
X008929Y004167D01*
X008988Y004326D02*
X008261Y004326D01*
X008186Y004484D02*
X008929Y004484D01*
X008929Y004643D02*
X008111Y004643D01*
X008036Y004801D02*
X008929Y004801D01*
X008929Y004960D02*
X007961Y004960D01*
X007558Y004643D02*
X007395Y004643D01*
X007299Y004484D02*
X007633Y004484D01*
X007708Y004326D02*
X007299Y004326D01*
X007241Y004167D02*
X007783Y004167D01*
X006430Y004167D02*
X006430Y004167D01*
X006430Y004326D02*
X006430Y004326D01*
X006430Y004484D02*
X006430Y004484D01*
X006430Y004544D02*
X006430Y004544D01*
X006624Y002582D02*
X003886Y002582D01*
X004513Y001790D02*
X008779Y001790D01*
X008993Y001948D02*
X004661Y001948D01*
X004512Y001314D02*
X005061Y001314D01*
X005061Y001156D02*
X004993Y001156D01*
X006668Y002538D02*
X006668Y002538D01*
X007299Y001631D02*
X008529Y001631D01*
X008215Y001473D02*
X007299Y001473D01*
X007299Y001314D02*
X007882Y001314D01*
X007365Y001156D02*
X007299Y001156D01*
X002187Y006545D02*
X002139Y006545D01*
X001982Y006862D02*
X001641Y006862D01*
X001697Y007020D02*
X001949Y007020D01*
X002312Y007337D02*
X002359Y007337D01*
X002359Y007496D02*
X002312Y007496D01*
D12*
X005314Y007483D03*
X005314Y007680D03*
X005314Y007877D03*
X005314Y008074D03*
X005314Y007286D03*
X007046Y007286D03*
X007046Y007483D03*
X007046Y007680D03*
X007046Y007877D03*
X007046Y008074D03*
D13*
X006942Y004544D03*
X006430Y004544D03*
X005930Y004544D03*
X005930Y001316D03*
X006430Y001316D03*
X006942Y001316D03*
X005418Y001316D03*
D14*
X005430Y004544D03*
D15*
X004274Y002180D03*
X003586Y002180D03*
X002524Y006180D03*
X001836Y006180D03*
X002336Y007180D03*
X003024Y007180D03*
X009336Y004680D03*
X010024Y004680D03*
X010024Y003930D03*
X009336Y003930D03*
D16*
X008430Y003265D03*
X008430Y002595D03*
D17*
X003515Y004180D03*
X002845Y004180D03*
D18*
X003680Y006180D03*
X004180Y008930D03*
X005430Y008930D03*
X006680Y008930D03*
X007680Y008930D03*
X008680Y008930D03*
D19*
X007180Y006930D03*
X004680Y005180D03*
X004180Y003180D03*
X007780Y003080D03*
X004430Y007430D03*
D20*
X004680Y007480D02*
X005314Y007483D01*
X005314Y007680D02*
X004780Y007680D01*
X004680Y007780D01*
X002780Y007780D01*
X002680Y007680D01*
X002680Y006080D01*
X002524Y006180D01*
X002580Y006180D01*
X002680Y006080D01*
X003024Y007180D02*
X003080Y007180D01*
X004980Y008380D02*
X004980Y009080D01*
X005280Y009380D01*
X006230Y009380D01*
X006680Y008930D01*
X007046Y008074D02*
X007080Y008080D01*
X005780Y007880D02*
X005380Y007880D01*
X005314Y007877D01*
X005314Y008074D02*
X005280Y008080D01*
X004980Y008380D01*
X005430Y008930D02*
X005780Y008580D01*
X005780Y007880D01*
X005380Y007280D02*
X005314Y007286D01*
X005280Y007280D01*
X003580Y004180D02*
X003515Y004180D01*
X003580Y004180D02*
X003580Y003880D01*
X002845Y004180D02*
X002680Y004080D01*
X003580Y002180D02*
X003586Y002180D01*
X008380Y002680D02*
X008430Y002595D01*
X008430Y003265D02*
X008480Y003280D01*
X009336Y003930D02*
X009380Y003980D01*
X009380Y004680D02*
X009336Y004680D01*
D21*
X009380Y004680D02*
X009380Y003980D01*
X009336Y003930D02*
X008480Y003280D01*
X007580Y005180D01*
X006942Y004544D01*
X007580Y005180D02*
X007580Y006180D01*
X005314Y007286D01*
X005280Y007280D02*
X004580Y006580D01*
X003930Y006580D01*
X003680Y006180D01*
X003930Y006580D02*
X003080Y007180D01*
X002680Y006080D02*
X002680Y004080D01*
X003580Y003880D02*
X003580Y002180D01*
X005680Y003880D02*
X005930Y003630D01*
X006030Y003530D01*
X006880Y002680D01*
X008380Y002680D01*
X005930Y003630D02*
X005930Y004544D01*
X007046Y007286D02*
X007046Y007483D01*
X006980Y007880D02*
X008197Y007880D01*
X004680Y007480D02*
X004430Y007430D01*
D22*
X006980Y007880D02*
X007046Y007877D01*
X007046Y007680D02*
X007430Y007680D01*
X007580Y007480D01*
X007580Y006180D01*
X008197Y007880D02*
X008680Y008463D01*
X008680Y008930D01*
X005680Y003880D02*
X003580Y003880D01*
D23*
X007080Y008080D02*
X007680Y008680D01*
X007680Y008930D01*
M02*
