%
M48
M72
T01C0.0130
T02C0.0374
T03C0.0400
T04C0.1280
%
T01
X7836Y6580
X9636Y6330
X11136Y6780
X12636Y7680
X12636Y8930
X14286Y6780
X15336Y6780
X15686Y6630
X16986Y5830
X18986Y7680
X20286Y6380
X23136Y6780
X23486Y6630
X23486Y7680
X23486Y8030
X25586Y9030
X27486Y9030
X30536Y7530
X30886Y7780
X30536Y6880
X30886Y6730
X32386Y5930
X34186Y7530
X34136Y8030
X37836Y8030
X38336Y7780
X38836Y7530
X38836Y11380
X38336Y11630
X37836Y12130
X39336Y12430
X40486Y12180
X41236Y11630
X41486Y11380
X36836Y14930
X35586Y12430
X32486Y13630
X31186Y14680
X31436Y14930
X30136Y14680
X30036Y15480
X31186Y16630
X31436Y16880
X28486Y15480
X27736Y16630
X27736Y17130
X26986Y17380
X26936Y16630
X25786Y15530
X25286Y15530
X25536Y14730
X27486Y13630
X20586Y11080
X20286Y11330
X18036Y10280
X17786Y11180
X20136Y14630
X19236Y17130
X18986Y17380
X16886Y16380
X14686Y16680
X13836Y17980
X13586Y18230
X13336Y18880
X12836Y19130
X11836Y18230
X11486Y17980
X11486Y16930
X7636Y16330
X5636Y16930
X5186Y16630
X6386Y18880
X6886Y19130
X13586Y22230
X14336Y21980
X17836Y22230
X18636Y24930
X18636Y25280
X17836Y25530
X17836Y25880
X17586Y25280
X16986Y25880
X18636Y27030
X14436Y28880
X13836Y28280
X11836Y25530
X7886Y24830
X14436Y32080
X24386Y32080
X25386Y31830
X26386Y32080
X27186Y31780
X27436Y30030
X29486Y29230
X29936Y28980
X30736Y28030
X29986Y27030
X27736Y27030
X27736Y26530
X26936Y27030
X27736Y28030
X25636Y25280
X25886Y24280
X26936Y25030
X27186Y24030
X27986Y24030
X28786Y23930
X29136Y23630
X29386Y23930
X29386Y24280
X30736Y23930
X29236Y22530
X29236Y22180
X30236Y22180
X29936Y20980
X29786Y20230
X30186Y19980
X29136Y20230
X28736Y19980
X28236Y20580
X28186Y21230
X28186Y21730
X27736Y22530
X27336Y20580
X27236Y19630
X26286Y19280
X26136Y19630
X25386Y19280
X25336Y20630
X25336Y20980
X30986Y20730
X36036Y23630
X36836Y23880
X39536Y26530
X41836Y23030
X39486Y18880
X36936Y18880
X32986Y28980
X31986Y29230
X36486Y32180
X38986Y31680
X39236Y31930
X39236Y31030
X41086Y31030
X40586Y34480
X36486Y34480
X9936Y10280
X7886Y8930
X7886Y8430
X6636Y8930
X6386Y8430
X24986Y5830
T02
X24986Y12030
X23986Y12030
X22986Y12030
X21986Y12030
X20986Y12030
X20986Y13030
X21986Y13030
X22986Y13030
X23986Y13030
X24986Y13030
X25986Y13030
X26986Y13030
X27986Y13030
X27986Y12030
X26986Y12030
X25986Y12030
X19986Y14030
X18436Y14030
X17436Y14030
X17436Y13030
X18436Y13030
X18436Y12030
X17436Y12030
X17436Y15030
X18436Y15030
X18436Y16030
X17436Y16030
X17436Y17030
X18436Y17030
X18436Y18030
X17436Y18030
X17436Y19030
X17436Y20030
X18436Y20030
X18436Y19030
X18436Y21030
X18436Y21780
X17436Y21780
X17436Y21030
X17386Y30030
X18386Y30030
X19386Y30030
X20386Y30030
X21386Y30030
X21386Y31030
X20386Y31030
X19386Y31030
X18386Y31030
X17386Y31030
X22386Y31030
X23386Y31030
X24386Y31030
X25386Y31030
X26386Y31030
X26386Y30030
X25386Y30030
X24386Y30030
X23386Y30030
X22386Y30030
X27986Y30030
X28986Y30030
X29986Y30030
X29986Y31030
X28986Y31030
X27986Y31030
X30986Y31030
X31986Y31030
X32986Y31030
X33986Y31030
X34986Y31030
X34986Y30030
X33986Y30030
X32986Y30030
X31986Y30030
X30986Y30030
X35036Y23030
X36036Y23030
X36036Y22030
X35036Y22030
X35036Y21030
X36036Y21030
T03
X34986Y13030
X33986Y13030
X32986Y13030
X31986Y13030
X30986Y13030
X29986Y13030
X29986Y12030
X30986Y12030
X31986Y12030
X32986Y12030
X33986Y12030
X34986Y12030
X10116Y29790
X10116Y31570
X7556Y31570
X7556Y29790
T04
X5589Y6430
X5589Y10430
X11086Y12432
X13439Y9430
X15086Y12432
X21239Y9430
X21239Y5430
X28639Y5530
X28639Y9530
X36086Y5832
X40086Y5832
X38736Y13332
X42736Y13332
X42786Y20832
X38786Y20832
X38836Y28782
X42836Y28782
X15086Y19982
X11086Y19982
X8386Y18028
X4386Y18028
X4636Y25678
X8636Y25678
X13439Y5430
M30
