G75*
%MOIN*%
%OFA0B0*%
%FSLAX24Y24*%
%IPPOS*%
%LPD*%
%AMOC8*
5,1,8,0,0,1.08239X$1,22.5*
%
%ADD10C,0.0160*%
%ADD11C,0.0120*%
%ADD12C,0.0100*%
%ADD13C,0.0060*%
%ADD14C,0.0050*%
%ADD15C,0.0130*%
%ADD16R,0.0200X0.0200*%
%ADD17C,0.0020*%
%ADD18C,0.0080*%
%ADD19C,0.0010*%
%ADD20C,0.0040*%
D10*
X016936Y011530D02*
X018936Y011530D01*
X018936Y021530D01*
X018136Y021530D01*
X018136Y021330D01*
X017736Y021330D01*
X017736Y021530D01*
X017186Y021530D01*
X016936Y021280D01*
X016936Y011530D01*
D11*
X016936Y021780D02*
X016436Y021780D01*
X016986Y021780D02*
X018936Y021780D01*
D12*
X017986Y029280D02*
X017736Y029530D01*
D13*
X017636Y029530D02*
X017886Y029780D01*
X017886Y030280D01*
X017636Y030530D01*
X017136Y030530D01*
X016886Y030280D01*
X016886Y029780D01*
X017136Y029530D01*
X017636Y029530D01*
X017886Y029780D02*
X018136Y029530D01*
X018636Y029530D01*
X018886Y029780D01*
X018886Y030280D01*
X019136Y030530D01*
X019636Y030530D01*
X019886Y030280D01*
X020136Y030530D01*
X020636Y030530D01*
X020886Y030280D01*
X021136Y030530D01*
X021636Y030530D01*
X021886Y030280D01*
X022136Y030530D01*
X022636Y030530D01*
X022886Y030280D01*
X023136Y030530D01*
X023636Y030530D01*
X023886Y030280D01*
X024136Y030530D01*
X024636Y030530D01*
X024886Y030280D01*
X025136Y030530D01*
X025636Y030530D01*
X025886Y030280D01*
X026136Y030530D01*
X026636Y030530D01*
X026886Y030280D01*
X026886Y029780D01*
X026636Y029530D01*
X026136Y029530D01*
X025886Y029780D01*
X025636Y029530D01*
X025136Y029530D01*
X024886Y029780D01*
X024886Y030280D01*
X024636Y030530D02*
X024136Y030530D01*
X023886Y030780D01*
X023636Y030530D01*
X023136Y030530D01*
X022886Y030780D01*
X022636Y030530D01*
X022136Y030530D01*
X021886Y030780D01*
X021886Y031280D01*
X022136Y031530D01*
X022636Y031530D01*
X022886Y031280D01*
X023136Y031530D01*
X023636Y031530D01*
X023886Y031280D01*
X024136Y031530D01*
X024636Y031530D01*
X024886Y031280D01*
X025136Y031530D01*
X025636Y031530D01*
X025886Y031280D01*
X026136Y031530D01*
X026636Y031530D01*
X026886Y031280D01*
X026886Y030780D01*
X026636Y030530D01*
X026136Y030530D01*
X025886Y030780D01*
X025636Y030530D01*
X025136Y030530D01*
X024886Y030780D01*
X024886Y031280D01*
X024886Y030780D02*
X024636Y030530D01*
X023886Y030280D02*
X023886Y029780D01*
X023636Y029530D01*
X023136Y029530D01*
X022886Y029780D01*
X022636Y029530D01*
X022136Y029530D01*
X021886Y029780D01*
X021886Y030280D01*
X021636Y030530D02*
X021136Y030530D01*
X020886Y030780D01*
X020636Y030530D01*
X020136Y030530D01*
X019886Y030780D01*
X019636Y030530D01*
X019136Y030530D01*
X018886Y030780D01*
X018886Y031280D01*
X019136Y031530D01*
X019636Y031530D01*
X019886Y031280D01*
X020136Y031530D01*
X020636Y031530D01*
X020886Y031280D01*
X021136Y031530D01*
X021636Y031530D01*
X021886Y031280D01*
X021886Y030780D02*
X021636Y030530D01*
X020886Y030280D02*
X020886Y029780D01*
X020636Y029530D01*
X020136Y029530D01*
X019886Y029780D01*
X019636Y029530D01*
X019136Y029530D01*
X018886Y029780D01*
X018886Y030280D02*
X018636Y030530D01*
X018136Y030530D01*
X017886Y030280D01*
X017636Y030530D02*
X017886Y030780D01*
X017886Y031280D01*
X017636Y031530D01*
X017136Y031530D01*
X016886Y031280D01*
X016886Y030780D01*
X017136Y030530D01*
X017636Y030530D01*
X017886Y030780D02*
X018136Y030530D01*
X018636Y030530D01*
X018886Y030780D01*
X018886Y031280D02*
X018636Y031530D01*
X018136Y031530D01*
X017886Y031280D01*
X019886Y031280D02*
X019886Y030780D01*
X019886Y030280D02*
X019886Y029780D01*
X020886Y029780D02*
X021136Y029530D01*
X021636Y029530D01*
X021886Y029780D01*
X020886Y030780D02*
X020886Y031280D01*
X022886Y031280D02*
X022886Y030780D01*
X022886Y030280D02*
X022886Y029780D01*
X023886Y029780D02*
X024136Y029530D01*
X024636Y029530D01*
X024886Y029780D01*
X025339Y029354D02*
X025266Y029280D01*
X025266Y029133D01*
X025339Y029060D01*
X025413Y029060D01*
X025486Y029133D01*
X025486Y029354D01*
X025633Y029354D02*
X025339Y029354D01*
X025633Y029354D02*
X025706Y029280D01*
X025706Y029133D01*
X025633Y029060D01*
X026266Y029133D02*
X026266Y029280D01*
X026339Y029354D01*
X026413Y029354D01*
X026486Y029280D01*
X026486Y029133D01*
X026413Y029060D01*
X026339Y029060D01*
X026266Y029133D01*
X026486Y029133D02*
X026560Y029060D01*
X026633Y029060D01*
X026706Y029133D01*
X026706Y029280D01*
X026633Y029354D01*
X026560Y029354D01*
X026486Y029280D01*
X027016Y029227D02*
X027016Y029397D01*
X027073Y029454D01*
X027300Y029454D01*
X027356Y029397D01*
X027356Y029227D01*
X027016Y029227D01*
X027016Y029596D02*
X027016Y029709D01*
X027016Y029652D02*
X027356Y029652D01*
X027356Y029596D02*
X027356Y029709D01*
X027300Y029841D02*
X027356Y029898D01*
X027356Y030011D01*
X027300Y030068D01*
X027186Y030068D01*
X027186Y029955D01*
X027073Y030068D02*
X027016Y030011D01*
X027016Y029898D01*
X027073Y029841D01*
X027300Y029841D01*
X027486Y029780D02*
X027486Y030280D01*
X027736Y030530D01*
X028236Y030530D01*
X028486Y030280D01*
X028736Y030530D01*
X029236Y030530D01*
X029486Y030280D01*
X029736Y030530D01*
X030236Y030530D01*
X030486Y030280D01*
X030736Y030530D01*
X031236Y030530D01*
X031486Y030280D01*
X031736Y030530D01*
X032236Y030530D01*
X032486Y030280D01*
X032736Y030530D01*
X033236Y030530D01*
X033486Y030280D01*
X033736Y030530D01*
X034236Y030530D01*
X034486Y030280D01*
X034736Y030530D01*
X035236Y030530D01*
X035486Y030280D01*
X035486Y029780D01*
X035236Y029530D01*
X034736Y029530D01*
X034486Y029780D01*
X034236Y029530D01*
X033736Y029530D01*
X033486Y029780D01*
X033486Y030280D01*
X033236Y030530D02*
X032736Y030530D01*
X032486Y030780D01*
X032236Y030530D01*
X031736Y030530D01*
X031486Y030780D01*
X031236Y030530D01*
X030736Y030530D01*
X030486Y030780D01*
X030486Y031280D01*
X030736Y031530D01*
X031236Y031530D01*
X031486Y031280D01*
X031736Y031530D01*
X032236Y031530D01*
X032486Y031280D01*
X032736Y031530D01*
X033236Y031530D01*
X033486Y031280D01*
X033736Y031530D01*
X034236Y031530D01*
X034486Y031280D01*
X034736Y031530D01*
X035236Y031530D01*
X035486Y031280D01*
X035486Y030780D01*
X035236Y030530D01*
X034736Y030530D01*
X034486Y030780D01*
X034236Y030530D01*
X033736Y030530D01*
X033486Y030780D01*
X033486Y031280D01*
X033486Y030780D02*
X033236Y030530D01*
X032486Y030280D02*
X032486Y029780D01*
X032236Y029530D01*
X031736Y029530D01*
X031486Y029780D01*
X031236Y029530D01*
X030736Y029530D01*
X030486Y029780D01*
X030486Y030280D01*
X030236Y030530D02*
X029736Y030530D01*
X029486Y030780D01*
X029236Y030530D01*
X028736Y030530D01*
X028486Y030780D01*
X028236Y030530D01*
X027736Y030530D01*
X027486Y030780D01*
X027486Y031280D01*
X027736Y031530D01*
X028236Y031530D01*
X028486Y031280D01*
X028736Y031530D01*
X029236Y031530D01*
X029486Y031280D01*
X029736Y031530D01*
X030236Y031530D01*
X030486Y031280D01*
X030486Y030780D02*
X030236Y030530D01*
X029486Y030280D02*
X029486Y029780D01*
X029236Y029530D01*
X028736Y029530D01*
X028486Y029780D01*
X028236Y029530D01*
X027736Y029530D01*
X027486Y029780D01*
X027356Y030210D02*
X027356Y030323D01*
X027356Y030266D02*
X027016Y030266D01*
X027016Y030210D02*
X027016Y030323D01*
X027016Y030455D02*
X027016Y030682D01*
X027016Y030568D02*
X027356Y030568D01*
X027356Y030823D02*
X027129Y030823D01*
X027016Y030937D01*
X027129Y031050D01*
X027356Y031050D01*
X027356Y031192D02*
X027016Y031192D01*
X027186Y031050D02*
X027186Y030823D01*
X027356Y031192D02*
X027356Y031419D01*
X028486Y031280D02*
X028486Y030780D01*
X028486Y030280D02*
X028486Y029780D01*
X028766Y029354D02*
X028839Y029207D01*
X028986Y029060D01*
X028986Y029280D01*
X029060Y029354D01*
X029133Y029354D01*
X029206Y029280D01*
X029206Y029133D01*
X029133Y029060D01*
X028986Y029060D01*
X028206Y029060D02*
X028133Y029060D01*
X027839Y029354D01*
X027766Y029354D01*
X027766Y029060D01*
X029486Y029780D02*
X029736Y029530D01*
X030236Y029530D01*
X030486Y029780D01*
X030133Y029354D02*
X030206Y029280D01*
X030206Y029133D01*
X030133Y029060D01*
X029986Y029060D02*
X029913Y029207D01*
X029913Y029280D01*
X029986Y029354D01*
X030133Y029354D01*
X029986Y029060D02*
X029766Y029060D01*
X029766Y029354D01*
X030766Y029280D02*
X030986Y029060D01*
X030986Y029354D01*
X031206Y029280D02*
X030766Y029280D01*
X031486Y029780D02*
X031486Y030280D01*
X031486Y030780D02*
X031486Y031280D01*
X032486Y031280D02*
X032486Y030780D01*
X032486Y029780D02*
X032736Y029530D01*
X033236Y029530D01*
X033486Y029780D01*
X033206Y029354D02*
X033206Y029060D01*
X032913Y029354D01*
X032839Y029354D01*
X032766Y029280D01*
X032766Y029133D01*
X032839Y029060D01*
X032206Y029133D02*
X032206Y029280D01*
X032133Y029354D01*
X032060Y029354D01*
X031986Y029280D01*
X031986Y029207D01*
X031986Y029280D02*
X031913Y029354D01*
X031839Y029354D01*
X031766Y029280D01*
X031766Y029133D01*
X031839Y029060D01*
X032133Y029060D02*
X032206Y029133D01*
X033766Y029207D02*
X034206Y029207D01*
X034206Y029060D02*
X034206Y029354D01*
X033913Y029060D02*
X033766Y029207D01*
X034486Y029780D02*
X034486Y030280D01*
X034486Y030780D02*
X034486Y031280D01*
X034839Y029354D02*
X035133Y029060D01*
X035206Y029133D01*
X035206Y029280D01*
X035133Y029354D01*
X034839Y029354D01*
X034766Y029280D01*
X034766Y029133D01*
X034839Y029060D01*
X035133Y029060D01*
X029486Y030780D02*
X029486Y031280D01*
X025886Y031280D02*
X025886Y030780D01*
X025886Y030280D02*
X025886Y029780D01*
X023886Y030780D02*
X023886Y031280D01*
X034536Y023280D02*
X034536Y022780D01*
X034786Y022530D01*
X036286Y022530D01*
X036536Y022280D01*
X036536Y021780D01*
X036286Y021530D01*
X036536Y021280D01*
X036536Y020780D01*
X036286Y020530D01*
X034786Y020530D01*
X034536Y020780D01*
X034536Y021280D01*
X034786Y021530D01*
X036286Y021530D01*
X036286Y022530D02*
X036536Y022780D01*
X036536Y023280D01*
X036286Y023530D01*
X034786Y023530D01*
X034536Y023280D01*
X034786Y022530D02*
X034536Y022280D01*
X034536Y021780D01*
X034786Y021530D01*
X035516Y019881D02*
X035956Y019881D01*
X035956Y019661D01*
X035883Y019587D01*
X035736Y019587D01*
X035663Y019661D01*
X035663Y019881D01*
X035956Y019427D02*
X035956Y019280D01*
X035956Y019354D02*
X035516Y019354D01*
X035516Y019280D01*
X035736Y019113D02*
X035663Y019040D01*
X035663Y018893D01*
X035736Y018820D01*
X035883Y018820D01*
X035956Y018893D01*
X035956Y019040D01*
X035810Y019113D02*
X035810Y018820D01*
X035956Y018660D02*
X035956Y018513D01*
X035956Y018586D02*
X035663Y018586D01*
X035663Y018513D01*
X035516Y018586D02*
X035443Y018586D01*
X035736Y018346D02*
X035663Y018273D01*
X035663Y018126D01*
X035736Y018053D01*
X035810Y017886D02*
X035883Y017886D01*
X035956Y017812D01*
X035956Y017666D01*
X035883Y017592D01*
X035736Y017666D02*
X035736Y017812D01*
X035810Y017886D01*
X035589Y017886D02*
X035516Y017812D01*
X035516Y017666D01*
X035589Y017592D01*
X035663Y017592D01*
X035736Y017666D01*
X035516Y018053D02*
X035956Y018053D01*
X035956Y018346D02*
X035736Y018346D01*
X036266Y018411D02*
X036339Y018485D01*
X036413Y018485D01*
X036486Y018411D01*
X036560Y018485D01*
X036633Y018485D01*
X036706Y018411D01*
X036706Y018265D01*
X036633Y018191D01*
X036560Y018024D02*
X036266Y018024D01*
X036339Y018191D02*
X036266Y018265D01*
X036266Y018411D01*
X036486Y018411D02*
X036486Y018338D01*
X036560Y018024D02*
X036706Y017878D01*
X036560Y017731D01*
X036266Y017731D01*
X036266Y017564D02*
X036266Y017270D01*
X036706Y017270D01*
X036706Y017564D01*
X036486Y017417D02*
X036486Y017270D01*
X036486Y017104D02*
X036560Y017030D01*
X036560Y016810D01*
X036706Y016810D02*
X036266Y016810D01*
X036266Y017030D01*
X036339Y017104D01*
X036486Y017104D01*
X036560Y016957D02*
X036706Y017104D01*
X035956Y016892D02*
X035883Y016965D01*
X035736Y016965D01*
X035663Y016892D01*
X035663Y016745D01*
X035736Y016671D01*
X035883Y016671D01*
X035956Y016745D01*
X035956Y016892D01*
X035956Y016511D02*
X035883Y016438D01*
X035589Y016438D01*
X035663Y016511D02*
X035663Y016364D01*
X035736Y016198D02*
X035663Y016124D01*
X035663Y015977D01*
X035736Y015904D01*
X035883Y015904D01*
X035956Y015977D01*
X035956Y016124D01*
X035883Y016198D01*
X035736Y016198D01*
X035663Y015741D02*
X035663Y015667D01*
X035810Y015520D01*
X035956Y015520D02*
X035663Y015520D01*
X035589Y015354D02*
X035736Y015354D01*
X035810Y015280D01*
X035810Y015060D01*
X035956Y015060D02*
X035516Y015060D01*
X035516Y015280D01*
X035589Y015354D01*
X034914Y014250D02*
X034620Y014250D01*
X034620Y014030D01*
X034767Y014104D01*
X034840Y014104D01*
X034914Y014030D01*
X034914Y013883D01*
X034840Y013810D01*
X034694Y013810D01*
X034620Y013883D01*
X034736Y013530D02*
X034486Y013280D01*
X034486Y012780D01*
X034736Y012530D01*
X035236Y012530D01*
X035486Y012780D01*
X035486Y013280D01*
X035236Y013530D01*
X034736Y013530D01*
X034486Y013280D02*
X034236Y013530D01*
X033736Y013530D01*
X033486Y013280D01*
X033486Y012780D01*
X033736Y012530D01*
X034236Y012530D01*
X034486Y012780D01*
X034236Y012530D02*
X034486Y012280D01*
X034736Y012530D01*
X035236Y012530D01*
X035486Y012280D01*
X035486Y011780D01*
X035236Y011530D01*
X034736Y011530D01*
X034486Y011780D01*
X034236Y011530D01*
X033736Y011530D01*
X033486Y011780D01*
X033236Y011530D01*
X032736Y011530D01*
X032486Y011780D01*
X032236Y011530D01*
X031736Y011530D01*
X031486Y011780D01*
X031236Y011530D01*
X030736Y011530D01*
X030486Y011780D01*
X030236Y011530D01*
X029736Y011530D01*
X029486Y011780D01*
X029486Y012280D01*
X029736Y012530D01*
X030236Y012530D01*
X030486Y012780D01*
X030736Y012530D01*
X031236Y012530D01*
X031486Y012780D01*
X031486Y013280D01*
X031236Y013530D01*
X030736Y013530D01*
X030486Y013280D01*
X030486Y012780D01*
X030236Y012530D02*
X030486Y012280D01*
X030736Y012530D01*
X031236Y012530D01*
X031486Y012280D01*
X031486Y011780D01*
X031486Y012280D02*
X031736Y012530D01*
X031486Y012780D01*
X031736Y012530D02*
X032236Y012530D01*
X032486Y012780D01*
X032736Y012530D01*
X033236Y012530D01*
X033486Y012780D01*
X033236Y012530D02*
X033486Y012280D01*
X033736Y012530D01*
X034236Y012530D01*
X034486Y012280D02*
X034486Y011780D01*
X033486Y011780D02*
X033486Y012280D01*
X033236Y012530D02*
X032736Y012530D01*
X032486Y012280D01*
X032486Y011780D01*
X032486Y012280D02*
X032236Y012530D01*
X031736Y012530D01*
X031486Y013280D02*
X031736Y013530D01*
X032236Y013530D01*
X032486Y013280D01*
X032736Y013530D01*
X033236Y013530D01*
X033486Y013280D01*
X033920Y013810D02*
X033920Y014250D01*
X033699Y014030D01*
X033993Y014030D01*
X033072Y013957D02*
X033072Y013883D01*
X032999Y013810D01*
X032852Y013810D01*
X032779Y013883D01*
X032925Y014030D02*
X032999Y014030D01*
X033072Y013957D01*
X032999Y014030D02*
X033072Y014104D01*
X033072Y014177D01*
X032999Y014250D01*
X032852Y014250D01*
X032779Y014177D01*
X032151Y014177D02*
X032078Y014250D01*
X031931Y014250D01*
X031858Y014177D01*
X032151Y014177D02*
X032151Y014104D01*
X031858Y013810D01*
X032151Y013810D01*
X032486Y013280D02*
X032486Y012780D01*
X031231Y013810D02*
X030937Y013810D01*
X031084Y013810D02*
X031084Y014250D01*
X030937Y014104D01*
X030310Y014177D02*
X030016Y013883D01*
X030090Y013810D01*
X030236Y013810D01*
X030310Y013883D01*
X030310Y014177D01*
X030236Y014250D01*
X030090Y014250D01*
X030016Y014177D01*
X030016Y013883D01*
X030236Y013530D02*
X029736Y013530D01*
X029486Y013280D01*
X029486Y012780D01*
X029736Y012530D01*
X030236Y012530D01*
X030486Y012280D02*
X030486Y011780D01*
X029306Y011787D02*
X029079Y011787D01*
X028966Y011673D01*
X029079Y011560D01*
X029306Y011560D01*
X029136Y011560D02*
X029136Y011787D01*
X028966Y011928D02*
X029306Y012155D01*
X028966Y012155D01*
X029079Y012297D02*
X028966Y012410D01*
X029079Y012523D01*
X029306Y012523D01*
X029306Y012665D02*
X028966Y012665D01*
X029136Y012523D02*
X029136Y012297D01*
X029079Y012297D02*
X029306Y012297D01*
X029306Y012665D02*
X029306Y012892D01*
X029250Y013033D02*
X029023Y013033D01*
X028966Y013090D01*
X028966Y013203D01*
X029023Y013260D01*
X029250Y013260D01*
X029306Y013203D01*
X029306Y013090D01*
X029250Y013033D01*
X029250Y013402D02*
X029023Y013402D01*
X028966Y013458D01*
X028966Y013572D01*
X029023Y013628D01*
X029136Y013628D02*
X029136Y013515D01*
X029136Y013628D02*
X029250Y013628D01*
X029306Y013572D01*
X029306Y013458D01*
X029250Y013402D01*
X028486Y013280D02*
X028486Y012780D01*
X028236Y012530D01*
X027736Y012530D01*
X027486Y012780D01*
X027236Y012530D01*
X026736Y012530D01*
X026486Y012780D01*
X026236Y012530D01*
X025736Y012530D01*
X025486Y012780D01*
X025236Y012530D01*
X024736Y012530D01*
X024486Y012780D01*
X024236Y012530D01*
X023736Y012530D01*
X023486Y012780D01*
X023236Y012530D01*
X022736Y012530D01*
X022486Y012780D01*
X022236Y012530D01*
X021736Y012530D01*
X021486Y012780D01*
X021236Y012530D01*
X020736Y012530D01*
X020486Y012780D01*
X020486Y013280D01*
X020736Y013530D01*
X021236Y013530D01*
X021486Y013280D01*
X021736Y013530D01*
X022236Y013530D01*
X022486Y013280D01*
X022486Y012780D01*
X022236Y012530D02*
X022486Y012280D01*
X022486Y011780D01*
X022236Y011530D01*
X021736Y011530D01*
X021486Y011780D01*
X021236Y011530D01*
X020736Y011530D01*
X020486Y011780D01*
X020486Y012280D01*
X020736Y012530D01*
X021236Y012530D01*
X021486Y012280D01*
X021736Y012530D01*
X022236Y012530D01*
X022486Y012280D02*
X022736Y012530D01*
X023236Y012530D01*
X023486Y012280D01*
X023736Y012530D01*
X024236Y012530D01*
X024486Y012280D01*
X024736Y012530D01*
X025236Y012530D01*
X025486Y012280D01*
X025486Y011780D01*
X025236Y011530D01*
X024736Y011530D01*
X024486Y011780D01*
X024236Y011530D01*
X023736Y011530D01*
X023486Y011780D01*
X023236Y011530D01*
X022736Y011530D01*
X022486Y011780D01*
X021486Y011780D02*
X021486Y012280D01*
X021486Y012780D02*
X021486Y013280D01*
X022486Y013280D02*
X022736Y013530D01*
X023236Y013530D01*
X023486Y013280D01*
X023736Y013530D01*
X024236Y013530D01*
X024486Y013280D01*
X024736Y013530D01*
X025236Y013530D01*
X025486Y013280D01*
X025486Y012780D01*
X025736Y012530D02*
X025486Y012280D01*
X025736Y012530D02*
X026236Y012530D01*
X026486Y012280D01*
X026736Y012530D01*
X027236Y012530D01*
X027486Y012280D01*
X027736Y012530D01*
X028236Y012530D01*
X028486Y012280D01*
X028486Y011780D01*
X028236Y011530D01*
X027736Y011530D01*
X027486Y011780D01*
X027236Y011530D01*
X026736Y011530D01*
X026486Y011780D01*
X026236Y011530D01*
X025736Y011530D01*
X025486Y011780D01*
X024486Y011780D02*
X024486Y012280D01*
X024486Y012780D02*
X024486Y013280D01*
X024590Y013810D02*
X024516Y013883D01*
X024590Y013810D02*
X024736Y013810D01*
X024810Y013883D01*
X024810Y014030D01*
X024736Y014104D01*
X024663Y014104D01*
X024516Y014030D01*
X024516Y014250D01*
X024810Y014250D01*
X024977Y014250D02*
X024977Y013957D01*
X025123Y013810D01*
X025270Y013957D01*
X025270Y014250D01*
X025897Y014177D02*
X025897Y013883D01*
X025971Y013810D01*
X026118Y013810D01*
X026191Y013883D01*
X026191Y014030D01*
X026044Y014030D01*
X025897Y014177D02*
X025971Y014250D01*
X026118Y014250D01*
X026191Y014177D01*
X026358Y014104D02*
X026578Y014104D01*
X026651Y014030D01*
X026651Y013810D01*
X026818Y013883D02*
X026818Y014030D01*
X026892Y014104D01*
X027112Y014104D01*
X027112Y014250D02*
X027112Y013810D01*
X026892Y013810D01*
X026818Y013883D01*
X026736Y013530D02*
X026486Y013280D01*
X026486Y012780D01*
X026486Y012280D02*
X026486Y011780D01*
X027486Y011780D02*
X027486Y012280D01*
X027486Y012780D02*
X027486Y013280D01*
X027736Y013530D01*
X028236Y013530D01*
X028486Y013280D01*
X028346Y013810D02*
X028493Y013957D01*
X028493Y014250D01*
X028199Y014250D02*
X028199Y013957D01*
X028346Y013810D01*
X028033Y013883D02*
X028033Y014177D01*
X027959Y014250D01*
X027812Y014250D01*
X027739Y014177D01*
X027739Y014104D01*
X027812Y014030D01*
X028033Y014030D01*
X028033Y013883D02*
X027959Y013810D01*
X027812Y013810D01*
X027739Y013883D01*
X027236Y013530D02*
X027486Y013280D01*
X027236Y013530D02*
X026736Y013530D01*
X026486Y013280D02*
X026236Y013530D01*
X025736Y013530D01*
X025486Y013280D01*
X026358Y013810D02*
X026358Y014104D01*
X023486Y013280D02*
X023486Y012780D01*
X023486Y012280D02*
X023486Y011780D01*
X028966Y011928D02*
X029306Y011928D01*
X030486Y013280D02*
X030236Y013530D01*
X035736Y019113D02*
X035810Y019113D01*
X035832Y023810D02*
X035889Y023867D01*
X035832Y023810D02*
X035719Y023810D01*
X035662Y023867D01*
X035662Y024094D01*
X035719Y024150D01*
X035832Y024150D01*
X035889Y024094D01*
X036030Y024094D02*
X036030Y024037D01*
X036087Y023980D01*
X036200Y023980D01*
X036257Y023923D01*
X036257Y023867D01*
X036200Y023810D01*
X036087Y023810D01*
X036030Y023867D01*
X036030Y024094D02*
X036087Y024150D01*
X036200Y024150D01*
X036257Y024094D01*
X036398Y024150D02*
X036569Y024150D01*
X036625Y024094D01*
X036625Y023980D01*
X036569Y023923D01*
X036398Y023923D01*
X036398Y023810D02*
X036398Y024150D01*
X035530Y024150D02*
X035416Y024150D01*
X035473Y024150D02*
X035473Y023810D01*
X035416Y023810D02*
X035530Y023810D01*
X018481Y021927D02*
X018481Y021633D01*
X018407Y021560D01*
X018187Y021560D01*
X018187Y022000D01*
X018407Y022000D01*
X018481Y021927D01*
X018020Y022000D02*
X018020Y021560D01*
X017727Y022000D01*
X017727Y021560D01*
X017560Y021633D02*
X017560Y021780D01*
X017413Y021780D01*
X017266Y021927D02*
X017266Y021633D01*
X017340Y021560D01*
X017486Y021560D01*
X017560Y021633D01*
X017560Y021927D02*
X017486Y022000D01*
X017340Y022000D01*
X017266Y021927D01*
X010949Y016550D02*
X010949Y016257D01*
X010803Y016110D01*
X010656Y016257D01*
X010656Y016550D01*
X010489Y016550D02*
X010196Y016550D01*
X010196Y016330D01*
X010342Y016404D01*
X010416Y016404D01*
X010489Y016330D01*
X010489Y016183D01*
X010416Y016110D01*
X010269Y016110D01*
X010196Y016183D01*
X010029Y016330D02*
X009735Y016330D01*
X009882Y016477D02*
X009882Y016183D01*
X009559Y029065D02*
X009559Y029405D01*
X009672Y029405D02*
X009445Y029405D01*
X009336Y029480D02*
X009686Y029480D01*
X009836Y029480D01*
X010036Y029680D01*
X010036Y030280D01*
X010036Y030380D01*
X010136Y030380D01*
X010136Y030980D01*
X010036Y030980D01*
X010036Y031080D01*
X010036Y031680D01*
X009836Y031880D01*
X009686Y031880D01*
X009336Y031880D01*
X008386Y031880D01*
X007986Y031880D01*
X007836Y031880D01*
X007636Y031680D01*
X007636Y031080D01*
X007636Y030980D01*
X007536Y030980D01*
X007536Y030380D01*
X007636Y030380D01*
X007636Y030280D01*
X007636Y029680D01*
X007836Y029480D01*
X007986Y029480D01*
X008336Y029480D01*
X009336Y029480D01*
X009304Y029405D02*
X009077Y029405D01*
X009077Y029065D01*
X009304Y029065D01*
X009190Y029235D02*
X009077Y029235D01*
X008935Y029178D02*
X008935Y029122D01*
X008879Y029065D01*
X008765Y029065D01*
X008709Y029122D01*
X008765Y029235D02*
X008879Y029235D01*
X008935Y029178D01*
X008935Y029349D02*
X008879Y029405D01*
X008765Y029405D01*
X008709Y029349D01*
X008709Y029292D01*
X008765Y029235D01*
X008567Y029065D02*
X008340Y029065D01*
X008340Y029405D01*
X008567Y029405D01*
X008454Y029235D02*
X008340Y029235D01*
X008199Y029235D02*
X008142Y029178D01*
X007972Y029178D01*
X007972Y029065D02*
X007972Y029405D01*
X008142Y029405D01*
X008199Y029349D01*
X008199Y029235D01*
X008085Y029178D02*
X008199Y029065D01*
X008336Y029780D02*
X009336Y029780D01*
X009486Y029830D02*
X009488Y029858D01*
X009494Y029885D01*
X009503Y029911D01*
X009516Y029936D01*
X009533Y029959D01*
X009552Y029979D01*
X009574Y029996D01*
X009598Y030010D01*
X009624Y030020D01*
X009651Y030027D01*
X009679Y030030D01*
X009707Y030029D01*
X009734Y030024D01*
X009761Y030015D01*
X009786Y030003D01*
X009809Y029988D01*
X009830Y029969D01*
X009848Y029948D01*
X009863Y029924D01*
X009874Y029898D01*
X009882Y029872D01*
X009886Y029844D01*
X009886Y029816D01*
X009882Y029788D01*
X009874Y029762D01*
X009863Y029736D01*
X009848Y029712D01*
X009830Y029691D01*
X009809Y029672D01*
X009786Y029657D01*
X009761Y029645D01*
X009734Y029636D01*
X009707Y029631D01*
X009679Y029630D01*
X009651Y029633D01*
X009624Y029640D01*
X009598Y029650D01*
X009574Y029664D01*
X009552Y029681D01*
X009533Y029701D01*
X009516Y029724D01*
X009503Y029749D01*
X009494Y029775D01*
X009488Y029802D01*
X009486Y029830D01*
X009786Y030180D02*
X009786Y030480D01*
X009686Y030830D01*
X009786Y030880D02*
X009786Y031180D01*
X009486Y031530D02*
X009488Y031558D01*
X009494Y031585D01*
X009503Y031611D01*
X009516Y031636D01*
X009533Y031659D01*
X009552Y031679D01*
X009574Y031696D01*
X009598Y031710D01*
X009624Y031720D01*
X009651Y031727D01*
X009679Y031730D01*
X009707Y031729D01*
X009734Y031724D01*
X009761Y031715D01*
X009786Y031703D01*
X009809Y031688D01*
X009830Y031669D01*
X009848Y031648D01*
X009863Y031624D01*
X009874Y031598D01*
X009882Y031572D01*
X009886Y031544D01*
X009886Y031516D01*
X009882Y031488D01*
X009874Y031462D01*
X009863Y031436D01*
X009848Y031412D01*
X009830Y031391D01*
X009809Y031372D01*
X009786Y031357D01*
X009761Y031345D01*
X009734Y031336D01*
X009707Y031331D01*
X009679Y031330D01*
X009651Y031333D01*
X009624Y031340D01*
X009598Y031350D01*
X009574Y031364D01*
X009552Y031381D01*
X009533Y031401D01*
X009516Y031424D01*
X009503Y031449D01*
X009494Y031475D01*
X009488Y031502D01*
X009486Y031530D01*
X009336Y031530D02*
X008336Y031530D01*
X007786Y031480D02*
X007788Y031508D01*
X007794Y031535D01*
X007803Y031561D01*
X007816Y031586D01*
X007833Y031609D01*
X007852Y031629D01*
X007874Y031646D01*
X007898Y031660D01*
X007924Y031670D01*
X007951Y031677D01*
X007979Y031680D01*
X008007Y031679D01*
X008034Y031674D01*
X008061Y031665D01*
X008086Y031653D01*
X008109Y031638D01*
X008130Y031619D01*
X008148Y031598D01*
X008163Y031574D01*
X008174Y031548D01*
X008182Y031522D01*
X008186Y031494D01*
X008186Y031466D01*
X008182Y031438D01*
X008174Y031412D01*
X008163Y031386D01*
X008148Y031362D01*
X008130Y031341D01*
X008109Y031322D01*
X008086Y031307D01*
X008061Y031295D01*
X008034Y031286D01*
X008007Y031281D01*
X007979Y031280D01*
X007951Y031283D01*
X007924Y031290D01*
X007898Y031300D01*
X007874Y031314D01*
X007852Y031331D01*
X007833Y031351D01*
X007816Y031374D01*
X007803Y031399D01*
X007794Y031425D01*
X007788Y031452D01*
X007786Y031480D01*
X008736Y030680D02*
X008738Y030700D01*
X008744Y030718D01*
X008753Y030736D01*
X008765Y030751D01*
X008780Y030763D01*
X008798Y030772D01*
X008816Y030778D01*
X008836Y030780D01*
X008856Y030778D01*
X008874Y030772D01*
X008892Y030763D01*
X008907Y030751D01*
X008919Y030736D01*
X008928Y030718D01*
X008934Y030700D01*
X008936Y030680D01*
X008934Y030660D01*
X008928Y030642D01*
X008919Y030624D01*
X008907Y030609D01*
X008892Y030597D01*
X008874Y030588D01*
X008856Y030582D01*
X008836Y030580D01*
X008816Y030582D01*
X008798Y030588D01*
X008780Y030597D01*
X008765Y030609D01*
X008753Y030624D01*
X008744Y030642D01*
X008738Y030660D01*
X008736Y030680D01*
X008136Y030680D02*
X008138Y030732D01*
X008144Y030784D01*
X008154Y030836D01*
X008167Y030886D01*
X008184Y030936D01*
X008205Y030984D01*
X008230Y031030D01*
X008258Y031074D01*
X008289Y031116D01*
X008323Y031156D01*
X008360Y031193D01*
X008400Y031227D01*
X008442Y031258D01*
X008486Y031286D01*
X008532Y031311D01*
X008580Y031332D01*
X008630Y031349D01*
X008680Y031362D01*
X008732Y031372D01*
X008784Y031378D01*
X008836Y031380D01*
X008888Y031378D01*
X008940Y031372D01*
X008992Y031362D01*
X009042Y031349D01*
X009092Y031332D01*
X009140Y031311D01*
X009186Y031286D01*
X009230Y031258D01*
X009272Y031227D01*
X009312Y031193D01*
X009349Y031156D01*
X009383Y031116D01*
X009414Y031074D01*
X009442Y031030D01*
X009467Y030984D01*
X009488Y030936D01*
X009505Y030886D01*
X009518Y030836D01*
X009528Y030784D01*
X009534Y030732D01*
X009536Y030680D01*
X009534Y030628D01*
X009528Y030576D01*
X009518Y030524D01*
X009505Y030474D01*
X009488Y030424D01*
X009467Y030376D01*
X009442Y030330D01*
X009414Y030286D01*
X009383Y030244D01*
X009349Y030204D01*
X009312Y030167D01*
X009272Y030133D01*
X009230Y030102D01*
X009186Y030074D01*
X009140Y030049D01*
X009092Y030028D01*
X009042Y030011D01*
X008992Y029998D01*
X008940Y029988D01*
X008888Y029982D01*
X008836Y029980D01*
X008784Y029982D01*
X008732Y029988D01*
X008680Y029998D01*
X008630Y030011D01*
X008580Y030028D01*
X008532Y030049D01*
X008486Y030074D01*
X008442Y030102D01*
X008400Y030133D01*
X008360Y030167D01*
X008323Y030204D01*
X008289Y030244D01*
X008258Y030286D01*
X008230Y030330D01*
X008205Y030376D01*
X008184Y030424D01*
X008167Y030474D01*
X008154Y030524D01*
X008144Y030576D01*
X008138Y030628D01*
X008136Y030680D01*
X007786Y029830D02*
X007788Y029858D01*
X007794Y029885D01*
X007803Y029911D01*
X007816Y029936D01*
X007833Y029959D01*
X007852Y029979D01*
X007874Y029996D01*
X007898Y030010D01*
X007924Y030020D01*
X007951Y030027D01*
X007979Y030030D01*
X008007Y030029D01*
X008034Y030024D01*
X008061Y030015D01*
X008086Y030003D01*
X008109Y029988D01*
X008130Y029969D01*
X008148Y029948D01*
X008163Y029924D01*
X008174Y029898D01*
X008182Y029872D01*
X008186Y029844D01*
X008186Y029816D01*
X008182Y029788D01*
X008174Y029762D01*
X008163Y029736D01*
X008148Y029712D01*
X008130Y029691D01*
X008109Y029672D01*
X008086Y029657D01*
X008061Y029645D01*
X008034Y029636D01*
X008007Y029631D01*
X007979Y029630D01*
X007951Y029633D01*
X007924Y029640D01*
X007898Y029650D01*
X007874Y029664D01*
X007852Y029681D01*
X007833Y029701D01*
X007816Y029724D01*
X007803Y029749D01*
X007794Y029775D01*
X007788Y029802D01*
X007786Y029830D01*
D14*
X009986Y005680D02*
X004736Y005680D01*
X004065Y005830D02*
X010002Y005830D01*
X010002Y011030D01*
X004065Y011030D01*
X004002Y011030D02*
X004002Y005830D01*
X003986Y007430D02*
X003986Y009430D01*
X004736Y011180D02*
X009986Y011180D01*
X009986Y009930D01*
X010486Y010846D02*
X015687Y010846D01*
X015687Y010909D02*
X015687Y016846D01*
X010486Y016846D01*
X010486Y010909D01*
X010336Y011580D02*
X010336Y016830D01*
X011586Y016830D01*
X012086Y018380D02*
X014086Y018380D01*
X015687Y018396D02*
X010486Y018396D01*
X010486Y018459D02*
X010486Y024396D01*
X015687Y024396D01*
X015687Y018459D01*
X015836Y019130D02*
X015836Y024380D01*
X014586Y024380D01*
X011586Y024380D02*
X010336Y024380D01*
X010336Y019130D01*
X009136Y018880D02*
X009136Y013630D01*
X007886Y013630D01*
X008987Y013614D02*
X008987Y019551D01*
X008987Y019614D02*
X003786Y019614D01*
X003786Y019551D02*
X003786Y013614D01*
X008987Y013614D01*
X012086Y010830D02*
X014086Y010830D01*
X012586Y010180D02*
X017836Y010180D01*
X017836Y008930D01*
X017852Y010030D02*
X011915Y010030D01*
X011852Y010030D02*
X011852Y004830D01*
X011915Y004830D02*
X017852Y004830D01*
X017852Y010030D01*
X019652Y010030D02*
X019652Y004830D01*
X019715Y004830D02*
X025652Y004830D01*
X025652Y010030D01*
X019715Y010030D01*
X020386Y010180D02*
X025636Y010180D01*
X025636Y008930D01*
X027036Y008530D02*
X027036Y006530D01*
X025636Y005930D02*
X025636Y004680D01*
X020386Y004680D01*
X019636Y006430D02*
X019636Y008430D01*
X017836Y005930D02*
X017836Y004680D01*
X012586Y004680D01*
X011836Y006430D02*
X011836Y008430D01*
X009986Y006930D02*
X009986Y005680D01*
X015836Y011580D02*
X015836Y016830D01*
X014586Y016830D01*
X019791Y013592D02*
X019866Y013667D01*
X020016Y013667D01*
X020091Y013592D01*
X020091Y013367D01*
X020091Y013517D02*
X020241Y013667D01*
X020241Y013367D02*
X019791Y013367D01*
X019791Y013592D01*
X019791Y013206D02*
X019791Y012906D01*
X020241Y012906D01*
X020241Y013206D01*
X020016Y013056D02*
X020016Y012906D01*
X020241Y012746D02*
X019791Y012746D01*
X019791Y012446D02*
X020241Y012446D01*
X020091Y012596D01*
X020241Y012746D01*
X020166Y012286D02*
X019866Y012286D01*
X019791Y012211D01*
X019791Y012060D01*
X019866Y011985D01*
X020166Y011985D01*
X020241Y012060D01*
X020241Y012211D01*
X020166Y012286D01*
X020016Y011825D02*
X019866Y011825D01*
X019791Y011750D01*
X019791Y011525D01*
X020241Y011525D01*
X020091Y011525D02*
X020091Y011750D01*
X020016Y011825D01*
X022811Y013705D02*
X022811Y013880D01*
X022869Y013939D01*
X022986Y013939D01*
X023045Y013880D01*
X023045Y013705D01*
X023161Y013705D02*
X022811Y013705D01*
X023045Y013822D02*
X023161Y013939D01*
X023161Y014073D02*
X022811Y014073D01*
X022811Y014307D01*
X022869Y014442D02*
X022811Y014500D01*
X022811Y014617D01*
X022869Y014675D01*
X022986Y014617D02*
X023045Y014675D01*
X023103Y014675D01*
X023161Y014617D01*
X023161Y014500D01*
X023103Y014442D01*
X022986Y014500D02*
X022928Y014442D01*
X022869Y014442D01*
X022986Y014500D02*
X022986Y014617D01*
X023161Y014307D02*
X023161Y014073D01*
X022986Y014073D02*
X022986Y014190D01*
X023811Y014073D02*
X024045Y014073D01*
X024161Y014190D01*
X024045Y014307D01*
X023811Y014307D01*
X023869Y014442D02*
X023811Y014500D01*
X023811Y014617D01*
X023869Y014675D01*
X023928Y014675D01*
X023986Y014617D01*
X024045Y014675D01*
X024103Y014675D01*
X024161Y014617D01*
X024161Y014500D01*
X024103Y014442D01*
X023986Y014558D02*
X023986Y014617D01*
X023928Y013939D02*
X023986Y013880D01*
X024045Y013939D01*
X024103Y013939D01*
X024161Y013880D01*
X024161Y013763D01*
X024103Y013705D01*
X023986Y013822D02*
X023986Y013880D01*
X023928Y013939D02*
X023869Y013939D01*
X023811Y013880D01*
X023811Y013763D01*
X023869Y013705D01*
X026336Y015130D02*
X026336Y015380D01*
X026336Y015130D02*
X028336Y015130D01*
X028336Y015380D01*
X028336Y015130D02*
X028336Y018880D01*
X028336Y019130D02*
X028336Y019630D01*
X028336Y019380D01*
X028336Y019630D02*
X026336Y019630D01*
X026336Y019380D01*
X026336Y019630D02*
X026336Y015130D01*
X028336Y015130D01*
X028336Y019630D02*
X026336Y019630D01*
X026336Y024030D02*
X026336Y024280D01*
X026336Y024030D02*
X028336Y024030D01*
X028336Y024280D01*
X028336Y024030D02*
X028336Y027780D01*
X028336Y028030D02*
X028336Y028530D01*
X028336Y028280D01*
X028336Y028530D02*
X026336Y028530D01*
X026336Y028280D01*
X026336Y028530D02*
X026336Y024030D01*
X028336Y024030D01*
X028336Y028530D02*
X026336Y028530D01*
X022647Y032255D02*
X022647Y032705D01*
X022422Y032480D01*
X022722Y032480D01*
X022262Y032705D02*
X022111Y032705D01*
X022186Y032705D02*
X022186Y032330D01*
X022111Y032255D01*
X022036Y032255D01*
X021961Y032330D01*
X021936Y033455D02*
X022011Y033455D01*
X022086Y033530D01*
X022086Y033905D01*
X022011Y033905D02*
X022162Y033905D01*
X022322Y033830D02*
X022397Y033905D01*
X022547Y033905D01*
X022622Y033830D01*
X022622Y033755D01*
X022547Y033680D01*
X022622Y033605D01*
X022622Y033530D01*
X022547Y033455D01*
X022397Y033455D01*
X022322Y033530D01*
X022472Y033680D02*
X022547Y033680D01*
X021936Y033455D02*
X021861Y033530D01*
X020553Y029325D02*
X020319Y029325D01*
X020261Y029267D01*
X020261Y029092D01*
X020611Y029092D01*
X020611Y029267D01*
X020553Y029325D01*
X020611Y028957D02*
X020261Y028957D01*
X020261Y028723D02*
X020611Y028957D01*
X020611Y028723D02*
X020261Y028723D01*
X020319Y028589D02*
X020261Y028530D01*
X020261Y028413D01*
X020319Y028355D01*
X020553Y028355D01*
X020611Y028413D01*
X020611Y028530D01*
X020553Y028589D01*
X020436Y028589D01*
X020436Y028472D01*
X019611Y028465D02*
X019378Y028465D01*
X019261Y028349D01*
X019378Y028232D01*
X019611Y028232D01*
X019436Y028232D02*
X019436Y028465D01*
X019495Y028600D02*
X019495Y028775D01*
X019436Y028834D01*
X019319Y028834D01*
X019261Y028775D01*
X019261Y028600D01*
X019611Y028600D01*
X019495Y028717D02*
X019611Y028834D01*
X019611Y028968D02*
X019261Y028968D01*
X019261Y029202D01*
X019261Y029337D02*
X019261Y029570D01*
X019436Y029453D02*
X019436Y029337D01*
X019611Y029337D02*
X019261Y029337D01*
X019436Y029085D02*
X019436Y028968D01*
X019611Y028968D02*
X019611Y029202D01*
X018711Y029142D02*
X018478Y029142D01*
X018361Y029258D01*
X018478Y029375D01*
X018711Y029375D01*
X018536Y029375D02*
X018536Y029142D01*
X018419Y029007D02*
X018361Y028948D01*
X018361Y028773D01*
X018711Y028773D01*
X018711Y028948D01*
X018653Y029007D01*
X018419Y029007D01*
X018261Y028948D02*
X018203Y029007D01*
X018261Y028948D02*
X018261Y028832D01*
X018203Y028773D01*
X017969Y028773D01*
X017911Y028832D01*
X017911Y028948D01*
X017969Y029007D01*
X017911Y029142D02*
X018261Y029142D01*
X018261Y029375D01*
X018203Y028639D02*
X018261Y028580D01*
X018261Y028463D01*
X018203Y028405D01*
X018086Y028463D02*
X018086Y028580D01*
X018145Y028639D01*
X018203Y028639D01*
X018361Y028580D02*
X018361Y028463D01*
X018419Y028405D01*
X018478Y028405D01*
X018536Y028463D01*
X018536Y028580D01*
X018595Y028639D01*
X018653Y028639D01*
X018711Y028580D01*
X018711Y028463D01*
X018653Y028405D01*
X018419Y028639D02*
X018361Y028580D01*
X018086Y028463D02*
X018028Y028405D01*
X017969Y028405D01*
X017911Y028463D01*
X017911Y028580D01*
X017969Y028639D01*
X010501Y031380D02*
X010426Y031305D01*
X010276Y031305D01*
X010201Y031380D01*
X010351Y031530D02*
X010426Y031530D01*
X010501Y031455D01*
X010501Y031380D01*
X010426Y031530D02*
X010501Y031605D01*
X010501Y031680D01*
X010426Y031755D01*
X010276Y031755D01*
X010201Y031680D01*
X010251Y030005D02*
X010251Y029555D01*
X010101Y029555D02*
X010401Y029555D01*
X010101Y029855D02*
X010251Y030005D01*
X007301Y029980D02*
X007226Y030055D01*
X007076Y030055D01*
X007001Y029980D01*
X007301Y029980D02*
X007301Y029905D01*
X007001Y029605D01*
X007301Y029605D01*
X007226Y031305D02*
X007226Y031755D01*
X007001Y031530D01*
X007301Y031530D01*
X007636Y027280D02*
X005636Y027280D01*
X004036Y027264D02*
X009237Y027264D01*
X009237Y027201D02*
X009237Y021264D01*
X004036Y021264D01*
X004036Y027201D01*
X003886Y026530D02*
X003886Y021280D01*
X005136Y021280D01*
X005386Y019630D02*
X007386Y019630D01*
X008136Y021280D02*
X009386Y021280D01*
X009386Y026530D01*
X003636Y018880D02*
X003636Y013630D01*
X004886Y013630D01*
X024661Y005505D02*
X024812Y005505D01*
X024736Y005505D02*
X024736Y005130D01*
X024661Y005055D01*
X024586Y005055D01*
X024511Y005130D01*
X024972Y005055D02*
X025272Y005355D01*
X025272Y005430D01*
X025197Y005505D01*
X025047Y005505D01*
X024972Y005430D01*
X024972Y005055D02*
X025272Y005055D01*
X027052Y004930D02*
X027052Y010130D01*
X027115Y010130D02*
X033052Y010130D01*
X033052Y004930D01*
X027115Y004930D01*
X027786Y004780D02*
X033036Y004780D01*
X033036Y006030D01*
X032812Y005505D02*
X032661Y005505D01*
X032736Y005505D02*
X032736Y005130D01*
X032661Y005055D01*
X032586Y005055D01*
X032511Y005130D01*
X032972Y005130D02*
X033047Y005055D01*
X033197Y005055D01*
X033272Y005130D01*
X033272Y005205D01*
X033197Y005280D01*
X032972Y005280D01*
X032972Y005130D01*
X032972Y005280D02*
X033122Y005430D01*
X033272Y005505D01*
X035336Y004980D02*
X035336Y010230D01*
X036586Y010230D01*
X035486Y010246D02*
X035486Y004309D01*
X035486Y004246D02*
X040687Y004246D01*
X040687Y004309D02*
X040687Y010246D01*
X035486Y010246D01*
X033036Y010280D02*
X033036Y009030D01*
X033036Y010280D02*
X027786Y010280D01*
X037086Y004230D02*
X039086Y004230D01*
X040836Y004980D02*
X040836Y010230D01*
X039586Y010230D01*
X039736Y011730D02*
X041736Y011730D01*
X043337Y011746D02*
X038136Y011746D01*
X038136Y011809D02*
X038136Y017746D01*
X043337Y017746D01*
X043337Y011809D01*
X043486Y012480D02*
X043486Y017730D01*
X042236Y017730D01*
X041786Y019230D02*
X039786Y019230D01*
X038186Y019246D02*
X043387Y019246D01*
X043387Y019309D02*
X043387Y025246D01*
X038186Y025246D01*
X038186Y019309D01*
X038036Y019980D02*
X038036Y025230D01*
X039286Y025230D01*
X039836Y027180D02*
X041836Y027180D01*
X043437Y027196D02*
X038236Y027196D01*
X038236Y027259D02*
X038236Y033196D01*
X043437Y033196D01*
X043437Y027259D01*
X043586Y027930D02*
X043586Y033180D01*
X042336Y033180D01*
X039336Y033180D02*
X038086Y033180D01*
X038086Y027930D01*
X042286Y025230D02*
X043536Y025230D01*
X043536Y019980D01*
X039236Y017730D02*
X037986Y017730D01*
X037986Y012480D01*
X032247Y032355D02*
X032097Y032355D01*
X032022Y032430D01*
X032022Y032580D02*
X032172Y032655D01*
X032247Y032655D01*
X032322Y032580D01*
X032322Y032430D01*
X032247Y032355D01*
X032022Y032580D02*
X032022Y032805D01*
X032322Y032805D01*
X031862Y032805D02*
X031711Y032805D01*
X031786Y032805D02*
X031786Y032430D01*
X031711Y032355D01*
X031636Y032355D01*
X031561Y032430D01*
X031576Y033313D02*
X031651Y033313D01*
X031726Y033388D01*
X031726Y033764D01*
X031651Y033764D02*
X031802Y033764D01*
X031962Y033614D02*
X032112Y033764D01*
X032112Y033313D01*
X031962Y033313D02*
X032262Y033313D01*
X031576Y033313D02*
X031501Y033388D01*
D15*
X016923Y021567D02*
X016923Y021445D01*
X016801Y021445D01*
X016801Y021567D01*
X016923Y021567D01*
D16*
X017386Y030030D03*
X018386Y030030D03*
X019386Y030030D03*
X020386Y030030D03*
X021386Y030030D03*
X021386Y031030D03*
X020386Y031030D03*
X019386Y031030D03*
X018386Y031030D03*
X017386Y031030D03*
X022386Y031030D03*
X023386Y031030D03*
X024386Y031030D03*
X025386Y031030D03*
X026386Y031030D03*
X026386Y030030D03*
X025386Y030030D03*
X024386Y030030D03*
X023386Y030030D03*
X022386Y030030D03*
X027986Y030030D03*
X028986Y030030D03*
X029986Y030030D03*
X029986Y031030D03*
X028986Y031030D03*
X027986Y031030D03*
X030986Y031030D03*
X031986Y031030D03*
X032986Y031030D03*
X033986Y031030D03*
X034986Y031030D03*
X034986Y030030D03*
X033986Y030030D03*
X032986Y030030D03*
X031986Y030030D03*
X030986Y030030D03*
X035036Y023030D03*
X036036Y023030D03*
X036036Y022030D03*
X035036Y022030D03*
X035036Y021030D03*
X036036Y021030D03*
X034986Y013030D03*
X033986Y013030D03*
X032986Y013030D03*
X031986Y013030D03*
X030986Y013030D03*
X029986Y013030D03*
X029986Y012030D03*
X030986Y012030D03*
X031986Y012030D03*
X032986Y012030D03*
X033986Y012030D03*
X034986Y012030D03*
X027986Y012030D03*
X026986Y012030D03*
X025986Y012030D03*
X024986Y012030D03*
X023986Y012030D03*
X022986Y012030D03*
X021986Y012030D03*
X020986Y012030D03*
X020986Y013030D03*
X021986Y013030D03*
X022986Y013030D03*
X023986Y013030D03*
X024986Y013030D03*
X025986Y013030D03*
X026986Y013030D03*
X027986Y013030D03*
D17*
X009336Y029480D02*
X009336Y029580D01*
X008336Y029580D01*
X008336Y029480D01*
X008336Y030180D02*
X009336Y030180D01*
X009336Y031180D01*
X008336Y031180D01*
X008336Y030180D01*
X008586Y030680D02*
X008588Y030711D01*
X008594Y030742D01*
X008604Y030772D01*
X008617Y030800D01*
X008634Y030827D01*
X008654Y030851D01*
X008677Y030873D01*
X008702Y030891D01*
X008730Y030906D01*
X008759Y030918D01*
X008789Y030926D01*
X008820Y030930D01*
X008852Y030930D01*
X008883Y030926D01*
X008913Y030918D01*
X008942Y030906D01*
X008970Y030891D01*
X008995Y030873D01*
X009018Y030851D01*
X009038Y030827D01*
X009055Y030800D01*
X009068Y030772D01*
X009078Y030742D01*
X009084Y030711D01*
X009086Y030680D01*
X009084Y030649D01*
X009078Y030618D01*
X009068Y030588D01*
X009055Y030560D01*
X009038Y030533D01*
X009018Y030509D01*
X008995Y030487D01*
X008970Y030469D01*
X008942Y030454D01*
X008913Y030442D01*
X008883Y030434D01*
X008852Y030430D01*
X008820Y030430D01*
X008789Y030434D01*
X008759Y030442D01*
X008730Y030454D01*
X008702Y030469D01*
X008677Y030487D01*
X008654Y030509D01*
X008634Y030533D01*
X008617Y030560D01*
X008604Y030588D01*
X008594Y030618D01*
X008588Y030649D01*
X008586Y030680D01*
X008386Y031780D02*
X008386Y031880D01*
X008386Y031780D02*
X009336Y031780D01*
X009336Y031880D01*
D18*
X026302Y023553D02*
X026302Y020207D01*
X028271Y020207D01*
X028271Y023553D01*
X026302Y023553D01*
X026498Y023280D02*
X026500Y023298D01*
X026506Y023316D01*
X026515Y023332D01*
X026527Y023345D01*
X026542Y023356D01*
X026559Y023364D01*
X026577Y023368D01*
X026595Y023368D01*
X026613Y023364D01*
X026630Y023356D01*
X026645Y023345D01*
X026657Y023332D01*
X026666Y023316D01*
X026672Y023298D01*
X026674Y023280D01*
X026672Y023262D01*
X026666Y023244D01*
X026657Y023228D01*
X026645Y023215D01*
X026630Y023204D01*
X026613Y023196D01*
X026595Y023192D01*
X026577Y023192D01*
X026559Y023196D01*
X026542Y023204D01*
X026527Y023215D01*
X026515Y023228D01*
X026506Y023244D01*
X026500Y023262D01*
X026498Y023280D01*
D19*
X027291Y023313D02*
X027291Y023238D01*
X027441Y023238D01*
X027441Y023313D01*
X027416Y023338D01*
X027316Y023338D01*
X027291Y023313D01*
X027291Y023190D02*
X027441Y023190D01*
X027441Y023090D02*
X027291Y023090D01*
X027341Y023140D01*
X027291Y023190D01*
X027316Y023043D02*
X027291Y023018D01*
X027291Y022968D01*
X027316Y022943D01*
X027341Y022943D01*
X027366Y022968D01*
X027366Y023018D01*
X027391Y023043D01*
X027416Y023043D01*
X027441Y023018D01*
X027441Y022968D01*
X027416Y022943D01*
X027316Y022896D02*
X027416Y022796D01*
X027441Y022796D01*
X027416Y022748D02*
X027391Y022748D01*
X027366Y022723D01*
X027366Y022648D01*
X027416Y022648D01*
X027441Y022673D01*
X027441Y022723D01*
X027416Y022748D01*
X027316Y022698D02*
X027366Y022648D01*
X027316Y022601D02*
X027416Y022501D01*
X027441Y022526D01*
X027441Y022576D01*
X027416Y022601D01*
X027316Y022601D01*
X027291Y022576D01*
X027291Y022526D01*
X027316Y022501D01*
X027416Y022501D01*
X027366Y022454D02*
X027366Y022354D01*
X027291Y022429D01*
X027441Y022429D01*
X027416Y022306D02*
X027441Y022281D01*
X027441Y022231D01*
X027416Y022206D01*
X027316Y022206D01*
X027291Y022231D01*
X027291Y022281D01*
X027316Y022306D01*
X027291Y022159D02*
X027441Y022159D01*
X027366Y022159D02*
X027366Y022059D01*
X027366Y022012D02*
X027366Y021912D01*
X027291Y021987D01*
X027441Y021987D01*
X027441Y022059D02*
X027291Y022059D01*
X027291Y021864D02*
X027316Y021864D01*
X027416Y021764D01*
X027441Y021764D01*
X027366Y021717D02*
X027366Y021617D01*
X027291Y021570D02*
X027441Y021470D01*
X027416Y021423D02*
X027291Y021423D01*
X027291Y021470D02*
X027441Y021570D01*
X027416Y021423D02*
X027441Y021398D01*
X027441Y021347D01*
X027416Y021322D01*
X027291Y021322D01*
X027291Y021275D02*
X027441Y021275D01*
X027441Y021175D02*
X027291Y021175D01*
X027341Y021225D01*
X027291Y021275D01*
X027291Y021764D02*
X027291Y021864D01*
X027816Y022501D02*
X027916Y022501D01*
X027941Y022526D01*
X027941Y022576D01*
X027916Y022601D01*
X027916Y022648D02*
X027941Y022673D01*
X027941Y022723D01*
X027916Y022748D01*
X027891Y022748D01*
X027866Y022723D01*
X027866Y022673D01*
X027841Y022648D01*
X027816Y022648D01*
X027791Y022673D01*
X027791Y022723D01*
X027816Y022748D01*
X027816Y022601D02*
X027791Y022576D01*
X027791Y022526D01*
X027816Y022501D01*
X027966Y022796D02*
X027966Y022896D01*
X027941Y022943D02*
X027791Y022943D01*
X027841Y022993D01*
X027791Y023043D01*
X027941Y023043D01*
X027916Y023090D02*
X027941Y023115D01*
X027941Y023165D01*
X027916Y023190D01*
X027791Y023190D01*
X027791Y023238D02*
X027941Y023338D01*
X027941Y023238D02*
X027791Y023338D01*
X027791Y023090D02*
X027916Y023090D01*
X027316Y022896D02*
X027291Y022896D01*
X027291Y022796D01*
X027291Y022748D02*
X027316Y022698D01*
D20*
X025566Y022565D02*
X025490Y022565D01*
X025183Y022872D01*
X025106Y022872D01*
X025106Y022565D01*
X025106Y022411D02*
X025566Y022411D01*
X025566Y022104D02*
X025106Y022104D01*
X025259Y022258D01*
X025106Y022411D01*
X025336Y023025D02*
X025336Y023332D01*
X025336Y023486D02*
X025336Y023793D01*
X025183Y023946D02*
X025490Y023946D01*
X025566Y024023D01*
X025566Y024176D01*
X025490Y024253D01*
X025566Y024406D02*
X025566Y024713D01*
X025566Y024560D02*
X025106Y024560D01*
X025259Y024406D01*
X025183Y024253D02*
X025106Y024176D01*
X025106Y024023D01*
X025183Y023946D01*
X025106Y023793D02*
X025566Y023793D01*
X025566Y023486D02*
X025106Y023486D01*
X025106Y023255D02*
X025336Y023025D01*
X025566Y023255D02*
X025106Y023255D01*
X025336Y024867D02*
X025336Y025174D01*
X025183Y025327D02*
X025336Y025481D01*
X025566Y025481D01*
X025336Y025481D02*
X025183Y025634D01*
X025106Y025634D01*
X025106Y025788D02*
X025106Y026018D01*
X025183Y026095D01*
X025336Y026095D01*
X025413Y026018D01*
X025413Y025788D01*
X025413Y025941D02*
X025566Y026095D01*
X025566Y026248D02*
X025106Y026248D01*
X025259Y026401D01*
X025106Y026555D01*
X025566Y026555D01*
X025566Y026708D02*
X025566Y027015D01*
X025566Y026862D02*
X025106Y026862D01*
X025259Y026708D01*
X025183Y027169D02*
X025106Y027246D01*
X025106Y027399D01*
X025183Y027476D01*
X025259Y027476D01*
X025336Y027399D01*
X025413Y027476D01*
X025490Y027476D01*
X025566Y027399D01*
X025566Y027246D01*
X025490Y027169D01*
X025336Y027322D02*
X025336Y027399D01*
X025106Y027629D02*
X025106Y027936D01*
X025106Y027783D02*
X025566Y027783D01*
X025566Y028090D02*
X025106Y028090D01*
X025106Y028320D01*
X025183Y028397D01*
X025336Y028397D01*
X025413Y028320D01*
X025413Y028090D01*
X025413Y028243D02*
X025566Y028397D01*
X025566Y025788D02*
X025106Y025788D01*
X025106Y025327D02*
X025183Y025327D01*
X025106Y025097D02*
X025336Y024867D01*
X025566Y025097D02*
X025106Y025097D01*
X029106Y026862D02*
X029106Y027015D01*
X029106Y026939D02*
X029566Y026939D01*
X029566Y027015D02*
X029566Y026862D01*
X029566Y027169D02*
X029106Y027169D01*
X029566Y027476D01*
X029106Y027476D01*
X029106Y027629D02*
X029413Y027629D01*
X029566Y027783D01*
X029413Y027936D01*
X029106Y027936D01*
X029259Y028090D02*
X029106Y028243D01*
X029566Y028243D01*
X029566Y028090D02*
X029566Y028397D01*
X037356Y030200D02*
X037740Y030200D01*
X037816Y030277D01*
X037816Y030430D01*
X037740Y030507D01*
X037356Y030507D01*
X037433Y030660D02*
X037356Y030737D01*
X037356Y030891D01*
X037433Y030967D01*
X037433Y031121D02*
X037356Y031198D01*
X037356Y031351D01*
X037433Y031428D01*
X037509Y031428D01*
X037586Y031351D01*
X037663Y031428D01*
X037740Y031428D01*
X037816Y031351D01*
X037816Y031198D01*
X037740Y031121D01*
X037740Y030967D02*
X037663Y030967D01*
X037586Y030891D01*
X037586Y030737D01*
X037509Y030660D01*
X037433Y030660D01*
X037279Y030814D02*
X037893Y030814D01*
X037816Y030891D02*
X037740Y030967D01*
X037816Y030891D02*
X037816Y030737D01*
X037740Y030660D01*
X037586Y031274D02*
X037586Y031351D01*
X043806Y029616D02*
X044266Y029616D01*
X044266Y029463D02*
X044266Y029770D01*
X044316Y030200D02*
X043856Y030200D01*
X044009Y030353D01*
X043856Y030507D01*
X044316Y030507D01*
X044240Y030660D02*
X044316Y030737D01*
X044316Y030891D01*
X044240Y030967D01*
X043933Y030967D01*
X043856Y030891D01*
X043856Y030737D01*
X043933Y030660D01*
X044240Y030660D01*
X044316Y031121D02*
X043856Y031121D01*
X044316Y031121D02*
X044316Y031428D01*
X044316Y031581D02*
X043856Y031581D01*
X043856Y031888D01*
X043856Y032042D02*
X044316Y032348D01*
X044316Y032502D02*
X043856Y032502D01*
X043856Y032732D01*
X043933Y032809D01*
X044086Y032809D01*
X044163Y032732D01*
X044163Y032502D01*
X044163Y032655D02*
X044316Y032809D01*
X044240Y032962D02*
X044316Y033039D01*
X044316Y033116D01*
X044240Y033193D01*
X043856Y033193D01*
X043856Y033269D02*
X043856Y033116D01*
X044009Y033423D02*
X043856Y033576D01*
X044316Y033576D01*
X044316Y033423D02*
X044316Y033730D01*
X044316Y033883D02*
X044316Y034190D01*
X044316Y034037D02*
X043856Y034037D01*
X044009Y033883D01*
X043856Y034344D02*
X044163Y034344D01*
X044316Y034497D01*
X044163Y034650D01*
X043856Y034650D01*
X044009Y034804D02*
X043856Y034957D01*
X044009Y035111D01*
X044316Y035111D01*
X044316Y035264D02*
X043856Y035264D01*
X043856Y035495D01*
X043933Y035571D01*
X044086Y035571D01*
X044163Y035495D01*
X044163Y035264D01*
X044163Y035418D02*
X044316Y035571D01*
X044316Y035725D02*
X044316Y035878D01*
X044316Y035801D02*
X043856Y035801D01*
X043856Y035725D02*
X043856Y035878D01*
X044009Y036032D02*
X043856Y036185D01*
X044009Y036339D01*
X044316Y036339D01*
X044316Y036492D02*
X043856Y036492D01*
X044316Y036799D01*
X043856Y036799D01*
X043856Y036952D02*
X043856Y037259D01*
X043856Y037106D02*
X044316Y037106D01*
X044316Y037413D02*
X044316Y037720D01*
X044316Y037566D02*
X043856Y037566D01*
X044009Y037413D01*
X044086Y036339D02*
X044086Y036032D01*
X044009Y036032D02*
X044316Y036032D01*
X044086Y035111D02*
X044086Y034804D01*
X044009Y034804D02*
X044316Y034804D01*
X043856Y032348D02*
X044316Y032042D01*
X044316Y031888D02*
X044316Y031581D01*
X044086Y031581D02*
X044086Y031735D01*
X043806Y029616D02*
X043959Y029463D01*
X043806Y029309D02*
X043806Y029002D01*
X043806Y028849D02*
X044266Y028849D01*
X043806Y028542D01*
X044266Y028542D01*
X044266Y028389D02*
X043959Y028389D01*
X043806Y028235D01*
X043959Y028082D01*
X044266Y028082D01*
X044266Y027928D02*
X044266Y027775D01*
X044266Y027851D02*
X043806Y027851D01*
X043806Y027775D02*
X043806Y027928D01*
X044036Y028082D02*
X044036Y028389D01*
X044036Y027621D02*
X044113Y027545D01*
X044113Y027314D01*
X044266Y027314D02*
X043806Y027314D01*
X043806Y027545D01*
X043883Y027621D01*
X044036Y027621D01*
X044113Y027468D02*
X044266Y027621D01*
X044266Y027161D02*
X043959Y027161D01*
X043806Y027007D01*
X043959Y026854D01*
X044266Y026854D01*
X044113Y026700D02*
X043806Y026700D01*
X044036Y026854D02*
X044036Y027161D01*
X044113Y026700D02*
X044266Y026547D01*
X044113Y026394D01*
X043806Y026394D01*
X043806Y026087D02*
X044266Y026087D01*
X044266Y026240D02*
X044266Y025933D01*
X044266Y025780D02*
X044266Y025473D01*
X044266Y025626D02*
X043806Y025626D01*
X043959Y025473D01*
X043806Y025319D02*
X043806Y025166D01*
X043806Y025243D02*
X044190Y025243D01*
X044266Y025166D01*
X044266Y025089D01*
X044190Y025012D01*
X044266Y024859D02*
X044113Y024705D01*
X044113Y024782D02*
X044113Y024552D01*
X044266Y024552D02*
X043806Y024552D01*
X043806Y024782D01*
X043883Y024859D01*
X044036Y024859D01*
X044113Y024782D01*
X044266Y024398D02*
X043806Y024092D01*
X043806Y023938D02*
X043806Y023631D01*
X044266Y023631D01*
X044266Y023938D01*
X044266Y024092D02*
X043806Y024398D01*
X044036Y023785D02*
X044036Y023631D01*
X044266Y023478D02*
X044266Y023171D01*
X043806Y023171D01*
X043883Y023017D02*
X043806Y022941D01*
X043806Y022787D01*
X043883Y022710D01*
X044190Y022710D01*
X044266Y022787D01*
X044266Y022941D01*
X044190Y023017D01*
X043883Y023017D01*
X043806Y022557D02*
X044266Y022557D01*
X044216Y022270D02*
X044216Y021963D01*
X044216Y022116D02*
X043756Y022116D01*
X043909Y021963D01*
X043756Y021809D02*
X043756Y021502D01*
X043756Y021349D02*
X044216Y021349D01*
X043756Y021042D01*
X044216Y021042D01*
X044216Y020889D02*
X043909Y020889D01*
X043756Y020735D01*
X043909Y020582D01*
X044216Y020582D01*
X044216Y020428D02*
X044216Y020275D01*
X044216Y020351D02*
X043756Y020351D01*
X043756Y020275D02*
X043756Y020428D01*
X043986Y020582D02*
X043986Y020889D01*
X043986Y020121D02*
X044063Y020045D01*
X044063Y019814D01*
X044216Y019814D02*
X043756Y019814D01*
X043756Y020045D01*
X043833Y020121D01*
X043986Y020121D01*
X044063Y019968D02*
X044216Y020121D01*
X044216Y019661D02*
X043909Y019661D01*
X043756Y019507D01*
X043909Y019354D01*
X044216Y019354D01*
X044063Y019200D02*
X043756Y019200D01*
X043986Y019354D02*
X043986Y019661D01*
X044063Y019200D02*
X044216Y019047D01*
X044063Y018894D01*
X043756Y018894D01*
X043756Y018587D02*
X044216Y018587D01*
X044216Y018740D02*
X044216Y018433D01*
X044216Y018280D02*
X044216Y017973D01*
X044216Y018126D02*
X043756Y018126D01*
X043909Y017973D01*
X043756Y017819D02*
X043756Y017666D01*
X043756Y017743D02*
X044140Y017743D01*
X044216Y017666D01*
X044216Y017589D01*
X044140Y017512D01*
X044216Y017359D02*
X044063Y017205D01*
X044063Y017282D02*
X044063Y017052D01*
X044216Y017052D02*
X043756Y017052D01*
X043756Y017282D01*
X043833Y017359D01*
X043986Y017359D01*
X044063Y017282D01*
X044216Y016898D02*
X043756Y016592D01*
X043756Y016438D02*
X043756Y016131D01*
X044216Y016131D01*
X044216Y016438D01*
X044216Y016592D02*
X043756Y016898D01*
X043986Y016285D02*
X043986Y016131D01*
X044216Y015978D02*
X044216Y015671D01*
X043756Y015671D01*
X043833Y015517D02*
X043756Y015441D01*
X043756Y015287D01*
X043833Y015210D01*
X044140Y015210D01*
X044216Y015287D01*
X044216Y015441D01*
X044140Y015517D01*
X043833Y015517D01*
X043756Y015057D02*
X044216Y015057D01*
X044216Y014750D02*
X043756Y014750D01*
X043909Y014903D01*
X043756Y015057D01*
X041566Y014770D02*
X041566Y014463D01*
X041566Y014616D02*
X041106Y014616D01*
X041259Y014463D01*
X041106Y014309D02*
X041106Y014002D01*
X041106Y013849D02*
X041566Y013849D01*
X041106Y013542D01*
X041566Y013542D01*
X041566Y013389D02*
X041259Y013389D01*
X041106Y013235D01*
X041259Y013082D01*
X041566Y013082D01*
X041566Y012928D02*
X041566Y012775D01*
X041566Y012851D02*
X041106Y012851D01*
X041106Y012775D02*
X041106Y012928D01*
X041336Y013082D02*
X041336Y013389D01*
X041336Y012621D02*
X041413Y012545D01*
X041413Y012314D01*
X041566Y012314D02*
X041106Y012314D01*
X041106Y012545D01*
X041183Y012621D01*
X041336Y012621D01*
X041413Y012468D02*
X041566Y012621D01*
X041566Y012161D02*
X041259Y012161D01*
X041106Y012007D01*
X041259Y011854D01*
X041566Y011854D01*
X041413Y011700D02*
X041106Y011700D01*
X041336Y011854D02*
X041336Y012161D01*
X041413Y011700D02*
X041566Y011547D01*
X041413Y011394D01*
X041106Y011394D01*
X041106Y011087D02*
X041566Y011087D01*
X041566Y011240D02*
X041566Y010933D01*
X041566Y010780D02*
X041566Y010473D01*
X041566Y010626D02*
X041106Y010626D01*
X041259Y010473D01*
X041106Y010319D02*
X041106Y010166D01*
X041106Y010243D02*
X041490Y010243D01*
X041566Y010166D01*
X041566Y010089D01*
X041490Y010012D01*
X041566Y009859D02*
X041413Y009705D01*
X041413Y009782D02*
X041413Y009552D01*
X041566Y009552D02*
X041106Y009552D01*
X041106Y009782D01*
X041183Y009859D01*
X041336Y009859D01*
X041413Y009782D01*
X041566Y009398D02*
X041106Y009092D01*
X041106Y008938D02*
X041106Y008631D01*
X041566Y008631D01*
X041566Y008938D01*
X041566Y009092D02*
X041106Y009398D01*
X041336Y008785D02*
X041336Y008631D01*
X041566Y008478D02*
X041566Y008171D01*
X041106Y008171D01*
X041183Y008017D02*
X041106Y007941D01*
X041106Y007787D01*
X041183Y007710D01*
X041490Y007710D01*
X041566Y007787D01*
X041566Y007941D01*
X041490Y008017D01*
X041183Y008017D01*
X041106Y007557D02*
X041566Y007557D01*
X041566Y007250D02*
X041106Y007250D01*
X041259Y007403D01*
X041106Y007557D01*
X037423Y004510D02*
X037423Y004050D01*
X037576Y004050D02*
X037269Y004050D01*
X036962Y004050D02*
X036962Y004510D01*
X036809Y004510D02*
X037116Y004510D01*
X037269Y004357D02*
X037423Y004510D01*
X036655Y004510D02*
X036655Y004050D01*
X036348Y004510D01*
X036348Y004050D01*
X036195Y004050D02*
X036195Y004357D01*
X036041Y004510D01*
X035888Y004357D01*
X035888Y004050D01*
X035734Y004050D02*
X035581Y004050D01*
X035658Y004050D02*
X035658Y004510D01*
X035734Y004510D02*
X035581Y004510D01*
X035428Y004434D02*
X035428Y004280D01*
X035351Y004203D01*
X035121Y004203D01*
X035121Y004050D02*
X035121Y004510D01*
X035351Y004510D01*
X035428Y004434D01*
X035274Y004203D02*
X035428Y004050D01*
X034967Y004050D02*
X034967Y004357D01*
X034814Y004510D01*
X034660Y004357D01*
X034660Y004050D01*
X034507Y004203D02*
X034353Y004050D01*
X034200Y004203D01*
X034200Y004510D01*
X034507Y004510D02*
X034507Y004203D01*
X034660Y004280D02*
X034967Y004280D01*
X035888Y004280D02*
X036195Y004280D01*
X034046Y004050D02*
X033739Y004050D01*
X033586Y004050D02*
X033279Y004050D01*
X033433Y004050D02*
X033433Y004510D01*
X033279Y004357D01*
X033126Y004510D02*
X032972Y004510D01*
X033049Y004510D02*
X033049Y004127D01*
X032972Y004050D01*
X032895Y004050D01*
X032819Y004127D01*
X032665Y004050D02*
X032512Y004203D01*
X032588Y004203D02*
X032358Y004203D01*
X032358Y004050D02*
X032358Y004510D01*
X032588Y004510D01*
X032665Y004434D01*
X032665Y004280D01*
X032588Y004203D01*
X032205Y004050D02*
X031898Y004510D01*
X031744Y004510D02*
X031437Y004510D01*
X031437Y004050D01*
X031744Y004050D01*
X031898Y004050D02*
X032205Y004510D01*
X031591Y004280D02*
X031437Y004280D01*
X031284Y004050D02*
X030977Y004050D01*
X030977Y004510D01*
X030824Y004434D02*
X030824Y004127D01*
X030747Y004050D01*
X030593Y004050D01*
X030517Y004127D01*
X030517Y004434D01*
X030593Y004510D01*
X030747Y004510D01*
X030824Y004434D01*
X030363Y004510D02*
X030363Y004050D01*
X030176Y003950D02*
X029869Y003950D01*
X030023Y003950D02*
X030023Y004410D01*
X029869Y004257D01*
X029716Y004410D02*
X029409Y004410D01*
X029562Y004410D02*
X029562Y003950D01*
X029255Y003950D02*
X029255Y004410D01*
X028948Y004410D02*
X028948Y003950D01*
X028795Y003950D02*
X028795Y004257D01*
X028641Y004410D01*
X028488Y004257D01*
X028488Y003950D01*
X028334Y003950D02*
X028181Y003950D01*
X028258Y003950D02*
X028258Y004410D01*
X028334Y004410D02*
X028181Y004410D01*
X028028Y004334D02*
X028028Y004180D01*
X027951Y004103D01*
X027721Y004103D01*
X027721Y003950D02*
X027721Y004410D01*
X027951Y004410D01*
X028028Y004334D01*
X027874Y004103D02*
X028028Y003950D01*
X027567Y003950D02*
X027567Y004257D01*
X027414Y004410D01*
X027260Y004257D01*
X027260Y003950D01*
X027107Y004103D02*
X027107Y004410D01*
X027260Y004180D02*
X027567Y004180D01*
X027107Y004103D02*
X026953Y003950D01*
X026800Y004103D01*
X026800Y004410D01*
X026493Y004410D02*
X026493Y003950D01*
X026646Y003950D02*
X026339Y003950D01*
X026186Y003950D02*
X025879Y003950D01*
X026033Y003950D02*
X026033Y004410D01*
X025879Y004257D01*
X025726Y004410D02*
X025572Y004410D01*
X025649Y004410D02*
X025649Y004027D01*
X025572Y003950D01*
X025495Y003950D01*
X025419Y004027D01*
X025265Y003950D02*
X025112Y004103D01*
X025188Y004103D02*
X024958Y004103D01*
X024958Y003950D02*
X024958Y004410D01*
X025188Y004410D01*
X025265Y004334D01*
X025265Y004180D01*
X025188Y004103D01*
X024805Y003950D02*
X024498Y004410D01*
X024344Y004410D02*
X024037Y004410D01*
X024037Y003950D01*
X024344Y003950D01*
X024498Y003950D02*
X024805Y004410D01*
X024191Y004180D02*
X024037Y004180D01*
X023884Y003950D02*
X023577Y003950D01*
X023577Y004410D01*
X023424Y004334D02*
X023347Y004410D01*
X023193Y004410D01*
X023117Y004334D01*
X023117Y004027D01*
X023193Y003950D01*
X023347Y003950D01*
X023424Y004027D01*
X023424Y004334D01*
X022963Y004410D02*
X022963Y003950D01*
X022656Y003950D02*
X022656Y004410D01*
X022810Y004257D01*
X022963Y004410D01*
X022223Y004410D02*
X022223Y003950D01*
X022376Y003950D02*
X022069Y003950D01*
X021762Y003950D02*
X021762Y004410D01*
X021609Y004410D02*
X021916Y004410D01*
X022069Y004257D02*
X022223Y004410D01*
X021455Y004410D02*
X021455Y003950D01*
X021148Y004410D01*
X021148Y003950D01*
X020995Y003950D02*
X020995Y004257D01*
X020841Y004410D01*
X020688Y004257D01*
X020688Y003950D01*
X020534Y003950D02*
X020381Y003950D01*
X020458Y003950D02*
X020458Y004410D01*
X020534Y004410D02*
X020381Y004410D01*
X020228Y004334D02*
X020228Y004180D01*
X020151Y004103D01*
X019921Y004103D01*
X019921Y003950D02*
X019921Y004410D01*
X020151Y004410D01*
X020228Y004334D01*
X020074Y004103D02*
X020228Y003950D01*
X019767Y003950D02*
X019767Y004257D01*
X019614Y004410D01*
X019460Y004257D01*
X019460Y003950D01*
X019307Y004103D02*
X019307Y004410D01*
X019460Y004180D02*
X019767Y004180D01*
X019307Y004103D02*
X019153Y003950D01*
X019000Y004103D01*
X019000Y004410D01*
X018693Y004410D02*
X018693Y003950D01*
X018846Y003950D02*
X018539Y003950D01*
X018386Y003950D02*
X018079Y003950D01*
X018233Y003950D02*
X018233Y004410D01*
X018079Y004257D01*
X017926Y004410D02*
X017772Y004410D01*
X017849Y004410D02*
X017849Y004027D01*
X017772Y003950D01*
X017695Y003950D01*
X017619Y004027D01*
X017465Y003950D02*
X017312Y004103D01*
X017388Y004103D02*
X017158Y004103D01*
X017158Y003950D02*
X017158Y004410D01*
X017388Y004410D01*
X017465Y004334D01*
X017465Y004180D01*
X017388Y004103D01*
X017005Y003950D02*
X016698Y004410D01*
X016544Y004410D02*
X016237Y004410D01*
X016237Y003950D01*
X016544Y003950D01*
X016698Y003950D02*
X017005Y004410D01*
X016391Y004180D02*
X016237Y004180D01*
X016084Y003950D02*
X015777Y003950D01*
X015777Y004410D01*
X015624Y004334D02*
X015624Y004027D01*
X015547Y003950D01*
X015393Y003950D01*
X015317Y004027D01*
X015317Y004334D01*
X015393Y004410D01*
X015547Y004410D01*
X015624Y004334D01*
X015163Y004410D02*
X015163Y003950D01*
X014856Y003950D02*
X014856Y004410D01*
X015010Y004257D01*
X015163Y004410D01*
X014526Y004950D02*
X014219Y004950D01*
X014373Y004950D02*
X014373Y005410D01*
X014219Y005257D01*
X014066Y005410D02*
X013759Y005410D01*
X013912Y005410D02*
X013912Y004950D01*
X013605Y004950D02*
X013605Y005410D01*
X013298Y005410D02*
X013298Y004950D01*
X013145Y004950D02*
X013145Y005257D01*
X012991Y005410D01*
X012838Y005257D01*
X012838Y004950D01*
X012684Y004950D02*
X012531Y004950D01*
X012608Y004950D02*
X012608Y005410D01*
X012684Y005410D02*
X012531Y005410D01*
X012378Y005334D02*
X012378Y005180D01*
X012301Y005103D01*
X012071Y005103D01*
X012071Y004950D02*
X012071Y005410D01*
X012301Y005410D01*
X012378Y005334D01*
X012224Y005103D02*
X012378Y004950D01*
X011917Y004950D02*
X011917Y005257D01*
X011764Y005410D01*
X011610Y005257D01*
X011610Y004950D01*
X011457Y005103D02*
X011457Y005410D01*
X011610Y005180D02*
X011917Y005180D01*
X011457Y005103D02*
X011303Y004950D01*
X011150Y005103D01*
X011150Y005410D01*
X010843Y005410D02*
X010843Y004950D01*
X010996Y004950D02*
X010689Y004950D01*
X010536Y004950D02*
X010229Y004950D01*
X010383Y004950D02*
X010383Y005410D01*
X010229Y005257D01*
X010076Y005410D02*
X009922Y005410D01*
X009999Y005410D02*
X009999Y005027D01*
X009922Y004950D01*
X009845Y004950D01*
X009769Y005027D01*
X009615Y004950D02*
X009462Y005103D01*
X009538Y005103D02*
X009308Y005103D01*
X009308Y004950D02*
X009308Y005410D01*
X009538Y005410D01*
X009615Y005334D01*
X009615Y005180D01*
X009538Y005103D01*
X009155Y004950D02*
X008848Y005410D01*
X008694Y005410D02*
X008387Y005410D01*
X008387Y004950D01*
X008694Y004950D01*
X008848Y004950D02*
X009155Y005410D01*
X008541Y005180D02*
X008387Y005180D01*
X008234Y004950D02*
X007927Y004950D01*
X007927Y005410D01*
X007774Y005334D02*
X007697Y005410D01*
X007543Y005410D01*
X007467Y005334D01*
X007467Y005027D01*
X007543Y004950D01*
X007697Y004950D01*
X007774Y005027D01*
X007774Y005334D01*
X007313Y005410D02*
X007313Y004950D01*
X007006Y004950D02*
X007006Y005410D01*
X007160Y005257D01*
X007313Y005410D01*
X010689Y005257D02*
X010843Y005410D01*
X012838Y005180D02*
X013145Y005180D01*
X013298Y005410D02*
X013605Y004950D01*
X018539Y004257D02*
X018693Y004410D01*
X020688Y004180D02*
X020995Y004180D01*
X026339Y004257D02*
X026493Y004410D01*
X028488Y004180D02*
X028795Y004180D01*
X028948Y004410D02*
X029255Y003950D01*
X030056Y004050D02*
X030056Y004510D01*
X030210Y004357D01*
X030363Y004510D01*
X033739Y004357D02*
X033893Y004510D01*
X033893Y004050D01*
X034606Y007250D02*
X034990Y007250D01*
X035066Y007327D01*
X035066Y007480D01*
X034990Y007557D01*
X034606Y007557D01*
X034683Y007710D02*
X034606Y007787D01*
X034606Y007941D01*
X034683Y008017D01*
X034836Y007941D02*
X034836Y007787D01*
X034759Y007710D01*
X034683Y007710D01*
X034529Y007864D02*
X035143Y007864D01*
X035066Y007941D02*
X034990Y008017D01*
X034913Y008017D01*
X034836Y007941D01*
X035066Y007941D02*
X035066Y007787D01*
X034990Y007710D01*
X035066Y008171D02*
X035066Y008478D01*
X035066Y008324D02*
X034606Y008324D01*
X034759Y008171D01*
X034683Y008631D02*
X034606Y008708D01*
X034606Y008861D01*
X034683Y008938D01*
X034990Y008631D01*
X035066Y008708D01*
X035066Y008861D01*
X034990Y008938D01*
X034683Y008938D01*
X034683Y008631D02*
X034990Y008631D01*
X031284Y010627D02*
X031284Y010703D01*
X031207Y010780D01*
X030977Y010780D01*
X030977Y010627D01*
X031054Y010550D01*
X031207Y010550D01*
X031284Y010627D01*
X031131Y010934D02*
X030977Y010780D01*
X030824Y010703D02*
X030824Y010627D01*
X030747Y010550D01*
X030593Y010550D01*
X030517Y010627D01*
X030363Y010627D02*
X030363Y011010D01*
X030517Y010934D02*
X030593Y011010D01*
X030747Y011010D01*
X030824Y010934D01*
X030747Y010780D02*
X030593Y010780D01*
X030517Y010857D01*
X030517Y010934D01*
X030670Y011087D02*
X030670Y010473D01*
X030824Y010703D02*
X030747Y010780D01*
X031131Y010934D02*
X031284Y011010D01*
X030363Y010627D02*
X030286Y010550D01*
X030133Y010550D01*
X030056Y010627D01*
X030056Y011010D01*
X025566Y013204D02*
X025106Y013204D01*
X025259Y013358D01*
X025106Y013511D01*
X025566Y013511D01*
X025566Y013665D02*
X025490Y013665D01*
X025183Y013972D01*
X025106Y013972D01*
X025106Y013665D01*
X025336Y014125D02*
X025106Y014355D01*
X025566Y014355D01*
X025566Y014586D02*
X025106Y014586D01*
X025336Y014586D02*
X025336Y014893D01*
X025183Y015046D02*
X025490Y015046D01*
X025566Y015123D01*
X025566Y015276D01*
X025490Y015353D01*
X025566Y015506D02*
X025566Y015813D01*
X025566Y015660D02*
X025106Y015660D01*
X025259Y015506D01*
X025183Y015353D02*
X025106Y015276D01*
X025106Y015123D01*
X025183Y015046D01*
X025106Y014893D02*
X025566Y014893D01*
X025336Y014432D02*
X025336Y014125D01*
X025336Y015967D02*
X025336Y016274D01*
X025183Y016427D02*
X025336Y016581D01*
X025566Y016581D01*
X025336Y016581D02*
X025183Y016734D01*
X025106Y016734D01*
X025106Y016888D02*
X025106Y017118D01*
X025183Y017195D01*
X025336Y017195D01*
X025413Y017118D01*
X025413Y016888D01*
X025413Y017041D02*
X025566Y017195D01*
X025566Y017348D02*
X025106Y017348D01*
X025259Y017501D01*
X025106Y017655D01*
X025566Y017655D01*
X025566Y017808D02*
X025566Y018115D01*
X025566Y017962D02*
X025106Y017962D01*
X025259Y017808D01*
X025183Y018269D02*
X025106Y018346D01*
X025106Y018499D01*
X025183Y018576D01*
X025259Y018576D01*
X025336Y018499D01*
X025413Y018576D01*
X025490Y018576D01*
X025566Y018499D01*
X025566Y018346D01*
X025490Y018269D01*
X025336Y018422D02*
X025336Y018499D01*
X025106Y018729D02*
X025106Y019036D01*
X025106Y018883D02*
X025566Y018883D01*
X025566Y019190D02*
X025106Y019190D01*
X025106Y019420D01*
X025183Y019497D01*
X025336Y019497D01*
X025413Y019420D01*
X025413Y019190D01*
X025413Y019343D02*
X025566Y019497D01*
X025566Y016888D02*
X025106Y016888D01*
X025106Y016427D02*
X025183Y016427D01*
X025106Y016197D02*
X025336Y015967D01*
X025566Y016197D02*
X025106Y016197D01*
X029106Y017962D02*
X029106Y018115D01*
X029106Y018039D02*
X029566Y018039D01*
X029566Y018115D02*
X029566Y017962D01*
X029566Y018269D02*
X029106Y018269D01*
X029566Y018576D01*
X029106Y018576D01*
X029106Y018729D02*
X029413Y018729D01*
X029566Y018883D01*
X029413Y019036D01*
X029106Y019036D01*
X029183Y019190D02*
X029106Y019266D01*
X029106Y019420D01*
X029183Y019497D01*
X029259Y019497D01*
X029566Y019190D01*
X029566Y019497D01*
X037306Y022250D02*
X037690Y022250D01*
X037766Y022327D01*
X037766Y022480D01*
X037690Y022557D01*
X037306Y022557D01*
X037383Y022710D02*
X037306Y022787D01*
X037306Y022941D01*
X037383Y023017D01*
X037536Y022941D02*
X037536Y022787D01*
X037459Y022710D01*
X037383Y022710D01*
X037229Y022864D02*
X037843Y022864D01*
X037766Y022941D02*
X037690Y023017D01*
X037613Y023017D01*
X037536Y022941D01*
X037766Y022941D02*
X037766Y022787D01*
X037690Y022710D01*
X037766Y023171D02*
X037766Y023478D01*
X037766Y023631D02*
X037766Y023938D01*
X037766Y023785D02*
X037306Y023785D01*
X037459Y023631D01*
X037306Y023324D02*
X037766Y023324D01*
X037459Y023171D02*
X037306Y023324D01*
X043806Y022557D02*
X043959Y022403D01*
X043806Y022250D01*
X044266Y022250D01*
X044216Y021656D02*
X043756Y021656D01*
X043756Y018587D02*
X043909Y018433D01*
X041566Y014156D02*
X041106Y014156D01*
X037716Y014827D02*
X037716Y014980D01*
X037640Y015057D01*
X037256Y015057D01*
X037333Y015210D02*
X037256Y015287D01*
X037256Y015441D01*
X037333Y015517D01*
X037486Y015441D02*
X037486Y015287D01*
X037409Y015210D01*
X037333Y015210D01*
X037179Y015364D02*
X037793Y015364D01*
X037716Y015441D02*
X037640Y015517D01*
X037563Y015517D01*
X037486Y015441D01*
X037716Y015441D02*
X037716Y015287D01*
X037640Y015210D01*
X037716Y015671D02*
X037716Y015978D01*
X037716Y016131D02*
X037409Y016438D01*
X037333Y016438D01*
X037256Y016361D01*
X037256Y016208D01*
X037333Y016131D01*
X037256Y015824D02*
X037716Y015824D01*
X037716Y016131D02*
X037716Y016438D01*
X037256Y015824D02*
X037409Y015671D01*
X037716Y014827D02*
X037640Y014750D01*
X037256Y014750D01*
X041106Y011087D02*
X041259Y010933D01*
X023884Y010910D02*
X023577Y010910D01*
X023577Y010680D01*
X023731Y010757D01*
X023807Y010757D01*
X023884Y010680D01*
X023884Y010527D01*
X023807Y010450D01*
X023654Y010450D01*
X023577Y010527D01*
X023424Y010527D02*
X023424Y010603D01*
X023347Y010680D01*
X023193Y010680D01*
X023117Y010757D01*
X023117Y010834D01*
X023193Y010910D01*
X023347Y010910D01*
X023424Y010834D01*
X023270Y010987D02*
X023270Y010373D01*
X023193Y010450D02*
X023347Y010450D01*
X023424Y010527D01*
X023193Y010450D02*
X023117Y010527D01*
X022963Y010527D02*
X022963Y010910D01*
X022656Y010910D02*
X022656Y010527D01*
X022733Y010450D01*
X022886Y010450D01*
X022963Y010527D01*
X016566Y013850D02*
X016106Y013850D01*
X016259Y014003D01*
X016106Y014157D01*
X016566Y014157D01*
X016490Y014310D02*
X016566Y014387D01*
X016566Y014541D01*
X016490Y014617D01*
X016183Y014617D01*
X016106Y014541D01*
X016106Y014387D01*
X016183Y014310D01*
X016490Y014310D01*
X016566Y014771D02*
X016106Y014771D01*
X016566Y014771D02*
X016566Y015078D01*
X016566Y015231D02*
X016106Y015231D01*
X016106Y015538D01*
X016106Y015692D02*
X016566Y015998D01*
X016566Y016152D02*
X016106Y016152D01*
X016106Y016382D01*
X016183Y016459D01*
X016336Y016459D01*
X016413Y016382D01*
X016413Y016152D01*
X016413Y016305D02*
X016566Y016459D01*
X016490Y016612D02*
X016566Y016689D01*
X016566Y016766D01*
X016490Y016843D01*
X016106Y016843D01*
X016106Y016919D02*
X016106Y016766D01*
X016259Y017073D02*
X016106Y017226D01*
X016566Y017226D01*
X016566Y017073D02*
X016566Y017380D01*
X016566Y017533D02*
X016566Y017840D01*
X016566Y017687D02*
X016106Y017687D01*
X016259Y017533D01*
X016106Y017994D02*
X016413Y017994D01*
X016566Y018147D01*
X016413Y018300D01*
X016106Y018300D01*
X016259Y018454D02*
X016106Y018607D01*
X016259Y018761D01*
X016566Y018761D01*
X016566Y018914D02*
X016106Y018914D01*
X016106Y019145D01*
X016183Y019221D01*
X016336Y019221D01*
X016413Y019145D01*
X016413Y018914D01*
X016413Y019068D02*
X016566Y019221D01*
X016566Y019375D02*
X016566Y019528D01*
X016566Y019451D02*
X016106Y019451D01*
X016106Y019375D02*
X016106Y019528D01*
X016259Y019682D02*
X016106Y019835D01*
X016259Y019989D01*
X016566Y019989D01*
X016566Y020142D02*
X016106Y020142D01*
X016566Y020449D01*
X016106Y020449D01*
X016106Y020602D02*
X016106Y020909D01*
X016106Y020756D02*
X016566Y020756D01*
X016566Y021063D02*
X016566Y021370D01*
X016566Y021400D02*
X016106Y021400D01*
X016259Y021553D01*
X016106Y021707D01*
X016566Y021707D01*
X016490Y021860D02*
X016566Y021937D01*
X016566Y022091D01*
X016490Y022167D01*
X016183Y022167D01*
X016106Y022091D01*
X016106Y021937D01*
X016183Y021860D01*
X016490Y021860D01*
X016566Y022321D02*
X016106Y022321D01*
X016106Y022781D02*
X016566Y022781D01*
X016566Y023088D01*
X016566Y023242D02*
X016106Y023548D01*
X016106Y023702D02*
X016106Y023932D01*
X016183Y024009D01*
X016336Y024009D01*
X016413Y023932D01*
X016413Y023702D01*
X016566Y023702D02*
X016106Y023702D01*
X016413Y023855D02*
X016566Y024009D01*
X016490Y024162D02*
X016566Y024239D01*
X016566Y024316D01*
X016490Y024393D01*
X016106Y024393D01*
X016106Y024469D02*
X016106Y024316D01*
X016259Y024623D02*
X016106Y024776D01*
X016566Y024776D01*
X016566Y024623D02*
X016566Y024930D01*
X016566Y025083D02*
X016566Y025390D01*
X016566Y025237D02*
X016106Y025237D01*
X016259Y025083D01*
X016106Y025544D02*
X016413Y025544D01*
X016566Y025697D01*
X016413Y025850D01*
X016106Y025850D01*
X016259Y026004D02*
X016106Y026157D01*
X016259Y026311D01*
X016566Y026311D01*
X016566Y026464D02*
X016106Y026464D01*
X016106Y026695D01*
X016183Y026771D01*
X016336Y026771D01*
X016413Y026695D01*
X016413Y026464D01*
X016413Y026618D02*
X016566Y026771D01*
X016566Y026925D02*
X016566Y027078D01*
X016566Y027001D02*
X016106Y027001D01*
X016106Y026925D02*
X016106Y027078D01*
X016259Y027232D02*
X016106Y027385D01*
X016259Y027539D01*
X016566Y027539D01*
X016566Y027692D02*
X016106Y027692D01*
X016566Y027999D01*
X016106Y027999D01*
X016106Y028152D02*
X016106Y028459D01*
X016106Y028306D02*
X016566Y028306D01*
X016566Y028613D02*
X016566Y028920D01*
X016566Y028766D02*
X016106Y028766D01*
X016259Y028613D01*
X016336Y027539D02*
X016336Y027232D01*
X016259Y027232D02*
X016566Y027232D01*
X016336Y026311D02*
X016336Y026004D01*
X016259Y026004D02*
X016566Y026004D01*
X016566Y023548D02*
X016106Y023242D01*
X016106Y023088D02*
X016106Y022781D01*
X016336Y022781D02*
X016336Y022935D01*
X016566Y022628D02*
X016566Y022321D01*
X016566Y021216D02*
X016106Y021216D01*
X016259Y021063D01*
X016336Y019989D02*
X016336Y019682D01*
X016259Y019682D02*
X016566Y019682D01*
X016336Y018761D02*
X016336Y018454D01*
X016259Y018454D02*
X016566Y018454D01*
X016106Y015998D02*
X016566Y015692D01*
X016566Y015538D02*
X016566Y015231D01*
X016336Y015231D02*
X016336Y015385D01*
X015470Y010987D02*
X015470Y010373D01*
X015393Y010450D02*
X015547Y010450D01*
X015624Y010527D01*
X015624Y010603D01*
X015547Y010680D01*
X015393Y010680D01*
X015317Y010757D01*
X015317Y010834D01*
X015393Y010910D01*
X015547Y010910D01*
X015624Y010834D01*
X015777Y010680D02*
X016084Y010680D01*
X016007Y010450D02*
X016007Y010910D01*
X015777Y010680D01*
X015393Y010450D02*
X015317Y010527D01*
X015163Y010527D02*
X015163Y010910D01*
X014856Y010910D02*
X014856Y010527D01*
X014933Y010450D01*
X015086Y010450D01*
X015163Y010527D01*
X010066Y013927D02*
X010066Y014080D01*
X009990Y014157D01*
X009606Y014157D01*
X009683Y014310D02*
X009606Y014387D01*
X009606Y014541D01*
X009683Y014617D01*
X009836Y014541D02*
X009836Y014387D01*
X009759Y014310D01*
X009683Y014310D01*
X009529Y014464D02*
X010143Y014464D01*
X010066Y014541D02*
X009990Y014617D01*
X009913Y014617D01*
X009836Y014541D01*
X010066Y014541D02*
X010066Y014387D01*
X009990Y014310D01*
X010066Y013927D02*
X009990Y013850D01*
X009606Y013850D01*
X009759Y014771D02*
X009606Y014924D01*
X010066Y014924D01*
X010066Y014771D02*
X010066Y015078D01*
X009836Y015231D02*
X009836Y015538D01*
X009866Y015499D02*
X009790Y015576D01*
X009406Y015576D01*
X009483Y015729D02*
X009406Y015806D01*
X009406Y015959D01*
X009483Y016036D01*
X009636Y015959D02*
X009636Y015806D01*
X009559Y015729D01*
X009483Y015729D01*
X009329Y015883D02*
X009943Y015883D01*
X009866Y015959D02*
X009790Y016036D01*
X009713Y016036D01*
X009636Y015959D01*
X009866Y015959D02*
X009866Y015806D01*
X009790Y015729D01*
X009866Y015499D02*
X009866Y015346D01*
X009790Y015269D01*
X009406Y015269D01*
X009606Y015461D02*
X009836Y015231D01*
X010066Y015461D02*
X009606Y015461D01*
X009559Y016190D02*
X009406Y016343D01*
X009866Y016343D01*
X009866Y016190D02*
X009866Y016497D01*
X008157Y011910D02*
X008004Y011910D01*
X007927Y011834D01*
X007774Y011834D02*
X007697Y011910D01*
X007543Y011910D01*
X007467Y011834D01*
X007467Y011757D01*
X007543Y011680D01*
X007697Y011680D01*
X007774Y011603D01*
X007774Y011527D01*
X007697Y011450D01*
X007543Y011450D01*
X007467Y011527D01*
X007313Y011527D02*
X007313Y011910D01*
X007006Y011910D02*
X007006Y011527D01*
X007083Y011450D01*
X007236Y011450D01*
X007313Y011527D01*
X007620Y011373D02*
X007620Y011987D01*
X008157Y011910D02*
X008234Y011834D01*
X008234Y011757D01*
X007927Y011450D01*
X008234Y011450D01*
X003366Y011586D02*
X003213Y011432D01*
X003213Y011509D02*
X003213Y011279D01*
X003366Y011279D02*
X002906Y011279D01*
X002906Y011509D01*
X002983Y011586D01*
X003136Y011586D01*
X003213Y011509D01*
X003290Y011739D02*
X003366Y011816D01*
X003366Y011893D01*
X003290Y011969D01*
X002906Y011969D01*
X002906Y011893D02*
X002906Y012046D01*
X003059Y012200D02*
X002906Y012353D01*
X003366Y012353D01*
X003366Y012200D02*
X003366Y012506D01*
X003366Y012660D02*
X003366Y012967D01*
X003366Y012813D02*
X002906Y012813D01*
X003059Y012660D01*
X002906Y013120D02*
X003213Y013120D01*
X003366Y013274D01*
X003213Y013427D01*
X002906Y013427D01*
X003059Y013581D02*
X002906Y013734D01*
X003059Y013888D01*
X003366Y013888D01*
X003366Y014041D02*
X002906Y014041D01*
X002906Y014271D01*
X002983Y014348D01*
X003136Y014348D01*
X003213Y014271D01*
X003213Y014041D01*
X003213Y014195D02*
X003366Y014348D01*
X003366Y014501D02*
X003366Y014655D01*
X003366Y014578D02*
X002906Y014578D01*
X002906Y014501D02*
X002906Y014655D01*
X003059Y014808D02*
X002906Y014962D01*
X003059Y015115D01*
X003366Y015115D01*
X003366Y015269D02*
X002906Y015269D01*
X003366Y015576D01*
X002906Y015576D01*
X002906Y015729D02*
X002906Y016036D01*
X002906Y015883D02*
X003366Y015883D01*
X003366Y016190D02*
X003366Y016497D01*
X003366Y016343D02*
X002906Y016343D01*
X003059Y016190D01*
X003156Y016627D02*
X003309Y016780D01*
X003156Y016934D01*
X003616Y016934D01*
X003540Y017087D02*
X003616Y017164D01*
X003616Y017317D01*
X003540Y017394D01*
X003233Y017394D01*
X003156Y017317D01*
X003156Y017164D01*
X003233Y017087D01*
X003540Y017087D01*
X003616Y016627D02*
X003156Y016627D01*
X003156Y017548D02*
X003616Y017548D01*
X003616Y017854D01*
X003616Y018008D02*
X003156Y018008D01*
X003156Y018315D01*
X003156Y018468D02*
X003616Y018775D01*
X003616Y018929D02*
X003156Y018929D01*
X003156Y019159D01*
X003233Y019236D01*
X003386Y019236D01*
X003463Y019159D01*
X003463Y018929D01*
X003463Y019082D02*
X003616Y019236D01*
X003540Y019389D02*
X003616Y019466D01*
X003616Y019543D01*
X003540Y019619D01*
X003156Y019619D01*
X003156Y019543D02*
X003156Y019696D01*
X003309Y019850D02*
X003156Y020003D01*
X003616Y020003D01*
X003616Y019850D02*
X003616Y020156D01*
X003616Y020310D02*
X003616Y020617D01*
X003616Y020463D02*
X003156Y020463D01*
X003309Y020310D01*
X003156Y020770D02*
X003463Y020770D01*
X003616Y020924D01*
X003463Y021077D01*
X003156Y021077D01*
X003309Y021231D02*
X003156Y021384D01*
X003309Y021538D01*
X003616Y021538D01*
X003616Y021691D02*
X003156Y021691D01*
X003156Y021921D01*
X003233Y021998D01*
X003386Y021998D01*
X003463Y021921D01*
X003463Y021691D01*
X003463Y021845D02*
X003616Y021998D01*
X003616Y022151D02*
X003616Y022305D01*
X003616Y022228D02*
X003156Y022228D01*
X003156Y022151D02*
X003156Y022305D01*
X003309Y022458D02*
X003156Y022612D01*
X003309Y022765D01*
X003616Y022765D01*
X003616Y022919D02*
X003156Y022919D01*
X003616Y023226D01*
X003156Y023226D01*
X003156Y023379D02*
X003156Y023686D01*
X003156Y023533D02*
X003616Y023533D01*
X003616Y023840D02*
X003616Y024147D01*
X003616Y023993D02*
X003156Y023993D01*
X003309Y023840D01*
X003386Y022765D02*
X003386Y022458D01*
X003309Y022458D02*
X003616Y022458D01*
X003386Y021538D02*
X003386Y021231D01*
X003309Y021231D02*
X003616Y021231D01*
X003156Y018775D02*
X003616Y018468D01*
X003616Y018315D02*
X003616Y018008D01*
X003386Y018008D02*
X003386Y018161D01*
X003136Y015115D02*
X003136Y014808D01*
X003059Y014808D02*
X003366Y014808D01*
X003136Y013888D02*
X003136Y013581D01*
X003059Y013581D02*
X003366Y013581D01*
X003366Y011125D02*
X002906Y010818D01*
X002906Y010665D02*
X002906Y010358D01*
X003366Y010358D01*
X003366Y010665D01*
X003366Y010818D02*
X002906Y011125D01*
X003136Y010511D02*
X003136Y010358D01*
X003366Y010204D02*
X003366Y009898D01*
X002906Y009898D01*
X002983Y009744D02*
X002906Y009667D01*
X002906Y009514D01*
X002983Y009437D01*
X003290Y009437D01*
X003366Y009514D01*
X003366Y009667D01*
X003290Y009744D01*
X002983Y009744D01*
X002906Y009284D02*
X003366Y009284D01*
X003366Y008977D02*
X002906Y008977D01*
X003059Y009130D01*
X002906Y009284D01*
X009606Y021400D02*
X009990Y021400D01*
X010066Y021477D01*
X010066Y021630D01*
X009990Y021707D01*
X009606Y021707D01*
X009683Y021860D02*
X009606Y021937D01*
X009606Y022091D01*
X009683Y022167D01*
X009836Y022091D02*
X009836Y021937D01*
X009759Y021860D01*
X009683Y021860D01*
X009529Y022014D02*
X010143Y022014D01*
X010066Y021937D02*
X010066Y022091D01*
X009990Y022167D01*
X009913Y022167D01*
X009836Y022091D01*
X009759Y022321D02*
X009606Y022474D01*
X010066Y022474D01*
X010040Y022458D02*
X010116Y022535D01*
X010116Y022689D01*
X010040Y022765D01*
X009656Y022765D01*
X009683Y022781D02*
X009606Y022858D01*
X009606Y023011D01*
X009683Y023088D01*
X009759Y023088D01*
X009836Y023011D01*
X009913Y023088D01*
X009990Y023088D01*
X010066Y023011D01*
X010066Y022858D01*
X009990Y022781D01*
X010040Y022919D02*
X010116Y022996D01*
X010116Y023149D01*
X010040Y023226D01*
X009963Y023226D01*
X009886Y023149D01*
X009886Y022996D01*
X009809Y022919D01*
X009733Y022919D01*
X009656Y022996D01*
X009656Y023149D01*
X009733Y023226D01*
X009809Y023379D02*
X009656Y023533D01*
X010116Y023533D01*
X010116Y023686D02*
X010116Y023379D01*
X010193Y023072D02*
X009579Y023072D01*
X009836Y023011D02*
X009836Y022935D01*
X010066Y022628D02*
X010066Y022321D01*
X010040Y022458D02*
X009656Y022458D01*
X010066Y021937D02*
X009990Y021860D01*
X010040Y023840D02*
X010116Y023916D01*
X010116Y024070D01*
X010040Y024147D01*
X009886Y024147D01*
X009809Y024070D01*
X009809Y023993D01*
X009886Y023840D01*
X009656Y023840D01*
X009656Y024147D01*
X043806Y026087D02*
X043959Y025933D01*
X043806Y029156D02*
X044266Y029156D01*
M02*
