G75*
%MOIN*%
%OFA0B0*%
%FSLAX24Y24*%
%IPPOS*%
%LPD*%
%AMOC8*
5,1,8,0,0,1.08239X$1,22.5*
%
%ADD10C,0.0680*%
%ADD11C,0.0050*%
%ADD12C,0.0060*%
%ADD13C,0.0040*%
%ADD14C,0.0030*%
%ADD15C,0.0621*%
%ADD16C,0.0660*%
%ADD17OC8,0.0670*%
%ADD18C,0.1340*%
%ADD19OC8,0.0729*%
%ADD20C,0.0330*%
D10*
X017436Y012030D02*
X017436Y021780D01*
X018436Y021780D02*
X018436Y012030D01*
D11*
X029111Y012073D02*
X029169Y012132D01*
X029403Y012132D01*
X029461Y012073D01*
X029461Y011957D01*
X029403Y011898D01*
X029169Y011898D01*
X029111Y011957D01*
X029111Y012073D01*
X029169Y011763D02*
X029403Y011763D01*
X029461Y011705D01*
X029461Y011588D01*
X029403Y011530D01*
X029286Y011530D01*
X029286Y011647D01*
X029169Y011763D02*
X029111Y011705D01*
X029111Y011588D01*
X029169Y011530D01*
X029461Y012267D02*
X029461Y012500D01*
X029111Y012500D01*
X029228Y012635D02*
X029461Y012635D01*
X029286Y012635D02*
X029286Y012868D01*
X029228Y012868D02*
X029111Y012752D01*
X029228Y012635D01*
X029228Y012868D02*
X029461Y012868D01*
X029461Y013003D02*
X029111Y013003D01*
X029111Y013237D02*
X029461Y013003D01*
X029461Y013237D02*
X029111Y013237D01*
X029228Y013371D02*
X029461Y013371D01*
X029286Y013371D02*
X029286Y013605D01*
X029228Y013605D02*
X029111Y013488D01*
X029228Y013371D01*
X029228Y013605D02*
X029461Y013605D01*
X027361Y029257D02*
X027361Y029491D01*
X027011Y029491D01*
X027128Y029625D02*
X027361Y029625D01*
X027186Y029625D02*
X027186Y029859D01*
X027128Y029859D02*
X027361Y029859D01*
X027128Y029859D02*
X027011Y029742D01*
X027128Y029625D01*
X027011Y029994D02*
X027011Y030227D01*
X027011Y030111D02*
X027361Y030111D01*
X027361Y030356D02*
X027361Y030473D01*
X027361Y030414D02*
X027011Y030414D01*
X027011Y030356D02*
X027011Y030473D01*
X027069Y030608D02*
X027011Y030666D01*
X027011Y030783D01*
X027069Y030841D01*
X027303Y030841D01*
X027361Y030783D01*
X027361Y030666D01*
X027303Y030608D01*
X027186Y030608D01*
X027186Y030724D01*
X027011Y030970D02*
X027011Y031087D01*
X027011Y031028D02*
X027361Y031028D01*
X027361Y030970D02*
X027361Y031087D01*
X027303Y031221D02*
X027069Y031221D01*
X027011Y031280D01*
X027011Y031455D01*
X027361Y031455D01*
X027361Y031280D01*
X027303Y031221D01*
D12*
X027766Y029350D02*
X027766Y029056D01*
X027839Y029056D01*
X028133Y029350D01*
X028206Y029350D01*
X028766Y029056D02*
X028839Y029203D01*
X028986Y029350D01*
X028986Y029130D01*
X029060Y029056D01*
X029133Y029056D01*
X029206Y029130D01*
X029206Y029277D01*
X029133Y029350D01*
X028986Y029350D01*
X029766Y029350D02*
X029766Y029056D01*
X029913Y029130D02*
X029986Y029056D01*
X030133Y029056D01*
X030206Y029130D01*
X030206Y029277D01*
X030133Y029350D01*
X029986Y029350D02*
X029913Y029203D01*
X029913Y029130D01*
X029986Y029350D02*
X029766Y029350D01*
X030766Y029130D02*
X030986Y029350D01*
X030986Y029056D01*
X031206Y029130D02*
X030766Y029130D01*
X031766Y029130D02*
X031839Y029056D01*
X031913Y029056D01*
X031986Y029130D01*
X032060Y029056D01*
X032133Y029056D01*
X032206Y029130D01*
X032206Y029277D01*
X032133Y029350D01*
X031986Y029203D02*
X031986Y029130D01*
X031766Y029130D02*
X031766Y029277D01*
X031839Y029350D01*
X032766Y029277D02*
X032766Y029130D01*
X032839Y029056D01*
X032913Y029056D01*
X033206Y029350D01*
X033206Y029056D01*
X032839Y029350D02*
X032766Y029277D01*
X033766Y029203D02*
X034206Y029203D01*
X034206Y029350D02*
X034206Y029056D01*
X033913Y029350D02*
X033766Y029203D01*
X034766Y029130D02*
X034839Y029056D01*
X035133Y029350D01*
X035206Y029277D01*
X035206Y029130D01*
X035133Y029056D01*
X034839Y029056D01*
X034766Y029130D02*
X034766Y029277D01*
X034839Y029350D01*
X035133Y029350D01*
X026656Y029277D02*
X026656Y029130D01*
X026583Y029056D01*
X026510Y029056D01*
X026436Y029130D01*
X026436Y029277D01*
X026363Y029350D01*
X026289Y029350D01*
X026216Y029277D01*
X026216Y029130D01*
X026289Y029056D01*
X026363Y029056D01*
X026436Y029130D01*
X026436Y029277D02*
X026510Y029350D01*
X026583Y029350D01*
X026656Y029277D01*
X025606Y029277D02*
X025606Y029130D01*
X025533Y029056D01*
X025239Y029056D01*
X025166Y029130D01*
X025166Y029277D01*
X025239Y029350D01*
X025313Y029350D01*
X025386Y029277D01*
X025386Y029056D01*
X025606Y029277D02*
X025533Y029350D01*
X024606Y029300D02*
X024606Y029006D01*
X024606Y029153D02*
X024166Y029153D01*
X024313Y029300D01*
X024239Y028840D02*
X024166Y028766D01*
X024166Y028619D01*
X024239Y028546D01*
X024533Y028840D01*
X024606Y028766D01*
X024606Y028619D01*
X024533Y028546D01*
X024239Y028546D01*
X024239Y028840D02*
X024533Y028840D01*
X023606Y028890D02*
X023606Y028596D01*
X023606Y028743D02*
X023166Y028743D01*
X023313Y028890D01*
X023606Y029056D02*
X023606Y029350D01*
X023606Y029203D02*
X023166Y029203D01*
X023313Y029350D01*
X022606Y029350D02*
X022606Y029056D01*
X022606Y029203D02*
X022166Y029203D01*
X022313Y029350D01*
X021606Y029350D02*
X021606Y029056D01*
X021606Y029203D02*
X021166Y029203D01*
X021313Y029350D01*
X021239Y028890D02*
X021166Y028816D01*
X021166Y028669D01*
X021239Y028596D01*
X021313Y028596D01*
X021386Y028669D01*
X021460Y028596D01*
X021533Y028596D01*
X021606Y028669D01*
X021606Y028816D01*
X021533Y028890D01*
X021386Y028743D02*
X021386Y028669D01*
X022166Y028669D02*
X022166Y028816D01*
X022239Y028890D01*
X022166Y028669D02*
X022239Y028596D01*
X022313Y028596D01*
X022606Y028890D01*
X022606Y028596D01*
D13*
X034523Y023230D02*
X034523Y022950D01*
X034616Y022950D02*
X034429Y022950D01*
X034616Y023137D02*
X034523Y023230D01*
X034570Y022180D02*
X034476Y022180D01*
X034429Y022134D01*
X034429Y022087D01*
X034476Y022040D01*
X034429Y021993D01*
X034429Y021947D01*
X034476Y021900D01*
X034570Y021900D01*
X034616Y021947D01*
X034523Y022040D02*
X034476Y022040D01*
X034616Y022134D02*
X034570Y022180D01*
X034616Y021180D02*
X034616Y021040D01*
X034523Y021087D01*
X034476Y021087D01*
X034429Y021040D01*
X034429Y020947D01*
X034476Y020900D01*
X034570Y020900D01*
X034616Y020947D01*
X034616Y021180D02*
X034429Y021180D01*
X036479Y021180D02*
X036573Y021134D01*
X036666Y021040D01*
X036526Y021040D01*
X036479Y020993D01*
X036479Y020947D01*
X036526Y020900D01*
X036620Y020900D01*
X036666Y020947D01*
X036666Y021040D01*
X036526Y021900D02*
X036526Y022180D01*
X036666Y022040D01*
X036479Y022040D01*
X036479Y022900D02*
X036666Y022900D01*
X036479Y023087D01*
X036479Y023134D01*
X036526Y023180D01*
X036620Y023180D01*
X036666Y023134D01*
X035066Y014180D02*
X035066Y014040D01*
X034973Y014087D01*
X034926Y014087D01*
X034879Y014040D01*
X034879Y013947D01*
X034926Y013900D01*
X035020Y013900D01*
X035066Y013947D01*
X035066Y014180D02*
X034879Y014180D01*
X034066Y014040D02*
X033879Y014040D01*
X033926Y013900D02*
X033926Y014180D01*
X034066Y014040D01*
X033066Y013947D02*
X033020Y013900D01*
X032926Y013900D01*
X032879Y013947D01*
X032879Y013993D01*
X032926Y014040D01*
X032973Y014040D01*
X032926Y014040D02*
X032879Y014087D01*
X032879Y014134D01*
X032926Y014180D01*
X033020Y014180D01*
X033066Y014134D01*
X032066Y014134D02*
X032020Y014180D01*
X031926Y014180D01*
X031879Y014134D01*
X031879Y014087D01*
X032066Y013900D01*
X031879Y013900D01*
X031066Y013900D02*
X030879Y013900D01*
X030973Y013900D02*
X030973Y014180D01*
X031066Y014087D01*
X030066Y014134D02*
X030066Y013947D01*
X029879Y014134D01*
X029879Y013947D01*
X029926Y013900D01*
X030020Y013900D01*
X030066Y013947D01*
X030066Y014134D02*
X030020Y014180D01*
X029926Y014180D01*
X029879Y014134D01*
D14*
X027621Y013645D02*
X027551Y013575D01*
X027411Y013575D01*
X027411Y013494D02*
X027411Y013424D01*
X027411Y013459D02*
X027621Y013459D01*
X027621Y013494D02*
X027621Y013424D01*
X027621Y013347D02*
X027411Y013347D01*
X027621Y013207D01*
X027411Y013207D01*
X027621Y013645D02*
X027551Y013715D01*
X027411Y013715D01*
X026621Y013730D02*
X026621Y013660D01*
X026586Y013625D01*
X026516Y013625D01*
X026516Y013695D01*
X026446Y013765D02*
X026586Y013765D01*
X026621Y013730D01*
X026446Y013765D02*
X026411Y013730D01*
X026411Y013660D01*
X026446Y013625D01*
X026411Y013544D02*
X026621Y013404D01*
X026411Y013404D01*
X026411Y013323D02*
X026411Y013218D01*
X026446Y013183D01*
X026586Y013183D01*
X026621Y013218D01*
X026621Y013323D01*
X026411Y013323D01*
X026411Y013544D02*
X026621Y013544D01*
X025621Y013544D02*
X025411Y013544D01*
X025621Y013404D01*
X025411Y013404D01*
X025411Y013323D02*
X025411Y013218D01*
X025446Y013183D01*
X025586Y013183D01*
X025621Y013218D01*
X025621Y013323D01*
X025411Y013323D01*
X025446Y013625D02*
X025411Y013660D01*
X025411Y013730D01*
X025446Y013765D01*
X025586Y013765D01*
X025621Y013730D01*
X025621Y013660D01*
X025586Y013625D01*
X025516Y013625D01*
X025516Y013695D01*
X024621Y013660D02*
X024621Y013730D01*
X024586Y013765D01*
X024516Y013765D02*
X024481Y013695D01*
X024481Y013660D01*
X024516Y013625D01*
X024586Y013625D01*
X024621Y013660D01*
X024551Y013544D02*
X024621Y013474D01*
X024551Y013404D01*
X024411Y013404D01*
X024411Y013544D02*
X024551Y013544D01*
X024411Y013625D02*
X024411Y013765D01*
X024516Y013765D01*
X023621Y013730D02*
X023621Y013660D01*
X023586Y013625D01*
X023551Y013625D01*
X023516Y013660D01*
X023516Y013695D01*
X023516Y013660D02*
X023481Y013625D01*
X023446Y013625D01*
X023411Y013660D01*
X023411Y013730D01*
X023446Y013765D01*
X023586Y013765D02*
X023621Y013730D01*
X023621Y013544D02*
X023621Y013509D01*
X023586Y013509D01*
X023586Y013544D01*
X023621Y013544D01*
X023586Y013434D02*
X023621Y013398D01*
X023621Y013328D01*
X023586Y013293D01*
X023551Y013293D01*
X023516Y013328D01*
X023516Y013363D01*
X023516Y013328D02*
X023481Y013293D01*
X023446Y013293D01*
X023411Y013328D01*
X023411Y013398D01*
X023446Y013434D01*
X023411Y013213D02*
X023551Y013213D01*
X023621Y013142D01*
X023551Y013072D01*
X023411Y013072D01*
X022621Y013253D02*
X022411Y013253D01*
X022411Y013323D02*
X022411Y013183D01*
X022446Y013404D02*
X022411Y013439D01*
X022411Y013509D01*
X022446Y013544D01*
X022481Y013544D01*
X022516Y013509D01*
X022516Y013439D01*
X022551Y013404D01*
X022586Y013404D01*
X022621Y013439D01*
X022621Y013509D01*
X022586Y013544D01*
X022621Y013625D02*
X022551Y013695D01*
X022551Y013660D02*
X022551Y013765D01*
X022621Y013765D02*
X022411Y013765D01*
X022411Y013660D01*
X022446Y013625D01*
X022516Y013625D01*
X022551Y013660D01*
X021621Y013695D02*
X021621Y013765D01*
X021621Y013730D02*
X021411Y013730D01*
X021411Y013765D02*
X021411Y013695D01*
X021446Y013618D02*
X021411Y013583D01*
X021411Y013513D01*
X021446Y013478D01*
X021586Y013478D01*
X021621Y013513D01*
X021621Y013583D01*
X021586Y013618D01*
X021446Y013618D01*
X021411Y013397D02*
X021621Y013397D01*
X021551Y013397D02*
X021551Y013292D01*
X021516Y013257D01*
X021446Y013257D01*
X021411Y013292D01*
X021411Y013397D01*
X021551Y013327D02*
X021621Y013257D01*
X021621Y013176D02*
X021621Y013036D01*
X021621Y012955D02*
X021411Y012955D01*
X021411Y012815D01*
X021516Y012885D02*
X021516Y012955D01*
X021411Y013036D02*
X021411Y013176D01*
X021621Y013176D01*
X021516Y013176D02*
X021516Y013106D01*
X019986Y030283D02*
X019846Y030283D01*
X019811Y030318D01*
X019811Y030423D01*
X020021Y030423D01*
X020021Y030318D01*
X019986Y030283D01*
X020021Y030504D02*
X019811Y030504D01*
X019811Y030644D02*
X020021Y030504D01*
X020021Y030644D02*
X019811Y030644D01*
X019846Y030725D02*
X019811Y030760D01*
X019811Y030830D01*
X019846Y030865D01*
X019986Y030865D01*
X020021Y030830D01*
X020021Y030760D01*
X019986Y030725D01*
X019916Y030725D01*
X019916Y030795D01*
X019021Y030825D02*
X018881Y030825D01*
X018811Y030895D01*
X018881Y030965D01*
X019021Y030965D01*
X018916Y030965D02*
X018916Y030825D01*
X018951Y030744D02*
X018951Y030639D01*
X018916Y030604D01*
X018846Y030604D01*
X018811Y030639D01*
X018811Y030744D01*
X019021Y030744D01*
X018951Y030674D02*
X019021Y030604D01*
X019021Y030523D02*
X019021Y030383D01*
X019021Y030302D02*
X018811Y030302D01*
X018811Y030162D01*
X018916Y030232D02*
X018916Y030302D01*
X018811Y030383D02*
X018811Y030523D01*
X019021Y030523D01*
X018916Y030523D02*
X018916Y030453D01*
X018021Y030473D02*
X017881Y030473D01*
X017811Y030403D01*
X017881Y030333D01*
X018021Y030333D01*
X017916Y030333D02*
X017916Y030473D01*
X017846Y030554D02*
X017811Y030589D01*
X017811Y030694D01*
X018021Y030694D01*
X018021Y030589D01*
X017986Y030554D01*
X017846Y030554D01*
X017846Y030775D02*
X017811Y030810D01*
X017811Y030880D01*
X017846Y030915D01*
X017881Y030915D01*
X017916Y030880D01*
X017916Y030810D01*
X017951Y030775D01*
X017986Y030775D01*
X018021Y030810D01*
X018021Y030880D01*
X017986Y030915D01*
X016971Y030830D02*
X016971Y030760D01*
X016936Y030725D01*
X016901Y030725D01*
X016866Y030760D01*
X016866Y030830D01*
X016831Y030865D01*
X016796Y030865D01*
X016761Y030830D01*
X016761Y030760D01*
X016796Y030725D01*
X016796Y030644D02*
X016936Y030644D01*
X016971Y030609D01*
X016971Y030539D01*
X016936Y030504D01*
X016971Y030423D02*
X016971Y030283D01*
X016971Y030423D02*
X016761Y030423D01*
X016796Y030504D02*
X016761Y030539D01*
X016761Y030609D01*
X016796Y030644D01*
X016971Y030830D02*
X016936Y030865D01*
D15*
X017386Y030749D02*
X017386Y031311D01*
X018386Y031311D02*
X018386Y030749D01*
X018386Y030311D02*
X018386Y029749D01*
X017386Y029749D02*
X017386Y030311D01*
X019386Y030311D02*
X019386Y029749D01*
X020386Y029749D02*
X020386Y030311D01*
X020386Y030749D02*
X020386Y031311D01*
X019386Y031311D02*
X019386Y030749D01*
X021386Y030749D02*
X021386Y031311D01*
X022386Y031311D02*
X022386Y030749D01*
X022386Y030311D02*
X022386Y029749D01*
X023386Y029749D02*
X023386Y030311D01*
X023386Y030749D02*
X023386Y031311D01*
X024386Y031311D02*
X024386Y030749D01*
X024386Y030311D02*
X024386Y029749D01*
X025386Y029749D02*
X025386Y030311D01*
X025386Y030749D02*
X025386Y031311D01*
X026386Y031311D02*
X026386Y030749D01*
X026386Y030311D02*
X026386Y029749D01*
X027986Y029749D02*
X027986Y030311D01*
X027986Y030749D02*
X027986Y031311D01*
X028986Y031311D02*
X028986Y030749D01*
X028986Y030311D02*
X028986Y029749D01*
X029986Y029749D02*
X029986Y030311D01*
X029986Y030749D02*
X029986Y031311D01*
X030986Y031311D02*
X030986Y030749D01*
X030986Y030311D02*
X030986Y029749D01*
X031986Y029749D02*
X031986Y030311D01*
X031986Y030749D02*
X031986Y031311D01*
X032986Y031311D02*
X032986Y030749D01*
X032986Y030311D02*
X032986Y029749D01*
X033986Y029749D02*
X033986Y030311D01*
X033986Y030749D02*
X033986Y031311D01*
X034986Y031311D02*
X034986Y030749D01*
X034986Y030311D02*
X034986Y029749D01*
X021386Y029749D02*
X021386Y030311D01*
X020986Y013311D02*
X020986Y012749D01*
X020986Y012311D02*
X020986Y011749D01*
X021986Y011749D02*
X021986Y012311D01*
X021986Y012749D02*
X021986Y013311D01*
X022986Y013311D02*
X022986Y012749D01*
X022986Y012311D02*
X022986Y011749D01*
X023986Y011749D02*
X023986Y012311D01*
X023986Y012749D02*
X023986Y013311D01*
X024986Y013311D02*
X024986Y012749D01*
X024986Y012311D02*
X024986Y011749D01*
X025986Y011749D02*
X025986Y012311D01*
X025986Y012749D02*
X025986Y013311D01*
X026986Y013311D02*
X026986Y012749D01*
X026986Y012311D02*
X026986Y011749D01*
X027986Y011749D02*
X027986Y012311D01*
X027986Y012749D02*
X027986Y013311D01*
D16*
X029986Y013330D02*
X029986Y012730D01*
X029986Y012330D02*
X029986Y011730D01*
X030986Y011730D02*
X030986Y012330D01*
X030986Y012730D02*
X030986Y013330D01*
X031986Y013330D02*
X031986Y012730D01*
X031986Y012330D02*
X031986Y011730D01*
X032986Y011730D02*
X032986Y012330D01*
X032986Y012730D02*
X032986Y013330D01*
X033986Y013330D02*
X033986Y012730D01*
X033986Y012330D02*
X033986Y011730D01*
X034986Y011730D02*
X034986Y012330D01*
X034986Y012730D02*
X034986Y013330D01*
X010416Y029790D02*
X009816Y029790D01*
X007856Y029790D02*
X007256Y029790D01*
X007256Y031570D02*
X007856Y031570D01*
X009816Y031570D02*
X010416Y031570D01*
D17*
X035036Y023030D03*
X036036Y023030D03*
X036036Y022030D03*
X035036Y022030D03*
X035036Y021030D03*
X036036Y021030D03*
D18*
X005589Y006430D03*
X005589Y010430D03*
X011086Y012432D03*
X013439Y009430D03*
X015086Y012432D03*
X021239Y009430D03*
X021239Y005430D03*
X028639Y005530D03*
X028639Y009530D03*
X036086Y005832D03*
X040086Y005832D03*
X038736Y013332D03*
X042736Y013332D03*
X042786Y020832D03*
X038786Y020832D03*
X038836Y028782D03*
X042836Y028782D03*
X015086Y019982D03*
X011086Y019982D03*
X008386Y018028D03*
X004386Y018028D03*
X004636Y025678D03*
X008636Y025678D03*
X013439Y005430D03*
D19*
X017436Y012030D03*
X018436Y012030D03*
X018436Y013030D03*
X017436Y013030D03*
X017436Y014030D03*
X018436Y014030D03*
X018436Y015030D03*
X017436Y015030D03*
X017436Y016030D03*
X017436Y017030D03*
X018436Y017030D03*
X018436Y016030D03*
X018436Y018030D03*
X017436Y018030D03*
X017436Y019030D03*
X017436Y020030D03*
X018436Y020030D03*
X018436Y019030D03*
X018436Y021030D03*
X018436Y021780D03*
X017436Y021780D03*
X017436Y021030D03*
X019986Y014030D03*
D20*
X020136Y014630D03*
X019236Y017130D03*
X018986Y017380D03*
X016886Y016380D03*
X014686Y016680D03*
X013836Y017980D03*
X013586Y018230D03*
X013336Y018880D03*
X012836Y019130D03*
X011836Y018230D03*
X011486Y017980D03*
X011486Y016930D03*
X007636Y016330D03*
X005636Y016930D03*
X005186Y016630D03*
X006386Y018880D03*
X006886Y019130D03*
X013586Y022230D03*
X014336Y021980D03*
X017836Y022230D03*
X018636Y024930D03*
X018636Y025280D03*
X017836Y025530D03*
X017836Y025880D03*
X017586Y025280D03*
X016986Y025880D03*
X018636Y027030D03*
X014436Y028880D03*
X013836Y028280D03*
X011836Y025530D03*
X007886Y024830D03*
X014436Y032080D03*
X024386Y032080D03*
X025386Y031830D03*
X026386Y032080D03*
X027186Y031780D03*
X027436Y030030D03*
X029486Y029230D03*
X029936Y028980D03*
X030736Y028030D03*
X029986Y027030D03*
X027736Y027030D03*
X027736Y026530D03*
X026936Y027030D03*
X027736Y028030D03*
X025636Y025280D03*
X025886Y024280D03*
X026936Y025030D03*
X027186Y024030D03*
X027986Y024030D03*
X028786Y023930D03*
X029136Y023630D03*
X029386Y023930D03*
X029386Y024280D03*
X030736Y023930D03*
X029236Y022530D03*
X029236Y022180D03*
X030236Y022180D03*
X029936Y020980D03*
X029786Y020230D03*
X030186Y019980D03*
X029136Y020230D03*
X028736Y019980D03*
X028236Y020580D03*
X028186Y021230D03*
X028186Y021730D03*
X027736Y022530D03*
X027336Y020580D03*
X027236Y019630D03*
X026286Y019280D03*
X026136Y019630D03*
X025386Y019280D03*
X025336Y020630D03*
X025336Y020980D03*
X026986Y017380D03*
X026936Y016630D03*
X027736Y016630D03*
X027736Y017130D03*
X028486Y015480D03*
X030036Y015480D03*
X030136Y014680D03*
X031186Y014680D03*
X031436Y014930D03*
X032486Y013630D03*
X035586Y012430D03*
X037836Y012130D03*
X038336Y011630D03*
X038836Y011380D03*
X039336Y012430D03*
X040486Y012180D03*
X041236Y011630D03*
X041486Y011380D03*
X037836Y008030D03*
X038336Y007780D03*
X038836Y007530D03*
X034186Y007530D03*
X034136Y008030D03*
X032386Y005930D03*
X030886Y006730D03*
X030536Y006880D03*
X030536Y007530D03*
X030886Y007780D03*
X027486Y009030D03*
X025586Y009030D03*
X023486Y008030D03*
X023486Y007680D03*
X023136Y006780D03*
X023486Y006630D03*
X024986Y005830D03*
X020286Y006380D03*
X018986Y007680D03*
X016986Y005830D03*
X015686Y006630D03*
X015336Y006780D03*
X014286Y006780D03*
X012636Y007680D03*
X012636Y008930D03*
X011136Y006780D03*
X009636Y006330D03*
X007836Y006580D03*
X007886Y008430D03*
X007886Y008930D03*
X006636Y008930D03*
X006386Y008430D03*
X009936Y010280D03*
X017786Y011180D03*
X018036Y010280D03*
X020286Y011330D03*
X020586Y011080D03*
X025536Y014730D03*
X025286Y015530D03*
X025786Y015530D03*
X027486Y013630D03*
X031186Y016630D03*
X031436Y016880D03*
X030986Y020730D03*
X036036Y023630D03*
X036836Y023880D03*
X039536Y026530D03*
X041836Y023030D03*
X039486Y018880D03*
X036936Y018880D03*
X036836Y014930D03*
X032986Y028980D03*
X031986Y029230D03*
X036486Y032180D03*
X038986Y031680D03*
X039236Y031930D03*
X039236Y031030D03*
X041086Y031030D03*
X040586Y034480D03*
X036486Y034480D03*
M02*
