G75*
%MOIN*%
%OFA0B0*%
%FSLAX24Y24*%
%IPPOS*%
%LPD*%
%AMOC8*
5,1,8,0,0,1.08239X$1,22.5*
%
%ADD10C,0.0561*%
%ADD11C,0.0600*%
%ADD12OC8,0.0610*%
%ADD13C,0.0240*%
%ADD14C,0.0660*%
%ADD15OC8,0.0669*%
%ADD16C,0.0180*%
%ADD17C,0.0270*%
%ADD18C,0.0120*%
%ADD19C,0.0060*%
%ADD20C,0.0400*%
%ADD21C,0.0160*%
D10*
X020986Y011749D02*
X020986Y012311D01*
X020986Y012749D02*
X020986Y013311D01*
X021986Y013311D02*
X021986Y012749D01*
X021986Y012311D02*
X021986Y011749D01*
X022986Y011749D02*
X022986Y012311D01*
X022986Y012749D02*
X022986Y013311D01*
X023986Y013311D02*
X023986Y012749D01*
X023986Y012311D02*
X023986Y011749D01*
X024986Y011749D02*
X024986Y012311D01*
X024986Y012749D02*
X024986Y013311D01*
X025986Y013311D02*
X025986Y012749D01*
X025986Y012311D02*
X025986Y011749D01*
X026986Y011749D02*
X026986Y012311D01*
X026986Y012749D02*
X026986Y013311D01*
X027986Y013311D02*
X027986Y012749D01*
X027986Y012311D02*
X027986Y011749D01*
X027986Y029749D02*
X027986Y030311D01*
X027986Y030749D02*
X027986Y031311D01*
X028986Y031311D02*
X028986Y030749D01*
X028986Y030311D02*
X028986Y029749D01*
X029986Y029749D02*
X029986Y030311D01*
X029986Y030749D02*
X029986Y031311D01*
X030986Y031311D02*
X030986Y030749D01*
X030986Y030311D02*
X030986Y029749D01*
X031986Y029749D02*
X031986Y030311D01*
X031986Y030749D02*
X031986Y031311D01*
X032986Y031311D02*
X032986Y030749D01*
X032986Y030311D02*
X032986Y029749D01*
X033986Y029749D02*
X033986Y030311D01*
X033986Y030749D02*
X033986Y031311D01*
X034986Y031311D02*
X034986Y030749D01*
X034986Y030311D02*
X034986Y029749D01*
X026386Y029749D02*
X026386Y030311D01*
X026386Y030749D02*
X026386Y031311D01*
X025386Y031311D02*
X025386Y030749D01*
X025386Y030311D02*
X025386Y029749D01*
X024386Y029749D02*
X024386Y030311D01*
X024386Y030749D02*
X024386Y031311D01*
X023386Y031311D02*
X023386Y030749D01*
X023386Y030311D02*
X023386Y029749D01*
X022386Y029749D02*
X022386Y030311D01*
X022386Y030749D02*
X022386Y031311D01*
X021386Y031311D02*
X021386Y030749D01*
X021386Y030311D02*
X021386Y029749D01*
X020386Y029749D02*
X020386Y030311D01*
X020386Y030749D02*
X020386Y031311D01*
X019386Y031311D02*
X019386Y030749D01*
X019386Y030311D02*
X019386Y029749D01*
X018386Y029749D02*
X018386Y030311D01*
X018386Y030749D02*
X018386Y031311D01*
X017386Y031311D02*
X017386Y030749D01*
X017386Y030311D02*
X017386Y029749D01*
D11*
X010416Y029790D02*
X009816Y029790D01*
X007856Y029790D02*
X007256Y029790D01*
X007256Y031570D02*
X007856Y031570D01*
X009816Y031570D02*
X010416Y031570D01*
X029986Y013330D02*
X029986Y012730D01*
X029986Y012330D02*
X029986Y011730D01*
X030986Y011730D02*
X030986Y012330D01*
X030986Y012730D02*
X030986Y013330D01*
X031986Y013330D02*
X031986Y012730D01*
X031986Y012330D02*
X031986Y011730D01*
X032986Y011730D02*
X032986Y012330D01*
X032986Y012730D02*
X032986Y013330D01*
X033986Y013330D02*
X033986Y012730D01*
X033986Y012330D02*
X033986Y011730D01*
X034986Y011730D02*
X034986Y012330D01*
X034986Y012730D02*
X034986Y013330D01*
D12*
X035036Y021030D03*
X035036Y022030D03*
X036036Y022030D03*
X036036Y021030D03*
X036036Y023030D03*
X035036Y023030D03*
D13*
X036036Y021030D02*
X029386Y014380D01*
X026986Y014380D01*
X026986Y013030D01*
X026986Y012030D01*
X025986Y012030D02*
X025986Y013030D01*
X024986Y013030D02*
X024986Y013280D01*
X024236Y014030D01*
X020886Y014030D01*
X019886Y013030D01*
X019886Y011430D01*
X018036Y011430D01*
X017436Y012030D01*
X019986Y014030D02*
X020336Y014380D01*
X026986Y014380D01*
X027986Y013030D02*
X027986Y012030D01*
X029986Y012030D02*
X029986Y013030D01*
X030986Y013030D02*
X030986Y012030D01*
X031986Y012030D02*
X031986Y013030D01*
X032986Y013030D02*
X032986Y012030D01*
X033986Y012030D02*
X033986Y013030D01*
X034986Y013030D02*
X034986Y012030D01*
X024986Y012030D02*
X024986Y013030D01*
X023986Y013030D02*
X023986Y012030D01*
X022986Y012030D02*
X022986Y013030D01*
X021986Y013030D02*
X021986Y012030D01*
X020986Y012030D02*
X020986Y013030D01*
X021386Y030030D02*
X021386Y031030D01*
X020386Y031030D02*
X020386Y030030D01*
X019386Y030030D02*
X019386Y031030D01*
X018386Y031030D02*
X018386Y030030D01*
X017386Y030030D02*
X017386Y031030D01*
X022386Y031030D02*
X022386Y030030D01*
X023386Y030030D02*
X023386Y031030D01*
X024386Y031030D02*
X024386Y030030D01*
X025386Y030030D02*
X025386Y031030D01*
X026386Y031030D02*
X026386Y030030D01*
X027986Y030030D02*
X027986Y031030D01*
X028986Y031030D02*
X028986Y030030D01*
X029986Y030030D02*
X029986Y031030D01*
X030986Y031030D02*
X030986Y030030D01*
X031986Y030030D02*
X031986Y031030D01*
X032986Y031030D02*
X032986Y030030D01*
X033986Y030030D02*
X033986Y031030D01*
X034986Y031030D02*
X034986Y030030D01*
D14*
X018436Y021780D02*
X018436Y012030D01*
X017436Y012030D02*
X017436Y016680D01*
X017436Y021780D01*
D15*
X017436Y021780D03*
X017436Y021030D03*
X018436Y021030D03*
X018436Y021780D03*
X018436Y020030D03*
X017436Y020030D03*
X017436Y019030D03*
X018436Y019030D03*
X018436Y018030D03*
X017436Y018030D03*
X017436Y017030D03*
X017436Y016030D03*
X018436Y016030D03*
X018436Y017030D03*
X018436Y015030D03*
X017436Y015030D03*
X017436Y014030D03*
X017436Y013030D03*
X018436Y013030D03*
X018436Y014030D03*
X019986Y014030D03*
X018436Y012030D03*
X017436Y012030D03*
D16*
X019886Y011430D02*
X019936Y011330D01*
X020286Y011330D01*
X020286Y006380D02*
X020286Y006330D01*
X024386Y006330D01*
X024436Y006280D01*
X024536Y006280D01*
X024486Y006330D01*
X024586Y006430D01*
X030786Y006430D01*
X030836Y006380D01*
X031936Y006380D01*
X032386Y005930D01*
X024986Y005830D02*
X024536Y006280D01*
X020286Y006330D02*
X016586Y006330D01*
X016536Y006280D01*
X016486Y006330D01*
X009636Y006330D01*
X016536Y006280D02*
X016986Y005830D01*
X017436Y016680D02*
X014686Y016680D01*
X014636Y016630D01*
X005186Y016630D01*
X014336Y021980D02*
X017186Y021980D01*
X017436Y021780D01*
X028186Y021730D02*
X028186Y021230D01*
X029136Y023630D02*
X036036Y023630D01*
X036036Y023030D02*
X041836Y023030D01*
X039336Y012430D02*
X035586Y012430D01*
D17*
X035586Y012430D03*
X037836Y012130D03*
X038336Y011630D03*
X038836Y011380D03*
X039336Y012430D03*
X040486Y012180D03*
X041236Y011630D03*
X041486Y011380D03*
X037836Y008030D03*
X038336Y007780D03*
X038836Y007530D03*
X034186Y007530D03*
X034136Y008030D03*
X032386Y005930D03*
X030886Y006730D03*
X030536Y006880D03*
X030536Y007530D03*
X030886Y007780D03*
X027486Y009030D03*
X025586Y009030D03*
X023486Y008030D03*
X023486Y007680D03*
X023136Y006780D03*
X023486Y006630D03*
X024986Y005830D03*
X020286Y006380D03*
X018986Y007680D03*
X016986Y005830D03*
X015686Y006630D03*
X015336Y006780D03*
X014286Y006780D03*
X012636Y007680D03*
X012636Y008930D03*
X011136Y006780D03*
X009636Y006330D03*
X007836Y006580D03*
X007886Y008430D03*
X007886Y008930D03*
X006636Y008930D03*
X006386Y008430D03*
X009936Y010280D03*
X007636Y016330D03*
X005636Y016930D03*
X005186Y016630D03*
X006386Y018880D03*
X006886Y019130D03*
X011486Y017980D03*
X011836Y018230D03*
X012836Y019130D03*
X013336Y018880D03*
X013586Y018230D03*
X013836Y017980D03*
X014686Y016680D03*
X016886Y016380D03*
X018986Y017380D03*
X019236Y017130D03*
X020136Y014630D03*
X020286Y011330D03*
X020586Y011080D03*
X018036Y010280D03*
X017786Y011180D03*
X011486Y016930D03*
X014336Y021980D03*
X013586Y022230D03*
X017586Y025280D03*
X017836Y025530D03*
X017836Y025880D03*
X016986Y025880D03*
X018636Y025280D03*
X018636Y024930D03*
X018636Y027030D03*
X014436Y028880D03*
X013836Y028280D03*
X011836Y025530D03*
X007886Y024830D03*
X014436Y032080D03*
X024386Y032080D03*
X025386Y031830D03*
X026386Y032080D03*
X027186Y031780D03*
X027436Y030030D03*
X029486Y029230D03*
X029936Y028980D03*
X030736Y028030D03*
X029986Y027030D03*
X027736Y027030D03*
X027736Y026530D03*
X026936Y027030D03*
X027736Y028030D03*
X025636Y025280D03*
X025886Y024280D03*
X026936Y025030D03*
X027186Y024030D03*
X027986Y024030D03*
X028786Y023930D03*
X029136Y023630D03*
X029386Y023930D03*
X029386Y024280D03*
X030736Y023930D03*
X029236Y022530D03*
X029236Y022180D03*
X030236Y022180D03*
X029936Y020980D03*
X029786Y020230D03*
X030186Y019980D03*
X029136Y020230D03*
X028736Y019980D03*
X028236Y020580D03*
X028186Y021230D03*
X028186Y021730D03*
X027736Y022530D03*
X027336Y020580D03*
X027236Y019630D03*
X026286Y019280D03*
X026136Y019630D03*
X025386Y019280D03*
X025336Y020630D03*
X025336Y020980D03*
X026986Y017380D03*
X026936Y016630D03*
X027736Y016630D03*
X027736Y017130D03*
X028486Y015480D03*
X030036Y015480D03*
X030136Y014680D03*
X031186Y014680D03*
X031436Y014930D03*
X032486Y013630D03*
X031186Y016630D03*
X031436Y016880D03*
X027486Y013630D03*
X025536Y014730D03*
X025286Y015530D03*
X025786Y015530D03*
X030986Y020730D03*
X036036Y023630D03*
X036836Y023880D03*
X039536Y026530D03*
X041836Y023030D03*
X039486Y018880D03*
X036936Y018880D03*
X036836Y014930D03*
X032986Y028980D03*
X031986Y029230D03*
X036486Y032180D03*
X038986Y031680D03*
X039236Y031930D03*
X039236Y031030D03*
X041086Y031030D03*
X040586Y034480D03*
X036486Y034480D03*
X017836Y022230D03*
D18*
X010116Y031570D02*
X007556Y031570D01*
D19*
X013836Y028280D02*
X014436Y028880D01*
X016986Y025880D02*
X017836Y025880D01*
X017836Y025530D02*
X011836Y025530D01*
X012036Y025380D02*
X011486Y024830D01*
X007886Y024830D01*
X012036Y025380D02*
X017486Y025380D01*
X017586Y025280D01*
X018636Y025280D02*
X025636Y025280D01*
X025436Y025130D02*
X018836Y025130D01*
X018636Y024930D01*
X018636Y027030D02*
X026936Y027030D01*
X027736Y027030D02*
X029986Y027030D01*
X030736Y028030D02*
X027736Y028030D01*
X029486Y029230D02*
X031986Y029230D01*
X031786Y029080D02*
X031886Y028980D01*
X032986Y028980D01*
X031786Y029080D02*
X030036Y029080D01*
X029936Y028980D01*
X027986Y030030D02*
X027436Y030030D01*
X027186Y031780D02*
X027286Y031880D01*
X036236Y031880D01*
X036336Y031780D01*
X038886Y031780D01*
X038986Y031680D01*
X039236Y031930D02*
X036386Y031930D01*
X036286Y032030D01*
X026686Y032030D01*
X026486Y031830D01*
X025386Y031830D01*
X024386Y032080D02*
X024286Y032180D01*
X014536Y032180D01*
X014436Y032080D01*
X025436Y025130D02*
X025536Y025030D01*
X026936Y025030D01*
X027186Y024030D02*
X027986Y024030D01*
X028786Y023930D02*
X029386Y023930D01*
X029386Y024280D02*
X025886Y024280D01*
X027736Y022530D02*
X029236Y022530D01*
X029236Y022180D02*
X030236Y022180D01*
X029936Y020980D02*
X025336Y020980D01*
X025536Y020830D02*
X029736Y020830D01*
X029836Y020730D01*
X030986Y020730D01*
X030186Y019980D02*
X028736Y019980D01*
X029136Y020230D02*
X029786Y020230D01*
X028236Y020580D02*
X027336Y020580D01*
X027236Y019630D02*
X026136Y019630D01*
X026286Y019280D02*
X025386Y019280D01*
X025336Y020630D02*
X025536Y020830D01*
X026336Y017230D02*
X019336Y017230D01*
X019236Y017130D01*
X018986Y017380D02*
X026986Y017380D01*
X026336Y017230D02*
X026936Y016630D01*
X027736Y016630D02*
X031186Y016630D01*
X030986Y016780D02*
X031086Y016880D01*
X031436Y016880D01*
X030986Y016780D02*
X028086Y016780D01*
X027736Y017130D01*
X028486Y015480D02*
X030036Y015480D01*
X029986Y014680D02*
X029436Y014130D01*
X027986Y014130D01*
X027486Y013630D01*
X025536Y014730D02*
X025436Y014630D01*
X020136Y014630D01*
X016886Y016380D02*
X016786Y016480D01*
X014836Y016480D01*
X014786Y016430D01*
X007736Y016430D01*
X007636Y016330D01*
X005736Y016830D02*
X011386Y016830D01*
X011486Y016930D01*
X011486Y017980D02*
X013836Y017980D01*
X013586Y018230D02*
X013486Y018130D01*
X011936Y018130D01*
X011836Y018230D01*
X012636Y018980D02*
X007086Y018980D01*
X006986Y018880D01*
X006386Y018880D01*
X006886Y019130D02*
X012836Y019130D01*
X012636Y018980D02*
X012736Y018880D01*
X013336Y018880D01*
X013586Y022230D02*
X014436Y022230D01*
X014486Y022180D01*
X017186Y022180D01*
X017236Y022230D01*
X017836Y022230D01*
X025286Y015530D02*
X025786Y015530D01*
X029986Y014680D02*
X030136Y014680D01*
X031186Y014680D02*
X032136Y013730D01*
X032386Y013730D01*
X032486Y013630D01*
X031436Y014930D02*
X036836Y014930D01*
X037936Y012230D02*
X039186Y012230D01*
X039236Y012180D01*
X040486Y012180D01*
X041136Y011530D02*
X039036Y011530D01*
X038936Y011630D01*
X038336Y011630D01*
X038836Y011380D02*
X041486Y011380D01*
X041236Y011630D02*
X041136Y011530D01*
X037936Y012230D02*
X037836Y012130D01*
X037836Y008030D02*
X034286Y008030D01*
X034186Y007930D01*
X031086Y007930D01*
X030986Y008030D01*
X023486Y008030D01*
X023486Y007680D02*
X018986Y007680D01*
X012636Y007680D01*
X012636Y008930D02*
X007886Y008930D01*
X006636Y008930D01*
X006386Y008430D02*
X007886Y008430D01*
X007836Y006580D02*
X009736Y006580D01*
X009786Y006530D01*
X015586Y006530D01*
X020086Y006530D01*
X020186Y006630D01*
X020386Y006630D01*
X020486Y006530D01*
X023386Y006530D01*
X024386Y006530D01*
X024486Y006630D01*
X030786Y006630D01*
X030886Y006730D01*
X030536Y006880D02*
X030436Y006780D01*
X023686Y006780D01*
X023586Y006880D01*
X023236Y006880D01*
X023136Y006780D01*
X023036Y006680D01*
X020536Y006680D01*
X020436Y006780D01*
X020136Y006780D01*
X020036Y006680D01*
X015986Y006680D01*
X015786Y006880D01*
X015436Y006880D01*
X015336Y006780D01*
X015236Y006680D01*
X014286Y006680D01*
X014286Y006780D01*
X014286Y006680D02*
X011236Y006680D01*
X011136Y006780D01*
X015586Y006530D02*
X015686Y006630D01*
X018036Y010280D02*
X009936Y010280D01*
X005736Y016830D02*
X005636Y016930D01*
X017786Y011180D02*
X019786Y011180D01*
X019836Y011130D01*
X020136Y011130D01*
X020186Y011080D01*
X020586Y011080D01*
X025586Y009030D02*
X027486Y009030D01*
X030536Y007530D02*
X030986Y007530D01*
X031086Y007630D01*
X034286Y007630D01*
X034186Y007530D01*
X034286Y007630D02*
X034386Y007730D01*
X037586Y007730D01*
X037686Y007630D01*
X038136Y007630D01*
X038236Y007530D01*
X038836Y007530D01*
X038336Y007780D02*
X037736Y007780D01*
X037636Y007880D01*
X034336Y007880D01*
X034236Y007780D01*
X030886Y007780D01*
X034136Y008030D02*
X034286Y008030D01*
X023486Y006630D02*
X023386Y006530D01*
X036936Y018880D02*
X039486Y018880D01*
X036836Y023880D02*
X035936Y023880D01*
X035886Y023830D01*
X030836Y023830D01*
X030736Y023930D01*
X027736Y026530D02*
X039536Y026530D01*
X039236Y031030D02*
X041086Y031030D01*
X040586Y034480D02*
X040486Y034580D01*
X036586Y034580D01*
X036486Y034480D01*
X036486Y032180D02*
X026486Y032180D01*
X026386Y032080D01*
D20*
X020386Y030030D02*
X020386Y029430D01*
X019986Y029030D01*
X018986Y029030D01*
X018236Y022030D02*
X018386Y021780D01*
X018436Y021780D01*
D21*
X006187Y004948D02*
X005398Y005329D01*
X004672Y005818D01*
X004023Y006405D01*
X003464Y007079D01*
X003007Y007826D01*
X002661Y008630D01*
X002433Y009475D01*
X002366Y009894D01*
X002416Y030819D01*
X002517Y031017D01*
X002838Y031465D01*
X003241Y031842D01*
X003241Y031842D01*
X003709Y032134D01*
X004225Y032329D01*
X004769Y032419D01*
X005321Y032401D01*
X005858Y032276D01*
X006107Y032178D01*
X006119Y032173D01*
X006165Y032152D01*
X006170Y032152D01*
X006174Y032150D01*
X006226Y032150D01*
X006277Y032148D01*
X006281Y032150D01*
X014168Y032150D01*
X014161Y032135D01*
X014161Y032025D01*
X014203Y031924D01*
X014281Y031847D01*
X014382Y031805D01*
X014491Y031805D01*
X014592Y031847D01*
X014669Y031924D01*
X014705Y032010D01*
X024118Y032010D01*
X024153Y031924D01*
X024231Y031847D01*
X024332Y031805D01*
X024441Y031805D01*
X024542Y031847D01*
X024619Y031924D01*
X024661Y032025D01*
X024661Y032135D01*
X024655Y032150D01*
X026118Y032150D01*
X026111Y032135D01*
X026111Y032025D01*
X026122Y032000D01*
X025605Y032000D01*
X025542Y032063D01*
X025441Y032105D01*
X025332Y032105D01*
X025231Y032063D01*
X025153Y031986D01*
X025111Y031885D01*
X025111Y031775D01*
X025153Y031674D01*
X025157Y031671D01*
X025148Y031667D01*
X025030Y031549D01*
X024966Y031394D01*
X024966Y030666D01*
X025022Y030530D01*
X024966Y030394D01*
X024966Y029666D01*
X025030Y029511D01*
X025148Y029393D01*
X025303Y029329D01*
X025470Y029329D01*
X025624Y029393D01*
X025743Y029511D01*
X025807Y029666D01*
X025807Y030394D01*
X025751Y030530D01*
X025807Y030666D01*
X025807Y031394D01*
X025743Y031549D01*
X025632Y031660D01*
X026141Y031660D01*
X026030Y031549D01*
X025966Y031394D01*
X025966Y030666D01*
X026022Y030530D01*
X025966Y030394D01*
X025966Y029666D01*
X026030Y029511D01*
X026148Y029393D01*
X026303Y029329D01*
X026470Y029329D01*
X026624Y029393D01*
X026743Y029511D01*
X026807Y029666D01*
X026807Y030394D01*
X026751Y030530D01*
X026807Y030666D01*
X026807Y031394D01*
X026743Y031549D01*
X026624Y031667D01*
X026582Y031685D01*
X026757Y031860D01*
X026922Y031860D01*
X026911Y031835D01*
X026911Y031725D01*
X026953Y031624D01*
X027031Y031547D01*
X027132Y031505D01*
X027241Y031505D01*
X027342Y031547D01*
X027419Y031624D01*
X027455Y031710D01*
X027852Y031710D01*
X027748Y031667D01*
X027630Y031549D01*
X027566Y031394D01*
X027566Y030666D01*
X027622Y030530D01*
X027566Y030394D01*
X027566Y030274D01*
X027491Y030305D01*
X027382Y030305D01*
X027281Y030263D01*
X027203Y030186D01*
X027161Y030085D01*
X027161Y029975D01*
X027203Y029874D01*
X027281Y029797D01*
X027382Y029755D01*
X027491Y029755D01*
X027566Y029786D01*
X027566Y029666D01*
X027630Y029511D01*
X027748Y029393D01*
X027903Y029329D01*
X028070Y029329D01*
X028224Y029393D01*
X028343Y029511D01*
X028407Y029666D01*
X028407Y030394D01*
X028351Y030530D01*
X028407Y030666D01*
X028407Y031394D01*
X028343Y031549D01*
X028224Y031667D01*
X028121Y031710D01*
X028852Y031710D01*
X028748Y031667D01*
X028630Y031549D01*
X028566Y031394D01*
X028566Y030666D01*
X028622Y030530D01*
X028566Y030394D01*
X028566Y029666D01*
X028630Y029511D01*
X028748Y029393D01*
X028903Y029329D01*
X029070Y029329D01*
X029224Y029393D01*
X029343Y029511D01*
X029407Y029666D01*
X029407Y030394D01*
X029351Y030530D01*
X029407Y030666D01*
X029407Y031394D01*
X029343Y031549D01*
X029224Y031667D01*
X029121Y031710D01*
X029852Y031710D01*
X029748Y031667D01*
X029630Y031549D01*
X029566Y031394D01*
X029566Y030666D01*
X029622Y030530D01*
X029566Y030394D01*
X029566Y029666D01*
X029630Y029511D01*
X029741Y029400D01*
X029705Y029400D01*
X029642Y029463D01*
X029541Y029505D01*
X029432Y029505D01*
X029331Y029463D01*
X029253Y029386D01*
X029211Y029285D01*
X029211Y029175D01*
X029253Y029074D01*
X029331Y028997D01*
X029432Y028955D01*
X029541Y028955D01*
X029642Y028997D01*
X029661Y029016D01*
X029661Y028925D01*
X029703Y028824D01*
X029781Y028747D01*
X029882Y028705D01*
X029991Y028705D01*
X030092Y028747D01*
X030169Y028824D01*
X030205Y028910D01*
X031716Y028910D01*
X031716Y028910D01*
X031816Y028810D01*
X032767Y028810D01*
X032831Y028747D01*
X032932Y028705D01*
X033041Y028705D01*
X033142Y028747D01*
X033219Y028824D01*
X033261Y028925D01*
X033261Y029035D01*
X033219Y029136D01*
X033142Y029213D01*
X033041Y029255D01*
X032932Y029255D01*
X032831Y029213D01*
X032767Y029150D01*
X032251Y029150D01*
X032261Y029175D01*
X032261Y029285D01*
X032219Y029386D01*
X032216Y029389D01*
X032224Y029393D01*
X032343Y029511D01*
X032407Y029666D01*
X032407Y030394D01*
X032351Y030530D01*
X032407Y030666D01*
X032407Y031394D01*
X032343Y031549D01*
X032224Y031667D01*
X032121Y031710D01*
X032852Y031710D01*
X032748Y031667D01*
X032630Y031549D01*
X032566Y031394D01*
X032566Y030666D01*
X032622Y030530D01*
X032566Y030394D01*
X032566Y029666D01*
X032630Y029511D01*
X032748Y029393D01*
X032903Y029329D01*
X033070Y029329D01*
X033224Y029393D01*
X033343Y029511D01*
X033407Y029666D01*
X033407Y030394D01*
X033351Y030530D01*
X033407Y030666D01*
X033407Y031394D01*
X033343Y031549D01*
X033224Y031667D01*
X033121Y031710D01*
X033852Y031710D01*
X033748Y031667D01*
X033630Y031549D01*
X033566Y031394D01*
X033566Y030666D01*
X033622Y030530D01*
X033566Y030394D01*
X033566Y029666D01*
X033630Y029511D01*
X033748Y029393D01*
X033903Y029329D01*
X034070Y029329D01*
X034224Y029393D01*
X034343Y029511D01*
X034407Y029666D01*
X034407Y030394D01*
X034351Y030530D01*
X034407Y030666D01*
X034407Y031394D01*
X034343Y031549D01*
X034224Y031667D01*
X034121Y031710D01*
X034852Y031710D01*
X034748Y031667D01*
X034630Y031549D01*
X034566Y031394D01*
X034566Y030666D01*
X034622Y030530D01*
X034566Y030394D01*
X034566Y029666D01*
X034630Y029511D01*
X034748Y029393D01*
X034903Y029329D01*
X035070Y029329D01*
X035224Y029393D01*
X035343Y029511D01*
X035407Y029666D01*
X035407Y030394D01*
X035351Y030530D01*
X035407Y030666D01*
X035407Y031394D01*
X035343Y031549D01*
X035224Y031667D01*
X035121Y031710D01*
X036166Y031710D01*
X036266Y031610D01*
X038718Y031610D01*
X038753Y031524D01*
X038831Y031447D01*
X038932Y031405D01*
X039041Y031405D01*
X039142Y031447D01*
X039219Y031524D01*
X039261Y031625D01*
X039261Y031655D01*
X039291Y031655D01*
X039392Y031697D01*
X039469Y031774D01*
X039511Y031875D01*
X039511Y031985D01*
X039469Y032086D01*
X039392Y032163D01*
X039291Y032205D01*
X039182Y032205D01*
X039081Y032163D01*
X039017Y032100D01*
X036751Y032100D01*
X036761Y032125D01*
X036761Y032235D01*
X036719Y032336D01*
X036642Y032413D01*
X036541Y032455D01*
X036432Y032455D01*
X036331Y032413D01*
X036267Y032350D01*
X035115Y032350D01*
X036287Y034290D01*
X036331Y034247D01*
X036432Y034205D01*
X036541Y034205D01*
X036642Y034247D01*
X036719Y034324D01*
X036755Y034410D01*
X040318Y034410D01*
X040353Y034324D01*
X040431Y034247D01*
X040532Y034205D01*
X040641Y034205D01*
X040742Y034247D01*
X040819Y034324D01*
X040861Y034425D01*
X040861Y034535D01*
X040855Y034550D01*
X043506Y034550D01*
X043506Y029342D01*
X043329Y029520D01*
X043009Y029652D01*
X042663Y029652D01*
X042344Y029520D01*
X042099Y029275D01*
X041967Y028955D01*
X041967Y028609D01*
X042099Y028290D01*
X042344Y028045D01*
X042663Y027913D01*
X043009Y027913D01*
X043329Y028045D01*
X043506Y028222D01*
X043506Y021342D01*
X043279Y021570D01*
X042959Y021702D01*
X042613Y021702D01*
X042294Y021570D01*
X042049Y021325D01*
X041917Y021005D01*
X041917Y020659D01*
X042049Y020340D01*
X042294Y020095D01*
X042613Y019963D01*
X042959Y019963D01*
X043279Y020095D01*
X043506Y020322D01*
X043506Y013746D01*
X043474Y013825D01*
X043229Y014070D01*
X042909Y014202D01*
X042563Y014202D01*
X042244Y014070D01*
X041999Y013825D01*
X041867Y013505D01*
X041867Y013159D01*
X041999Y012840D01*
X042244Y012595D01*
X042563Y012463D01*
X042909Y012463D01*
X043229Y012595D01*
X043474Y012840D01*
X043506Y012919D01*
X043506Y009574D01*
X043490Y009153D01*
X043358Y008322D01*
X043098Y007521D01*
X042716Y006771D01*
X042221Y006090D01*
X041626Y005495D01*
X040945Y005000D01*
X040195Y004618D01*
X039395Y004358D01*
X038563Y004227D01*
X038143Y004210D01*
X009270Y004560D01*
X009251Y004565D01*
X009215Y004560D01*
X009178Y004561D01*
X009164Y004555D01*
X008760Y004521D01*
X007885Y004540D01*
X007021Y004683D01*
X006187Y004948D01*
X006376Y004887D02*
X012751Y004887D01*
X012701Y004937D02*
X012946Y004693D01*
X013266Y004560D01*
X013612Y004560D01*
X013931Y004693D01*
X014176Y004937D01*
X014308Y005257D01*
X014308Y005603D01*
X014176Y005923D01*
X013999Y006100D01*
X016391Y006100D01*
X016441Y006050D01*
X016441Y006050D01*
X016711Y005780D01*
X016711Y005775D01*
X016753Y005674D01*
X016831Y005597D01*
X016932Y005555D01*
X017041Y005555D01*
X017142Y005597D01*
X017219Y005674D01*
X017261Y005775D01*
X017261Y005885D01*
X017219Y005986D01*
X017142Y006063D01*
X017053Y006100D01*
X020679Y006100D01*
X020501Y005923D01*
X020369Y005603D01*
X020369Y005257D01*
X020501Y004937D01*
X020746Y004693D01*
X021066Y004560D01*
X021412Y004560D01*
X021731Y004693D01*
X021976Y004937D01*
X022108Y005257D01*
X022108Y005603D01*
X021976Y005923D01*
X021799Y006100D01*
X024291Y006100D01*
X024341Y006050D01*
X024441Y006050D01*
X024711Y005780D01*
X024711Y005775D01*
X024753Y005674D01*
X024831Y005597D01*
X024932Y005555D01*
X025041Y005555D01*
X025142Y005597D01*
X025219Y005674D01*
X025261Y005775D01*
X025261Y005885D01*
X025219Y005986D01*
X025142Y006063D01*
X025041Y006105D01*
X025037Y006105D01*
X024942Y006200D01*
X028079Y006200D01*
X027901Y006023D01*
X027769Y005703D01*
X027769Y005357D01*
X027901Y005037D01*
X028146Y004793D01*
X028466Y004660D01*
X028812Y004660D01*
X029131Y004793D01*
X029376Y005037D01*
X029508Y005357D01*
X029508Y005703D01*
X029376Y006023D01*
X029199Y006200D01*
X030691Y006200D01*
X030741Y006150D01*
X031841Y006150D01*
X032111Y005880D01*
X032111Y005875D01*
X032153Y005774D01*
X032231Y005697D01*
X032332Y005655D01*
X032441Y005655D01*
X032542Y005697D01*
X032619Y005774D01*
X032661Y005875D01*
X032661Y005985D01*
X032619Y006086D01*
X032542Y006163D01*
X032441Y006205D01*
X032437Y006205D01*
X032166Y006475D01*
X032032Y006610D01*
X031134Y006610D01*
X031161Y006675D01*
X031161Y006785D01*
X031119Y006886D01*
X031042Y006963D01*
X030941Y007005D01*
X030832Y007005D01*
X030789Y006988D01*
X030769Y007036D01*
X030692Y007113D01*
X030591Y007155D01*
X030482Y007155D01*
X030381Y007113D01*
X030303Y007036D01*
X030268Y006950D01*
X023757Y006950D01*
X023756Y006950D01*
X023657Y007050D01*
X023203Y007050D01*
X023191Y007055D01*
X023082Y007055D01*
X022981Y007013D01*
X022903Y006936D01*
X022868Y006850D01*
X020607Y006850D01*
X020606Y006850D01*
X020507Y006950D01*
X020066Y006950D01*
X019966Y006850D01*
X016057Y006850D01*
X015956Y006950D01*
X015857Y007050D01*
X015403Y007050D01*
X015391Y007055D01*
X015282Y007055D01*
X015181Y007013D01*
X015103Y006936D01*
X015068Y006850D01*
X014555Y006850D01*
X014519Y006936D01*
X014442Y007013D01*
X014341Y007055D01*
X014232Y007055D01*
X014131Y007013D01*
X014053Y006936D01*
X014018Y006850D01*
X011405Y006850D01*
X011369Y006936D01*
X011292Y007013D01*
X011191Y007055D01*
X011082Y007055D01*
X010981Y007013D01*
X010903Y006936D01*
X010861Y006835D01*
X010861Y006725D01*
X010872Y006700D01*
X009857Y006700D01*
X009807Y006750D01*
X008055Y006750D01*
X007992Y006813D01*
X007891Y006855D01*
X007782Y006855D01*
X007681Y006813D01*
X007603Y006736D01*
X007561Y006635D01*
X007561Y006525D01*
X007603Y006424D01*
X007681Y006347D01*
X007782Y006305D01*
X007891Y006305D01*
X007992Y006347D01*
X008055Y006410D01*
X009372Y006410D01*
X009361Y006385D01*
X009361Y006275D01*
X009403Y006174D01*
X009481Y006097D01*
X009582Y006055D01*
X009691Y006055D01*
X009792Y006097D01*
X009795Y006100D01*
X012879Y006100D01*
X012701Y005923D01*
X012569Y005603D01*
X012569Y005257D01*
X012701Y004937D01*
X012656Y005046D02*
X005983Y005046D01*
X005655Y005204D02*
X012591Y005204D01*
X012569Y005363D02*
X005347Y005363D01*
X005416Y005560D02*
X005762Y005560D01*
X006081Y005693D01*
X006326Y005937D01*
X006458Y006257D01*
X006458Y006603D01*
X006326Y006923D01*
X006081Y007167D01*
X005762Y007300D01*
X005416Y007300D01*
X005096Y007167D01*
X004851Y006923D01*
X004719Y006603D01*
X004719Y006257D01*
X004851Y005937D01*
X005096Y005693D01*
X005416Y005560D01*
X005112Y005521D02*
X012569Y005521D01*
X012601Y005680D02*
X006051Y005680D01*
X006227Y005839D02*
X012666Y005839D01*
X012776Y005997D02*
X006351Y005997D01*
X006416Y006156D02*
X009422Y006156D01*
X009361Y006314D02*
X007913Y006314D01*
X007760Y006314D02*
X006458Y006314D01*
X006458Y006473D02*
X007583Y006473D01*
X007561Y006631D02*
X006447Y006631D01*
X006381Y006790D02*
X007657Y006790D01*
X008016Y006790D02*
X010861Y006790D01*
X010915Y006948D02*
X006301Y006948D01*
X006142Y007107D02*
X030374Y007107D01*
X030457Y007265D02*
X005846Y007265D01*
X005332Y007265D02*
X003351Y007265D01*
X003448Y007107D02*
X005035Y007107D01*
X004877Y006948D02*
X003573Y006948D01*
X003705Y006790D02*
X004796Y006790D01*
X004730Y006631D02*
X003836Y006631D01*
X003968Y006473D02*
X004719Y006473D01*
X004719Y006314D02*
X004124Y006314D01*
X004299Y006156D02*
X004761Y006156D01*
X004827Y005997D02*
X004474Y005997D01*
X004649Y005839D02*
X004950Y005839D01*
X004877Y005680D02*
X005127Y005680D01*
X006876Y004729D02*
X012910Y004729D01*
X013241Y004570D02*
X007698Y004570D01*
X011357Y006948D02*
X014065Y006948D01*
X014507Y006948D02*
X015115Y006948D01*
X015959Y006948D02*
X020064Y006948D01*
X020509Y006948D02*
X022915Y006948D01*
X023331Y007447D02*
X023432Y007405D01*
X023541Y007405D01*
X023642Y007447D01*
X023719Y007524D01*
X023761Y007625D01*
X023761Y007735D01*
X023719Y007836D01*
X023700Y007855D01*
X023705Y007860D01*
X030622Y007860D01*
X030611Y007835D01*
X030611Y007797D01*
X030591Y007805D01*
X030482Y007805D01*
X030381Y007763D01*
X030303Y007686D01*
X030261Y007585D01*
X030261Y007475D01*
X030303Y007374D01*
X030381Y007297D01*
X030482Y007255D01*
X030591Y007255D01*
X030692Y007297D01*
X030755Y007360D01*
X031057Y007360D01*
X031157Y007460D01*
X033918Y007460D01*
X033953Y007374D01*
X034031Y007297D01*
X034132Y007255D01*
X034241Y007255D01*
X034342Y007297D01*
X034419Y007374D01*
X034461Y007475D01*
X034461Y007560D01*
X037516Y007560D01*
X037516Y007560D01*
X037616Y007460D01*
X038066Y007460D01*
X038066Y007460D01*
X038166Y007360D01*
X038617Y007360D01*
X038681Y007297D01*
X038782Y007255D01*
X038891Y007255D01*
X038992Y007297D01*
X039069Y007374D01*
X039111Y007475D01*
X039111Y007585D01*
X039069Y007686D01*
X038992Y007763D01*
X038891Y007805D01*
X038782Y007805D01*
X038681Y007763D01*
X038617Y007700D01*
X038601Y007700D01*
X038611Y007725D01*
X038611Y007835D01*
X038569Y007936D01*
X038492Y008013D01*
X038391Y008055D01*
X038282Y008055D01*
X038181Y008013D01*
X038117Y007950D01*
X038101Y007950D01*
X038111Y007975D01*
X038111Y008085D01*
X038069Y008186D01*
X037992Y008263D01*
X037891Y008305D01*
X037782Y008305D01*
X037681Y008263D01*
X037617Y008200D01*
X034355Y008200D01*
X034292Y008263D01*
X034191Y008305D01*
X034082Y008305D01*
X033981Y008263D01*
X033903Y008186D01*
X033868Y008100D01*
X031157Y008100D01*
X031057Y008200D01*
X023705Y008200D01*
X023642Y008263D01*
X023541Y008305D01*
X023432Y008305D01*
X023331Y008263D01*
X023253Y008186D01*
X023211Y008085D01*
X023211Y007975D01*
X023253Y007874D01*
X023272Y007855D01*
X023267Y007850D01*
X019205Y007850D01*
X019142Y007913D01*
X019041Y007955D01*
X018932Y007955D01*
X018831Y007913D01*
X018767Y007850D01*
X012855Y007850D01*
X012792Y007913D01*
X012691Y007955D01*
X012582Y007955D01*
X012481Y007913D01*
X012403Y007836D01*
X012361Y007735D01*
X012361Y007625D01*
X012403Y007524D01*
X012481Y007447D01*
X012582Y007405D01*
X012691Y007405D01*
X012792Y007447D01*
X012855Y007510D01*
X018767Y007510D01*
X018831Y007447D01*
X018932Y007405D01*
X019041Y007405D01*
X019142Y007447D01*
X019205Y007510D01*
X023267Y007510D01*
X023331Y007447D01*
X023387Y007424D02*
X019086Y007424D01*
X018887Y007424D02*
X012736Y007424D01*
X012537Y007424D02*
X003254Y007424D01*
X003157Y007582D02*
X012379Y007582D01*
X012364Y007741D02*
X003059Y007741D01*
X002976Y007899D02*
X012466Y007899D01*
X012806Y007899D02*
X018816Y007899D01*
X019156Y007899D02*
X023243Y007899D01*
X023211Y008058D02*
X002907Y008058D01*
X002839Y008216D02*
X006211Y008216D01*
X006231Y008197D02*
X006332Y008155D01*
X006441Y008155D01*
X006542Y008197D01*
X006605Y008260D01*
X007667Y008260D01*
X007731Y008197D01*
X007832Y008155D01*
X007941Y008155D01*
X008042Y008197D01*
X008119Y008274D01*
X008161Y008375D01*
X008161Y008485D01*
X008119Y008586D01*
X008042Y008663D01*
X008001Y008680D01*
X008042Y008697D01*
X008105Y008760D01*
X012417Y008760D01*
X012481Y008697D01*
X012582Y008655D01*
X012691Y008655D01*
X012792Y008697D01*
X012867Y008772D01*
X012946Y008693D01*
X013266Y008560D01*
X013612Y008560D01*
X013931Y008693D01*
X014176Y008937D01*
X014308Y009257D01*
X014308Y009603D01*
X014176Y009923D01*
X013989Y010110D01*
X017817Y010110D01*
X017881Y010047D01*
X017982Y010005D01*
X018091Y010005D01*
X018192Y010047D01*
X018269Y010124D01*
X018311Y010225D01*
X018311Y010335D01*
X018269Y010436D01*
X018192Y010513D01*
X018091Y010555D01*
X017982Y010555D01*
X017881Y010513D01*
X017817Y010450D01*
X010155Y010450D01*
X010092Y010513D01*
X009991Y010555D01*
X009882Y010555D01*
X009781Y010513D01*
X009703Y010436D01*
X009661Y010335D01*
X009661Y010225D01*
X009703Y010124D01*
X009781Y010047D01*
X009882Y010005D01*
X009991Y010005D01*
X010092Y010047D01*
X010155Y010110D01*
X012889Y010110D01*
X012701Y009923D01*
X012569Y009603D01*
X012569Y009257D01*
X012590Y009205D01*
X012582Y009205D01*
X012481Y009163D01*
X012417Y009100D01*
X008105Y009100D01*
X008042Y009163D01*
X007941Y009205D01*
X007832Y009205D01*
X007731Y009163D01*
X007667Y009100D01*
X006855Y009100D01*
X006792Y009163D01*
X006691Y009205D01*
X006582Y009205D01*
X006481Y009163D01*
X006403Y009086D01*
X006361Y008985D01*
X006361Y008875D01*
X006403Y008774D01*
X006481Y008697D01*
X006582Y008655D01*
X006691Y008655D01*
X006792Y008697D01*
X006855Y008760D01*
X007667Y008760D01*
X007731Y008697D01*
X007771Y008680D01*
X007731Y008663D01*
X007667Y008600D01*
X006605Y008600D01*
X006542Y008663D01*
X006441Y008705D01*
X006332Y008705D01*
X006231Y008663D01*
X006153Y008586D01*
X006111Y008485D01*
X006111Y008375D01*
X006153Y008274D01*
X006231Y008197D01*
X006112Y008375D02*
X002771Y008375D01*
X002703Y008533D02*
X006131Y008533D01*
X006299Y008692D02*
X002644Y008692D01*
X002601Y008850D02*
X006372Y008850D01*
X006371Y009009D02*
X002559Y009009D01*
X002516Y009167D02*
X006490Y009167D01*
X006783Y009167D02*
X007740Y009167D01*
X008033Y009167D02*
X012490Y009167D01*
X012569Y009326D02*
X002473Y009326D01*
X002431Y009484D02*
X012569Y009484D01*
X012585Y009643D02*
X005960Y009643D01*
X006081Y009693D02*
X006326Y009937D01*
X006458Y010257D01*
X006458Y010603D01*
X006326Y010923D01*
X006081Y011167D01*
X005762Y011300D01*
X005416Y011300D01*
X005096Y011167D01*
X004851Y010923D01*
X004719Y010603D01*
X004719Y010257D01*
X004851Y009937D01*
X005096Y009693D01*
X005416Y009560D01*
X005762Y009560D01*
X006081Y009693D01*
X006190Y009801D02*
X012651Y009801D01*
X012738Y009960D02*
X006335Y009960D01*
X006401Y010118D02*
X009709Y010118D01*
X009661Y010277D02*
X006458Y010277D01*
X006458Y010435D02*
X009703Y010435D01*
X010594Y011695D02*
X010913Y011563D01*
X011259Y011563D01*
X011579Y011695D01*
X011824Y011940D01*
X011956Y012259D01*
X011956Y012605D01*
X011824Y012925D01*
X011579Y013170D01*
X011259Y013302D01*
X010913Y013302D01*
X010594Y013170D01*
X010349Y012925D01*
X010217Y012605D01*
X010217Y012259D01*
X010349Y011940D01*
X010594Y011695D01*
X010586Y011703D02*
X002371Y011703D01*
X002370Y011545D02*
X017554Y011545D01*
X017543Y011555D02*
X017669Y011429D01*
X017631Y011413D01*
X017553Y011336D01*
X017511Y011235D01*
X017511Y011125D01*
X017553Y011024D01*
X017631Y010947D01*
X017732Y010905D01*
X017841Y010905D01*
X017942Y010947D01*
X018005Y011010D01*
X019716Y011010D01*
X019766Y010960D01*
X020066Y010960D01*
X020116Y010910D01*
X020367Y010910D01*
X020431Y010847D01*
X020532Y010805D01*
X020641Y010805D01*
X020742Y010847D01*
X020819Y010924D01*
X020861Y011025D01*
X020861Y011135D01*
X020819Y011236D01*
X020742Y011313D01*
X020641Y011355D01*
X020561Y011355D01*
X020561Y011385D01*
X020519Y011486D01*
X020442Y011563D01*
X020341Y011605D01*
X020232Y011605D01*
X020146Y011570D01*
X020146Y012922D01*
X020566Y013342D01*
X020566Y012666D01*
X020622Y012530D01*
X020566Y012394D01*
X020566Y011666D01*
X020630Y011511D01*
X020748Y011393D01*
X020903Y011329D01*
X021070Y011329D01*
X021224Y011393D01*
X021343Y011511D01*
X021407Y011666D01*
X021407Y012394D01*
X021351Y012530D01*
X021407Y012666D01*
X021407Y013394D01*
X021343Y013549D01*
X021224Y013667D01*
X021070Y013731D01*
X020955Y013731D01*
X020994Y013770D01*
X024129Y013770D01*
X024566Y013333D01*
X024566Y012666D01*
X024622Y012530D01*
X024566Y012394D01*
X024566Y011666D01*
X024630Y011511D01*
X024748Y011393D01*
X024903Y011329D01*
X025070Y011329D01*
X025224Y011393D01*
X025343Y011511D01*
X025407Y011666D01*
X025407Y012394D01*
X025351Y012530D01*
X025407Y012666D01*
X025407Y013394D01*
X025343Y013549D01*
X025224Y013667D01*
X025070Y013731D01*
X024903Y013731D01*
X024384Y014250D01*
X024288Y014290D01*
X020835Y014290D01*
X020739Y014250D01*
X020666Y014177D01*
X019666Y013177D01*
X019626Y013082D01*
X019626Y011690D01*
X018144Y011690D01*
X017911Y011923D01*
X017911Y012227D01*
X017906Y012231D01*
X017906Y012829D01*
X017911Y012833D01*
X017911Y013227D01*
X017906Y013231D01*
X017906Y013829D01*
X017911Y013833D01*
X017911Y014227D01*
X017906Y014231D01*
X017906Y014829D01*
X017911Y014833D01*
X017911Y015227D01*
X017906Y015231D01*
X017906Y015829D01*
X017911Y015833D01*
X017911Y016227D01*
X017906Y016231D01*
X017906Y016829D01*
X017911Y016833D01*
X017911Y017227D01*
X017906Y017231D01*
X017906Y017829D01*
X017911Y017833D01*
X017911Y018227D01*
X017906Y018231D01*
X017906Y018829D01*
X017911Y018833D01*
X017911Y019227D01*
X017906Y019231D01*
X017906Y019829D01*
X017911Y019833D01*
X017911Y020227D01*
X017906Y020231D01*
X017906Y020829D01*
X017911Y020833D01*
X017911Y021227D01*
X017906Y021231D01*
X017906Y021579D01*
X017911Y021583D01*
X017911Y021963D01*
X017992Y021997D01*
X018069Y022074D01*
X018111Y022175D01*
X018111Y022285D01*
X018069Y022386D01*
X017992Y022463D01*
X017891Y022505D01*
X017782Y022505D01*
X017681Y022463D01*
X017617Y022400D01*
X017166Y022400D01*
X017116Y022350D01*
X014557Y022350D01*
X014507Y022400D01*
X013805Y022400D01*
X013742Y022463D01*
X013641Y022505D01*
X013532Y022505D01*
X013431Y022463D01*
X013353Y022386D01*
X013311Y022285D01*
X013311Y022175D01*
X013353Y022074D01*
X013431Y021997D01*
X013532Y021955D01*
X013641Y021955D01*
X013742Y021997D01*
X013805Y022060D01*
X014072Y022060D01*
X014061Y022035D01*
X014061Y021925D01*
X014103Y021824D01*
X014181Y021747D01*
X014282Y021705D01*
X014391Y021705D01*
X014492Y021747D01*
X014495Y021750D01*
X016962Y021750D01*
X016962Y021583D01*
X016966Y021579D01*
X016966Y021231D01*
X016962Y021227D01*
X016962Y020833D01*
X016966Y020829D01*
X016966Y020231D01*
X016962Y020227D01*
X016962Y019833D01*
X016966Y019829D01*
X016966Y019231D01*
X016962Y019227D01*
X016962Y018833D01*
X016966Y018829D01*
X016966Y018231D01*
X016962Y018227D01*
X016962Y017833D01*
X016966Y017829D01*
X016966Y017231D01*
X016962Y017227D01*
X016962Y016910D01*
X014845Y016910D01*
X014842Y016913D01*
X014741Y016955D01*
X014632Y016955D01*
X014531Y016913D01*
X014477Y016860D01*
X011755Y016860D01*
X011761Y016875D01*
X011761Y016985D01*
X011719Y017086D01*
X011642Y017163D01*
X011541Y017205D01*
X011432Y017205D01*
X011331Y017163D01*
X011253Y017086D01*
X011218Y017000D01*
X005905Y017000D01*
X005869Y017086D01*
X005792Y017163D01*
X005691Y017205D01*
X005582Y017205D01*
X005481Y017163D01*
X005403Y017086D01*
X005361Y016985D01*
X005361Y016875D01*
X005368Y016860D01*
X005345Y016860D01*
X005342Y016863D01*
X005241Y016905D01*
X005132Y016905D01*
X005031Y016863D01*
X004953Y016786D01*
X004911Y016685D01*
X004911Y016575D01*
X004953Y016474D01*
X005031Y016397D01*
X005132Y016355D01*
X005241Y016355D01*
X005342Y016397D01*
X005345Y016400D01*
X007368Y016400D01*
X007361Y016385D01*
X007361Y016275D01*
X007403Y016174D01*
X007481Y016097D01*
X007582Y016055D01*
X007691Y016055D01*
X007792Y016097D01*
X007869Y016174D01*
X007905Y016260D01*
X014857Y016260D01*
X014907Y016310D01*
X016618Y016310D01*
X016653Y016224D01*
X016731Y016147D01*
X016832Y016105D01*
X016941Y016105D01*
X016962Y016114D01*
X016962Y015833D01*
X016966Y015829D01*
X016966Y015231D01*
X016962Y015227D01*
X016962Y014833D01*
X016966Y014829D01*
X016966Y014231D01*
X016962Y014227D01*
X016962Y013833D01*
X016966Y013829D01*
X016966Y013231D01*
X016962Y013227D01*
X016962Y012833D01*
X016966Y012829D01*
X016966Y012231D01*
X016962Y012227D01*
X016962Y011833D01*
X017240Y011555D01*
X017543Y011555D01*
X017603Y011386D02*
X002370Y011386D01*
X002370Y011228D02*
X005241Y011228D01*
X004998Y011069D02*
X002369Y011069D01*
X002369Y010911D02*
X004846Y010911D01*
X004781Y010752D02*
X002368Y010752D01*
X002368Y010594D02*
X004719Y010594D01*
X004719Y010435D02*
X002368Y010435D01*
X002367Y010277D02*
X004719Y010277D01*
X004776Y010118D02*
X002367Y010118D01*
X002367Y009960D02*
X004842Y009960D01*
X004988Y009801D02*
X002381Y009801D01*
X002406Y009643D02*
X005217Y009643D01*
X006458Y010594D02*
X043506Y010594D01*
X043506Y010752D02*
X006397Y010752D01*
X006331Y010911D02*
X017718Y010911D01*
X017854Y010911D02*
X020115Y010911D01*
X020561Y011386D02*
X020765Y011386D01*
X020823Y011228D02*
X038602Y011228D01*
X038603Y011224D02*
X038681Y011147D01*
X038782Y011105D01*
X038891Y011105D01*
X038992Y011147D01*
X039055Y011210D01*
X041267Y011210D01*
X041331Y011147D01*
X041432Y011105D01*
X041541Y011105D01*
X041642Y011147D01*
X041719Y011224D01*
X041761Y011325D01*
X041761Y011435D01*
X041719Y011536D01*
X041642Y011613D01*
X041541Y011655D01*
X041511Y011655D01*
X041511Y011685D01*
X041469Y011786D01*
X041392Y011863D01*
X041291Y011905D01*
X041182Y011905D01*
X041081Y011863D01*
X041003Y011786D01*
X040968Y011700D01*
X039107Y011700D01*
X039106Y011700D01*
X039007Y011800D01*
X038555Y011800D01*
X038492Y011863D01*
X038391Y011905D01*
X038282Y011905D01*
X038181Y011863D01*
X038103Y011786D01*
X038061Y011685D01*
X038061Y011575D01*
X038103Y011474D01*
X038181Y011397D01*
X038282Y011355D01*
X038391Y011355D01*
X038492Y011397D01*
X038555Y011460D01*
X038572Y011460D01*
X038561Y011435D01*
X038561Y011325D01*
X038603Y011224D01*
X038561Y011386D02*
X038466Y011386D01*
X038207Y011386D02*
X035265Y011386D01*
X035236Y011357D02*
X035359Y011481D01*
X035426Y011642D01*
X035426Y012201D01*
X035431Y012197D01*
X035532Y012155D01*
X035641Y012155D01*
X035742Y012197D01*
X035745Y012200D01*
X037568Y012200D01*
X037561Y012185D01*
X037561Y012075D01*
X037603Y011974D01*
X037681Y011897D01*
X037782Y011855D01*
X037891Y011855D01*
X037992Y011897D01*
X038069Y011974D01*
X038105Y012060D01*
X039116Y012060D01*
X039166Y012010D01*
X040267Y012010D01*
X040331Y011947D01*
X040432Y011905D01*
X040541Y011905D01*
X040642Y011947D01*
X040719Y012024D01*
X040761Y012125D01*
X040761Y012235D01*
X040719Y012336D01*
X040642Y012413D01*
X040541Y012455D01*
X040432Y012455D01*
X040331Y012413D01*
X040267Y012350D01*
X039601Y012350D01*
X039611Y012375D01*
X039611Y012485D01*
X039569Y012586D01*
X039492Y012663D01*
X039391Y012705D01*
X039339Y012705D01*
X039474Y012840D01*
X039606Y013159D01*
X039606Y013505D01*
X039474Y013825D01*
X039229Y014070D01*
X038909Y014202D01*
X038563Y014202D01*
X038244Y014070D01*
X037999Y013825D01*
X037867Y013505D01*
X037867Y013159D01*
X037999Y012840D01*
X038179Y012660D01*
X035745Y012660D01*
X035742Y012663D01*
X035641Y012705D01*
X035532Y012705D01*
X035431Y012663D01*
X035426Y012659D01*
X035426Y013418D01*
X035359Y013579D01*
X035236Y013703D01*
X035074Y013770D01*
X034899Y013770D01*
X034737Y013703D01*
X034613Y013579D01*
X034546Y013418D01*
X034546Y012642D01*
X034593Y012530D01*
X034546Y012418D01*
X034546Y011642D01*
X034613Y011481D01*
X034737Y011357D01*
X034899Y011290D01*
X035074Y011290D01*
X035236Y011357D01*
X035386Y011545D02*
X038074Y011545D01*
X038069Y011703D02*
X035426Y011703D01*
X035426Y011862D02*
X037766Y011862D01*
X037907Y011862D02*
X038179Y011862D01*
X038088Y012020D02*
X039156Y012020D01*
X039104Y011703D02*
X040969Y011703D01*
X041079Y011862D02*
X038494Y011862D01*
X037584Y012020D02*
X035426Y012020D01*
X035426Y012179D02*
X035475Y012179D01*
X035698Y012179D02*
X037561Y012179D01*
X038026Y012813D02*
X035426Y012813D01*
X035426Y012971D02*
X037945Y012971D01*
X037879Y013130D02*
X035426Y013130D01*
X035426Y013288D02*
X037867Y013288D01*
X037867Y013447D02*
X035414Y013447D01*
X035334Y013605D02*
X037908Y013605D01*
X037973Y013764D02*
X035089Y013764D01*
X034883Y013764D02*
X034089Y013764D01*
X034074Y013770D02*
X033899Y013770D01*
X033737Y013703D01*
X033613Y013579D01*
X033546Y013418D01*
X033546Y012642D01*
X033593Y012530D01*
X033546Y012418D01*
X033546Y011642D01*
X033613Y011481D01*
X033737Y011357D01*
X033899Y011290D01*
X034074Y011290D01*
X034236Y011357D01*
X034359Y011481D01*
X034426Y011642D01*
X034426Y012418D01*
X034380Y012530D01*
X034426Y012642D01*
X034426Y013418D01*
X034359Y013579D01*
X034236Y013703D01*
X034074Y013770D01*
X033883Y013764D02*
X033089Y013764D01*
X033074Y013770D02*
X032899Y013770D01*
X032751Y013709D01*
X032719Y013786D01*
X032642Y013863D01*
X032541Y013905D01*
X032432Y013905D01*
X032420Y013900D01*
X032207Y013900D01*
X031461Y014645D01*
X031461Y014655D01*
X031491Y014655D01*
X031592Y014697D01*
X031655Y014760D01*
X036617Y014760D01*
X036681Y014697D01*
X036782Y014655D01*
X036891Y014655D01*
X036992Y014697D01*
X037069Y014774D01*
X037111Y014875D01*
X037111Y014985D01*
X037069Y015086D01*
X036992Y015163D01*
X036891Y015205D01*
X036782Y015205D01*
X036681Y015163D01*
X036617Y015100D01*
X031655Y015100D01*
X031592Y015163D01*
X031491Y015205D01*
X031382Y015205D01*
X031281Y015163D01*
X031203Y015086D01*
X031161Y014985D01*
X031161Y014955D01*
X031132Y014955D01*
X031031Y014913D01*
X030953Y014836D01*
X030911Y014735D01*
X030911Y014625D01*
X030953Y014524D01*
X031031Y014447D01*
X031132Y014405D01*
X031221Y014405D01*
X031868Y013757D01*
X031737Y013703D01*
X031613Y013579D01*
X031546Y013418D01*
X031546Y012642D01*
X031593Y012530D01*
X031546Y012418D01*
X031546Y011642D01*
X031613Y011481D01*
X031737Y011357D01*
X031899Y011290D01*
X032074Y011290D01*
X032236Y011357D01*
X032359Y011481D01*
X032426Y011642D01*
X032426Y012418D01*
X032380Y012530D01*
X032426Y012642D01*
X032426Y013357D01*
X032432Y013355D01*
X032541Y013355D01*
X032546Y013357D01*
X032546Y012642D01*
X032593Y012530D01*
X032546Y012418D01*
X032546Y011642D01*
X032613Y011481D01*
X032737Y011357D01*
X032899Y011290D01*
X033074Y011290D01*
X033236Y011357D01*
X033359Y011481D01*
X033426Y011642D01*
X033426Y012418D01*
X033380Y012530D01*
X033426Y012642D01*
X033426Y013418D01*
X033359Y013579D01*
X033236Y013703D01*
X033074Y013770D01*
X032883Y013764D02*
X032729Y013764D01*
X032185Y013922D02*
X038096Y013922D01*
X038270Y014081D02*
X032026Y014081D01*
X031868Y014239D02*
X043506Y014239D01*
X043506Y014081D02*
X043203Y014081D01*
X043377Y013922D02*
X043506Y013922D01*
X043499Y013764D02*
X043506Y013764D01*
X043506Y014398D02*
X031709Y014398D01*
X031551Y014556D02*
X043506Y014556D01*
X043506Y014715D02*
X037010Y014715D01*
X037110Y014873D02*
X043506Y014873D01*
X043506Y015032D02*
X037092Y015032D01*
X036927Y015190D02*
X043506Y015190D01*
X043506Y015349D02*
X030279Y015349D01*
X030269Y015324D02*
X030311Y015425D01*
X030311Y015535D01*
X030269Y015636D01*
X030192Y015713D01*
X030091Y015755D01*
X029982Y015755D01*
X029881Y015713D01*
X029817Y015650D01*
X028705Y015650D01*
X028642Y015713D01*
X028541Y015755D01*
X028432Y015755D01*
X028331Y015713D01*
X028253Y015636D01*
X028211Y015535D01*
X028211Y015425D01*
X028253Y015324D01*
X028331Y015247D01*
X028432Y015205D01*
X028541Y015205D01*
X028642Y015247D01*
X028705Y015310D01*
X029817Y015310D01*
X029881Y015247D01*
X029982Y015205D01*
X030091Y015205D01*
X030192Y015247D01*
X030269Y015324D01*
X030311Y015507D02*
X043506Y015507D01*
X043506Y015666D02*
X030240Y015666D01*
X029833Y015666D02*
X028690Y015666D01*
X028283Y015666D02*
X026028Y015666D01*
X026019Y015686D02*
X025942Y015763D01*
X025841Y015805D01*
X025732Y015805D01*
X025631Y015763D01*
X025567Y015700D01*
X025505Y015700D01*
X025442Y015763D01*
X025341Y015805D01*
X025232Y015805D01*
X025131Y015763D01*
X025053Y015686D01*
X025011Y015585D01*
X025011Y015475D01*
X025053Y015374D01*
X025131Y015297D01*
X025232Y015255D01*
X025341Y015255D01*
X025442Y015297D01*
X025505Y015360D01*
X025567Y015360D01*
X025631Y015297D01*
X025732Y015255D01*
X025841Y015255D01*
X025942Y015297D01*
X026019Y015374D01*
X026061Y015475D01*
X026061Y015585D01*
X026019Y015686D01*
X026061Y015507D02*
X028211Y015507D01*
X028243Y015349D02*
X025994Y015349D01*
X025579Y015349D02*
X025494Y015349D01*
X025482Y015005D02*
X025381Y014963D01*
X025303Y014886D01*
X025268Y014800D01*
X020355Y014800D01*
X020292Y014863D01*
X020191Y014905D01*
X020082Y014905D01*
X019981Y014863D01*
X019903Y014786D01*
X019861Y014685D01*
X019861Y014575D01*
X019903Y014474D01*
X019981Y014397D01*
X020082Y014355D01*
X020191Y014355D01*
X020292Y014397D01*
X020355Y014460D01*
X025470Y014460D01*
X025482Y014455D01*
X025591Y014455D01*
X025692Y014497D01*
X025769Y014574D01*
X025811Y014675D01*
X025811Y014785D01*
X025769Y014886D01*
X025692Y014963D01*
X025591Y015005D01*
X025482Y015005D01*
X025298Y014873D02*
X020268Y014873D01*
X020004Y014873D02*
X017911Y014873D01*
X017911Y015032D02*
X031181Y015032D01*
X031345Y015190D02*
X017911Y015190D01*
X017906Y015349D02*
X025079Y015349D01*
X025011Y015507D02*
X017906Y015507D01*
X017906Y015666D02*
X025045Y015666D01*
X025775Y014873D02*
X029940Y014873D01*
X029917Y014850D02*
X029916Y014850D01*
X029366Y014300D01*
X027916Y014300D01*
X027521Y013905D01*
X027432Y013905D01*
X027331Y013863D01*
X027253Y013786D01*
X027221Y013708D01*
X027163Y013737D01*
X027094Y013760D01*
X027023Y013771D01*
X027000Y013771D01*
X027000Y013044D01*
X026973Y013044D01*
X026973Y013771D01*
X026950Y013771D01*
X026878Y013760D01*
X026810Y013737D01*
X026745Y013704D01*
X026686Y013662D01*
X026635Y013611D01*
X026592Y013552D01*
X026560Y013487D01*
X026537Y013418D01*
X026526Y013347D01*
X026526Y013044D01*
X026973Y013044D01*
X026973Y013016D01*
X027000Y013016D01*
X027000Y012289D01*
X027000Y012044D01*
X026973Y012044D01*
X026973Y013016D01*
X026526Y013016D01*
X026526Y012713D01*
X026537Y012642D01*
X026560Y012573D01*
X026581Y012530D01*
X026560Y012487D01*
X026537Y012418D01*
X026526Y012347D01*
X026526Y012044D01*
X026973Y012044D01*
X026973Y012016D01*
X027000Y012016D01*
X027000Y011289D01*
X027023Y011289D01*
X027094Y011300D01*
X027163Y011323D01*
X027228Y011356D01*
X027286Y011398D01*
X027338Y011449D01*
X027380Y011508D01*
X027413Y011573D01*
X027435Y011642D01*
X027447Y011713D01*
X027447Y012016D01*
X027000Y012016D01*
X027000Y012044D01*
X027447Y012044D01*
X027447Y012347D01*
X027435Y012418D01*
X027413Y012487D01*
X027391Y012530D01*
X027413Y012573D01*
X027435Y012642D01*
X027447Y012713D01*
X027447Y013016D01*
X027000Y013016D01*
X027000Y013044D01*
X027447Y013044D01*
X027447Y013347D01*
X027446Y013355D01*
X027541Y013355D01*
X027566Y013365D01*
X027566Y012666D01*
X027622Y012530D01*
X027566Y012394D01*
X027566Y011666D01*
X027630Y011511D01*
X027748Y011393D01*
X027903Y011329D01*
X028070Y011329D01*
X028224Y011393D01*
X028343Y011511D01*
X028407Y011666D01*
X028407Y012394D01*
X028351Y012530D01*
X028407Y012666D01*
X028407Y013394D01*
X028343Y013549D01*
X028224Y013667D01*
X028070Y013731D01*
X027903Y013731D01*
X027775Y013678D01*
X028057Y013960D01*
X029507Y013960D01*
X029606Y014060D01*
X029990Y014443D01*
X030082Y014405D01*
X030191Y014405D01*
X030292Y014447D01*
X030369Y014524D01*
X030411Y014625D01*
X030411Y014735D01*
X030369Y014836D01*
X030292Y014913D01*
X030191Y014955D01*
X030082Y014955D01*
X029981Y014913D01*
X029917Y014850D01*
X029780Y014715D02*
X025811Y014715D01*
X025751Y014556D02*
X029622Y014556D01*
X029463Y014398D02*
X020293Y014398D01*
X019980Y014398D02*
X017906Y014398D01*
X017906Y014556D02*
X019869Y014556D01*
X019874Y014715D02*
X017906Y014715D01*
X017906Y014239D02*
X020728Y014239D01*
X020569Y014081D02*
X017911Y014081D01*
X017911Y013922D02*
X020411Y013922D01*
X020252Y013764D02*
X017906Y013764D01*
X017906Y013605D02*
X020094Y013605D01*
X019935Y013447D02*
X017906Y013447D01*
X017906Y013288D02*
X019777Y013288D01*
X019646Y013130D02*
X017911Y013130D01*
X017911Y012971D02*
X019626Y012971D01*
X019626Y012813D02*
X017906Y012813D01*
X017906Y012654D02*
X019626Y012654D01*
X019626Y012496D02*
X017906Y012496D01*
X017906Y012337D02*
X019626Y012337D01*
X019626Y012179D02*
X017911Y012179D01*
X017911Y012020D02*
X019626Y012020D01*
X019626Y011862D02*
X017972Y011862D01*
X018131Y011703D02*
X019626Y011703D01*
X020146Y011703D02*
X020566Y011703D01*
X020566Y011862D02*
X020146Y011862D01*
X020146Y012020D02*
X020566Y012020D01*
X020566Y012179D02*
X020146Y012179D01*
X020146Y012337D02*
X020566Y012337D01*
X020608Y012496D02*
X020146Y012496D01*
X020146Y012654D02*
X020571Y012654D01*
X020566Y012813D02*
X020146Y012813D01*
X020195Y012971D02*
X020566Y012971D01*
X020566Y013130D02*
X020354Y013130D01*
X020512Y013288D02*
X020566Y013288D01*
X021286Y013605D02*
X021686Y013605D01*
X021630Y013549D02*
X021566Y013394D01*
X021566Y012666D01*
X021622Y012530D01*
X021566Y012394D01*
X021566Y011666D01*
X021630Y011511D01*
X021748Y011393D01*
X021903Y011329D01*
X022070Y011329D01*
X022224Y011393D01*
X022343Y011511D01*
X022407Y011666D01*
X022407Y012394D01*
X022351Y012530D01*
X022407Y012666D01*
X022407Y013394D01*
X022343Y013549D01*
X022224Y013667D01*
X022070Y013731D01*
X021903Y013731D01*
X021748Y013667D01*
X021630Y013549D01*
X021587Y013447D02*
X021385Y013447D01*
X021407Y013288D02*
X021566Y013288D01*
X021566Y013130D02*
X021407Y013130D01*
X021407Y012971D02*
X021566Y012971D01*
X021566Y012813D02*
X021407Y012813D01*
X021402Y012654D02*
X021571Y012654D01*
X021608Y012496D02*
X021365Y012496D01*
X021407Y012337D02*
X021566Y012337D01*
X021566Y012179D02*
X021407Y012179D01*
X021407Y012020D02*
X021566Y012020D01*
X021566Y011862D02*
X021407Y011862D01*
X021407Y011703D02*
X021566Y011703D01*
X021616Y011545D02*
X021357Y011545D01*
X021208Y011386D02*
X021765Y011386D01*
X022208Y011386D02*
X022765Y011386D01*
X022748Y011393D02*
X022903Y011329D01*
X023070Y011329D01*
X023224Y011393D01*
X023343Y011511D01*
X023407Y011666D01*
X023407Y012394D01*
X023351Y012530D01*
X023407Y012666D01*
X023407Y013394D01*
X023343Y013549D01*
X023224Y013667D01*
X023070Y013731D01*
X022903Y013731D01*
X022748Y013667D01*
X022630Y013549D01*
X022566Y013394D01*
X022566Y012666D01*
X022622Y012530D01*
X022566Y012394D01*
X022566Y011666D01*
X022630Y011511D01*
X022748Y011393D01*
X022616Y011545D02*
X022357Y011545D01*
X022407Y011703D02*
X022566Y011703D01*
X022566Y011862D02*
X022407Y011862D01*
X022407Y012020D02*
X022566Y012020D01*
X022566Y012179D02*
X022407Y012179D01*
X022407Y012337D02*
X022566Y012337D01*
X022608Y012496D02*
X022365Y012496D01*
X022402Y012654D02*
X022571Y012654D01*
X022566Y012813D02*
X022407Y012813D01*
X022407Y012971D02*
X022566Y012971D01*
X022566Y013130D02*
X022407Y013130D01*
X022407Y013288D02*
X022566Y013288D01*
X022587Y013447D02*
X022385Y013447D01*
X022286Y013605D02*
X022686Y013605D01*
X023286Y013605D02*
X023686Y013605D01*
X023630Y013549D02*
X023566Y013394D01*
X023566Y012666D01*
X023622Y012530D01*
X023566Y012394D01*
X023566Y011666D01*
X023630Y011511D01*
X023748Y011393D01*
X023903Y011329D01*
X024070Y011329D01*
X024224Y011393D01*
X024343Y011511D01*
X024407Y011666D01*
X024407Y012394D01*
X024351Y012530D01*
X024407Y012666D01*
X024407Y013394D01*
X024343Y013549D01*
X024224Y013667D01*
X024070Y013731D01*
X023903Y013731D01*
X023748Y013667D01*
X023630Y013549D01*
X023587Y013447D02*
X023385Y013447D01*
X023407Y013288D02*
X023566Y013288D01*
X023566Y013130D02*
X023407Y013130D01*
X023407Y012971D02*
X023566Y012971D01*
X023566Y012813D02*
X023407Y012813D01*
X023402Y012654D02*
X023571Y012654D01*
X023608Y012496D02*
X023365Y012496D01*
X023407Y012337D02*
X023566Y012337D01*
X023566Y012179D02*
X023407Y012179D01*
X023407Y012020D02*
X023566Y012020D01*
X023566Y011862D02*
X023407Y011862D01*
X023407Y011703D02*
X023566Y011703D01*
X023616Y011545D02*
X023357Y011545D01*
X023208Y011386D02*
X023765Y011386D01*
X024208Y011386D02*
X024765Y011386D01*
X024616Y011545D02*
X024357Y011545D01*
X024407Y011703D02*
X024566Y011703D01*
X024566Y011862D02*
X024407Y011862D01*
X024407Y012020D02*
X024566Y012020D01*
X024566Y012179D02*
X024407Y012179D01*
X024407Y012337D02*
X024566Y012337D01*
X024608Y012496D02*
X024365Y012496D01*
X024402Y012654D02*
X024571Y012654D01*
X024566Y012813D02*
X024407Y012813D01*
X024407Y012971D02*
X024566Y012971D01*
X024566Y013130D02*
X024407Y013130D01*
X024407Y013288D02*
X024566Y013288D01*
X024452Y013447D02*
X024385Y013447D01*
X024294Y013605D02*
X024286Y013605D01*
X024135Y013764D02*
X020988Y013764D01*
X020616Y011545D02*
X020461Y011545D01*
X020861Y011069D02*
X043506Y011069D01*
X043506Y010911D02*
X020806Y010911D01*
X021066Y010300D02*
X020746Y010167D01*
X020501Y009923D01*
X020369Y009603D01*
X020369Y009257D01*
X020501Y008937D01*
X020746Y008693D01*
X021066Y008560D01*
X021412Y008560D01*
X021731Y008693D01*
X021976Y008937D01*
X022108Y009257D01*
X022108Y009603D01*
X021976Y009923D01*
X021731Y010167D01*
X021412Y010300D01*
X021066Y010300D01*
X021010Y010277D02*
X018311Y010277D01*
X018270Y010435D02*
X043506Y010435D01*
X043506Y010277D02*
X029109Y010277D01*
X029131Y010267D02*
X028812Y010400D01*
X028466Y010400D01*
X028146Y010267D01*
X027901Y010023D01*
X027769Y009703D01*
X027769Y009357D01*
X027901Y009037D01*
X028146Y008793D01*
X028466Y008660D01*
X028812Y008660D01*
X029131Y008793D01*
X029376Y009037D01*
X029508Y009357D01*
X029508Y009703D01*
X029376Y010023D01*
X029131Y010267D01*
X029281Y010118D02*
X043506Y010118D01*
X043506Y009960D02*
X029402Y009960D01*
X029468Y009801D02*
X043506Y009801D01*
X043506Y009643D02*
X029508Y009643D01*
X029508Y009484D02*
X043503Y009484D01*
X043497Y009326D02*
X029495Y009326D01*
X029430Y009167D02*
X043490Y009167D01*
X043467Y009009D02*
X029347Y009009D01*
X029189Y008850D02*
X043442Y008850D01*
X043417Y008692D02*
X028887Y008692D01*
X028390Y008692D02*
X021729Y008692D01*
X021889Y008850D02*
X025377Y008850D01*
X025353Y008874D02*
X025431Y008797D01*
X025532Y008755D01*
X025641Y008755D01*
X025742Y008797D01*
X025805Y008860D01*
X027267Y008860D01*
X027331Y008797D01*
X027432Y008755D01*
X027541Y008755D01*
X027642Y008797D01*
X027719Y008874D01*
X027761Y008975D01*
X027761Y009085D01*
X027719Y009186D01*
X027642Y009263D01*
X027541Y009305D01*
X027432Y009305D01*
X027331Y009263D01*
X027267Y009200D01*
X025805Y009200D01*
X025742Y009263D01*
X025641Y009305D01*
X025532Y009305D01*
X025431Y009263D01*
X025353Y009186D01*
X025311Y009085D01*
X025311Y008975D01*
X025353Y008874D01*
X025311Y009009D02*
X022005Y009009D01*
X022071Y009167D02*
X025345Y009167D01*
X025795Y008850D02*
X027277Y008850D01*
X027695Y008850D02*
X028089Y008850D01*
X027930Y009009D02*
X027761Y009009D01*
X027727Y009167D02*
X027848Y009167D01*
X027782Y009326D02*
X022108Y009326D01*
X022108Y009484D02*
X027769Y009484D01*
X027769Y009643D02*
X022092Y009643D01*
X022026Y009801D02*
X027809Y009801D01*
X027875Y009960D02*
X021939Y009960D01*
X021781Y010118D02*
X027997Y010118D01*
X028168Y010277D02*
X021468Y010277D01*
X020697Y010118D02*
X018263Y010118D01*
X017535Y011069D02*
X006180Y011069D01*
X005936Y011228D02*
X017511Y011228D01*
X017092Y011703D02*
X015587Y011703D01*
X015579Y011695D02*
X015824Y011940D01*
X015956Y012259D01*
X015956Y012605D01*
X015824Y012925D01*
X015579Y013170D01*
X015259Y013302D01*
X014913Y013302D01*
X014594Y013170D01*
X014349Y012925D01*
X014217Y012605D01*
X014217Y012259D01*
X014349Y011940D01*
X014594Y011695D01*
X014913Y011563D01*
X015259Y011563D01*
X015579Y011695D01*
X015745Y011862D02*
X016962Y011862D01*
X016962Y012020D02*
X015857Y012020D01*
X015923Y012179D02*
X016962Y012179D01*
X016966Y012337D02*
X015956Y012337D01*
X015956Y012496D02*
X016966Y012496D01*
X016966Y012654D02*
X015936Y012654D01*
X015870Y012813D02*
X016966Y012813D01*
X016962Y012971D02*
X015778Y012971D01*
X015619Y013130D02*
X016962Y013130D01*
X016966Y013288D02*
X015293Y013288D01*
X014879Y013288D02*
X011293Y013288D01*
X011619Y013130D02*
X014553Y013130D01*
X014395Y012971D02*
X011778Y012971D01*
X011870Y012813D02*
X014302Y012813D01*
X014237Y012654D02*
X011936Y012654D01*
X011956Y012496D02*
X014217Y012496D01*
X014217Y012337D02*
X011956Y012337D01*
X011923Y012179D02*
X014250Y012179D01*
X014316Y012020D02*
X011857Y012020D01*
X011745Y011862D02*
X014427Y011862D01*
X014586Y011703D02*
X011587Y011703D01*
X010427Y011862D02*
X002371Y011862D01*
X002371Y012020D02*
X010316Y012020D01*
X010250Y012179D02*
X002372Y012179D01*
X002372Y012337D02*
X010217Y012337D01*
X010217Y012496D02*
X002373Y012496D01*
X002373Y012654D02*
X010237Y012654D01*
X010302Y012813D02*
X002373Y012813D01*
X002374Y012971D02*
X010395Y012971D01*
X010553Y013130D02*
X002374Y013130D01*
X002374Y013288D02*
X010879Y013288D01*
X007836Y016141D02*
X016745Y016141D01*
X016622Y016300D02*
X014896Y016300D01*
X014793Y016934D02*
X016962Y016934D01*
X016962Y017092D02*
X011713Y017092D01*
X011761Y016934D02*
X014580Y016934D01*
X013992Y017747D02*
X014069Y017824D01*
X014111Y017925D01*
X014111Y018035D01*
X014069Y018136D01*
X013992Y018213D01*
X013891Y018255D01*
X013861Y018255D01*
X013861Y018285D01*
X013819Y018386D01*
X013742Y018463D01*
X013641Y018505D01*
X013532Y018505D01*
X013431Y018463D01*
X013353Y018386D01*
X013318Y018300D01*
X012105Y018300D01*
X012069Y018386D01*
X011992Y018463D01*
X011891Y018505D01*
X011782Y018505D01*
X011681Y018463D01*
X011603Y018386D01*
X011561Y018285D01*
X011561Y018247D01*
X011541Y018255D01*
X011432Y018255D01*
X011331Y018213D01*
X011253Y018136D01*
X011211Y018035D01*
X011211Y017925D01*
X011253Y017824D01*
X011331Y017747D01*
X011432Y017705D01*
X011541Y017705D01*
X011642Y017747D01*
X011705Y017810D01*
X013617Y017810D01*
X013681Y017747D01*
X013782Y017705D01*
X013891Y017705D01*
X013992Y017747D01*
X013942Y017726D02*
X016966Y017726D01*
X016966Y017568D02*
X009137Y017568D01*
X009124Y017535D02*
X009256Y017855D01*
X009256Y018201D01*
X009124Y018520D01*
X008879Y018765D01*
X008770Y018810D01*
X012566Y018810D01*
X012666Y018710D01*
X013117Y018710D01*
X013181Y018647D01*
X013282Y018605D01*
X013391Y018605D01*
X013492Y018647D01*
X013569Y018724D01*
X013611Y018825D01*
X013611Y018935D01*
X013569Y019036D01*
X013492Y019113D01*
X013391Y019155D01*
X013282Y019155D01*
X013181Y019113D01*
X013117Y019050D01*
X013101Y019050D01*
X013111Y019075D01*
X013111Y019185D01*
X013069Y019286D01*
X012992Y019363D01*
X012891Y019405D01*
X012782Y019405D01*
X012681Y019363D01*
X012617Y019300D01*
X011634Y019300D01*
X011824Y019490D01*
X011956Y019809D01*
X011956Y020155D01*
X011824Y020475D01*
X011579Y020720D01*
X011259Y020852D01*
X010913Y020852D01*
X010594Y020720D01*
X010349Y020475D01*
X010217Y020155D01*
X010217Y019809D01*
X010349Y019490D01*
X010539Y019300D01*
X007105Y019300D01*
X007042Y019363D01*
X006941Y019405D01*
X006832Y019405D01*
X006731Y019363D01*
X006653Y019286D01*
X006611Y019185D01*
X006611Y019075D01*
X006622Y019050D01*
X006605Y019050D01*
X006542Y019113D01*
X006441Y019155D01*
X006332Y019155D01*
X006231Y019113D01*
X006153Y019036D01*
X006111Y018935D01*
X006111Y018825D01*
X006153Y018724D01*
X006231Y018647D01*
X006332Y018605D01*
X006441Y018605D01*
X006542Y018647D01*
X006605Y018710D01*
X007057Y018710D01*
X007156Y018810D01*
X007157Y018810D01*
X008002Y018810D01*
X007894Y018765D01*
X007649Y018520D01*
X007517Y018201D01*
X007517Y018202D02*
X005256Y018202D01*
X005256Y018201D02*
X005124Y018520D01*
X004879Y018765D01*
X004559Y018897D01*
X004213Y018897D01*
X003894Y018765D01*
X003649Y018520D01*
X003517Y018201D01*
X003517Y018202D02*
X002386Y018202D01*
X002386Y018360D02*
X003583Y018360D01*
X003648Y018519D02*
X002387Y018519D01*
X002387Y018677D02*
X003806Y018677D01*
X004064Y018836D02*
X002388Y018836D01*
X002388Y018994D02*
X006136Y018994D01*
X006111Y018836D02*
X004709Y018836D01*
X004967Y018677D02*
X006200Y018677D01*
X006572Y018677D02*
X007806Y018677D01*
X007648Y018519D02*
X005124Y018519D01*
X005190Y018360D02*
X007583Y018360D01*
X007517Y018201D02*
X007517Y017855D01*
X007649Y017535D01*
X007894Y017290D01*
X008213Y017158D01*
X008559Y017158D01*
X008879Y017290D01*
X009124Y017535D01*
X008998Y017409D02*
X016966Y017409D01*
X016966Y017251D02*
X008783Y017251D01*
X009203Y017726D02*
X011381Y017726D01*
X011592Y017726D02*
X013731Y017726D01*
X014094Y017885D02*
X016962Y017885D01*
X016962Y018043D02*
X014108Y018043D01*
X014004Y018202D02*
X016962Y018202D01*
X016966Y018360D02*
X013830Y018360D01*
X013522Y018677D02*
X016966Y018677D01*
X016966Y018519D02*
X009124Y018519D01*
X009190Y018360D02*
X011592Y018360D01*
X011319Y018202D02*
X009256Y018202D01*
X009256Y018043D02*
X011215Y018043D01*
X011228Y017885D02*
X009256Y017885D01*
X008967Y018677D02*
X013150Y018677D01*
X013342Y018360D02*
X012080Y018360D01*
X011645Y019311D02*
X012628Y019311D01*
X013044Y019311D02*
X014528Y019311D01*
X014594Y019245D02*
X014913Y019113D01*
X015259Y019113D01*
X015579Y019245D01*
X015824Y019490D01*
X015956Y019809D01*
X015956Y020155D01*
X015824Y020475D01*
X015579Y020720D01*
X015259Y020852D01*
X014913Y020852D01*
X014594Y020720D01*
X014349Y020475D01*
X014217Y020155D01*
X014217Y019809D01*
X014349Y019490D01*
X014594Y019245D01*
X014817Y019153D02*
X013397Y019153D01*
X013276Y019153D02*
X013111Y019153D01*
X013587Y018994D02*
X016962Y018994D01*
X016962Y018836D02*
X013611Y018836D01*
X014369Y019470D02*
X011803Y019470D01*
X011881Y019628D02*
X014292Y019628D01*
X014226Y019787D02*
X011947Y019787D01*
X011956Y019945D02*
X014217Y019945D01*
X014217Y020104D02*
X011956Y020104D01*
X011912Y020262D02*
X014261Y020262D01*
X014326Y020421D02*
X011846Y020421D01*
X011720Y020579D02*
X014453Y020579D01*
X014637Y020738D02*
X011536Y020738D01*
X010637Y020738D02*
X002392Y020738D01*
X002393Y020896D02*
X016962Y020896D01*
X016962Y021055D02*
X002393Y021055D01*
X002393Y021213D02*
X016962Y021213D01*
X016966Y021372D02*
X002394Y021372D01*
X002394Y021530D02*
X016966Y021530D01*
X016962Y021689D02*
X002394Y021689D01*
X002395Y021847D02*
X014094Y021847D01*
X014061Y022006D02*
X013751Y022006D01*
X013422Y022006D02*
X002395Y022006D01*
X002396Y022164D02*
X013316Y022164D01*
X013327Y022323D02*
X002396Y022323D01*
X002396Y022481D02*
X013474Y022481D01*
X013699Y022481D02*
X017724Y022481D01*
X017949Y022481D02*
X027461Y022481D01*
X027461Y022475D02*
X027503Y022374D01*
X027581Y022297D01*
X027682Y022255D01*
X027791Y022255D01*
X027892Y022297D01*
X027955Y022360D01*
X029017Y022360D01*
X029022Y022355D01*
X029003Y022336D01*
X028961Y022235D01*
X028961Y022125D01*
X029003Y022024D01*
X029081Y021947D01*
X029182Y021905D01*
X029291Y021905D01*
X029392Y021947D01*
X029455Y022010D01*
X030017Y022010D01*
X030081Y021947D01*
X030182Y021905D01*
X030291Y021905D01*
X030392Y021947D01*
X030469Y022024D01*
X030511Y022125D01*
X030511Y022235D01*
X030469Y022336D01*
X030392Y022413D01*
X030291Y022455D01*
X030182Y022455D01*
X030081Y022413D01*
X030017Y022350D01*
X029455Y022350D01*
X029450Y022355D01*
X029469Y022374D01*
X029511Y022475D01*
X029511Y022585D01*
X029469Y022686D01*
X029392Y022763D01*
X029291Y022805D01*
X029182Y022805D01*
X029081Y022763D01*
X029017Y022700D01*
X027955Y022700D01*
X027892Y022763D01*
X027791Y022805D01*
X027682Y022805D01*
X027581Y022763D01*
X027503Y022686D01*
X027461Y022585D01*
X027461Y022475D01*
X027484Y022640D02*
X002397Y022640D01*
X002397Y022798D02*
X027665Y022798D01*
X027808Y022798D02*
X029165Y022798D01*
X029308Y022798D02*
X034639Y022798D01*
X034591Y022846D02*
X034852Y022585D01*
X035221Y022585D01*
X035481Y022846D01*
X035481Y023214D01*
X035296Y023400D01*
X035777Y023400D01*
X035591Y023214D01*
X035591Y022846D01*
X035852Y022585D01*
X036221Y022585D01*
X036436Y022800D01*
X041677Y022800D01*
X041681Y022797D01*
X041782Y022755D01*
X041891Y022755D01*
X041992Y022797D01*
X042069Y022874D01*
X042111Y022975D01*
X042111Y023085D01*
X042069Y023186D01*
X041992Y023263D01*
X041891Y023305D01*
X041782Y023305D01*
X041681Y023263D01*
X041677Y023260D01*
X036436Y023260D01*
X036245Y023450D01*
X036269Y023474D01*
X036311Y023575D01*
X036311Y023685D01*
X036301Y023710D01*
X036617Y023710D01*
X036681Y023647D01*
X036782Y023605D01*
X036891Y023605D01*
X036992Y023647D01*
X037069Y023724D01*
X037111Y023825D01*
X037111Y023935D01*
X037069Y024036D01*
X036992Y024113D01*
X036891Y024155D01*
X036782Y024155D01*
X036681Y024113D01*
X036617Y024050D01*
X035866Y024050D01*
X035816Y024000D01*
X031005Y024000D01*
X030969Y024086D01*
X030892Y024163D01*
X030791Y024205D01*
X030682Y024205D01*
X030581Y024163D01*
X030503Y024086D01*
X030461Y023985D01*
X030461Y023875D01*
X030468Y023860D01*
X029655Y023860D01*
X029661Y023875D01*
X029661Y023985D01*
X029619Y024086D01*
X029600Y024105D01*
X029619Y024124D01*
X029661Y024225D01*
X029661Y024335D01*
X029619Y024436D01*
X029542Y024513D01*
X029441Y024555D01*
X029332Y024555D01*
X029231Y024513D01*
X029167Y024450D01*
X026105Y024450D01*
X026042Y024513D01*
X025941Y024555D01*
X025832Y024555D01*
X025731Y024513D01*
X025653Y024436D01*
X025611Y024335D01*
X025611Y024225D01*
X025653Y024124D01*
X025731Y024047D01*
X025832Y024005D01*
X025941Y024005D01*
X026042Y024047D01*
X026105Y024110D01*
X026922Y024110D01*
X026911Y024085D01*
X026911Y023975D01*
X026953Y023874D01*
X027031Y023797D01*
X027132Y023755D01*
X027241Y023755D01*
X027342Y023797D01*
X027405Y023860D01*
X027767Y023860D01*
X027831Y023797D01*
X027932Y023755D01*
X028041Y023755D01*
X028142Y023797D01*
X028219Y023874D01*
X028261Y023975D01*
X028261Y024085D01*
X028251Y024110D01*
X028577Y024110D01*
X028553Y024086D01*
X028511Y023985D01*
X028511Y023875D01*
X028553Y023774D01*
X028631Y023697D01*
X028732Y023655D01*
X028841Y023655D01*
X028861Y023663D01*
X028861Y023575D01*
X028903Y023474D01*
X028981Y023397D01*
X029082Y023355D01*
X029191Y023355D01*
X029292Y023397D01*
X029295Y023400D01*
X034777Y023400D01*
X034591Y023214D01*
X034591Y022846D01*
X034591Y022957D02*
X002397Y022957D01*
X002398Y023115D02*
X034591Y023115D01*
X034650Y023274D02*
X002398Y023274D01*
X002399Y023432D02*
X028945Y023432D01*
X028861Y023591D02*
X002399Y023591D01*
X002399Y023749D02*
X028578Y023749D01*
X028511Y023908D02*
X028233Y023908D01*
X028261Y024066D02*
X028545Y024066D01*
X029299Y024542D02*
X025974Y024542D01*
X025799Y024542D02*
X002401Y024542D01*
X002402Y024700D02*
X007642Y024700D01*
X007653Y024674D02*
X007731Y024597D01*
X007832Y024555D01*
X007941Y024555D01*
X008042Y024597D01*
X008105Y024660D01*
X011557Y024660D01*
X011656Y024760D01*
X012107Y025210D01*
X017318Y025210D01*
X017353Y025124D01*
X017431Y025047D01*
X017532Y025005D01*
X017641Y025005D01*
X017742Y025047D01*
X017819Y025124D01*
X017861Y025225D01*
X017861Y025255D01*
X017891Y025255D01*
X017992Y025297D01*
X018069Y025374D01*
X018111Y025475D01*
X018111Y025585D01*
X018069Y025686D01*
X018050Y025705D01*
X018069Y025724D01*
X018111Y025825D01*
X018111Y025935D01*
X018069Y026036D01*
X017992Y026113D01*
X017891Y026155D01*
X017782Y026155D01*
X017681Y026113D01*
X017617Y026050D01*
X017205Y026050D01*
X017142Y026113D01*
X017041Y026155D01*
X016932Y026155D01*
X016831Y026113D01*
X016753Y026036D01*
X016711Y025935D01*
X016711Y025825D01*
X016753Y025724D01*
X016777Y025700D01*
X012055Y025700D01*
X011992Y025763D01*
X011891Y025805D01*
X011782Y025805D01*
X011681Y025763D01*
X011603Y025686D01*
X011561Y025585D01*
X011561Y025475D01*
X011603Y025374D01*
X011681Y025297D01*
X011703Y025287D01*
X011416Y025000D01*
X009189Y025000D01*
X009374Y025185D01*
X009506Y025505D01*
X009506Y025851D01*
X009374Y026170D01*
X009129Y026415D01*
X008809Y026547D01*
X008463Y026547D01*
X008144Y026415D01*
X007899Y026170D01*
X007767Y025851D01*
X007767Y025505D01*
X007899Y025185D01*
X008006Y025078D01*
X007941Y025105D01*
X007832Y025105D01*
X007731Y025063D01*
X007653Y024986D01*
X007611Y024885D01*
X007611Y024775D01*
X007653Y024674D01*
X007611Y024859D02*
X004932Y024859D01*
X004809Y024808D02*
X005129Y024940D01*
X005374Y025185D01*
X005506Y025505D01*
X005506Y025851D01*
X005374Y026170D01*
X005129Y026415D01*
X004809Y026547D01*
X004463Y026547D01*
X004144Y026415D01*
X003899Y026170D01*
X003767Y025851D01*
X003767Y025505D01*
X003899Y025185D01*
X004144Y024940D01*
X004463Y024808D01*
X004809Y024808D01*
X005206Y025017D02*
X007684Y025017D01*
X007908Y025176D02*
X005364Y025176D01*
X005435Y025334D02*
X007837Y025334D01*
X007772Y025493D02*
X005501Y025493D01*
X005506Y025651D02*
X007767Y025651D01*
X007767Y025810D02*
X005506Y025810D01*
X005457Y025968D02*
X007815Y025968D01*
X007881Y026127D02*
X005392Y026127D01*
X005259Y026285D02*
X008014Y026285D01*
X008213Y026444D02*
X005060Y026444D01*
X004213Y026444D02*
X002406Y026444D01*
X002406Y026602D02*
X027468Y026602D01*
X027461Y026585D02*
X027461Y026475D01*
X027503Y026374D01*
X027581Y026297D01*
X027682Y026255D01*
X027791Y026255D01*
X027892Y026297D01*
X027955Y026360D01*
X039317Y026360D01*
X039381Y026297D01*
X039482Y026255D01*
X039591Y026255D01*
X039692Y026297D01*
X039769Y026374D01*
X039811Y026475D01*
X039811Y026585D01*
X039769Y026686D01*
X039692Y026763D01*
X039591Y026805D01*
X039482Y026805D01*
X039381Y026763D01*
X039317Y026700D01*
X027955Y026700D01*
X027892Y026763D01*
X027851Y026780D01*
X027892Y026797D01*
X027955Y026860D01*
X029767Y026860D01*
X029831Y026797D01*
X029932Y026755D01*
X030041Y026755D01*
X030142Y026797D01*
X030219Y026874D01*
X030261Y026975D01*
X030261Y027085D01*
X030219Y027186D01*
X030142Y027263D01*
X030041Y027305D01*
X029932Y027305D01*
X029831Y027263D01*
X029767Y027200D01*
X027955Y027200D01*
X027892Y027263D01*
X027791Y027305D01*
X027682Y027305D01*
X027581Y027263D01*
X027503Y027186D01*
X027461Y027085D01*
X027461Y026975D01*
X027503Y026874D01*
X027581Y026797D01*
X027621Y026780D01*
X027581Y026763D01*
X027503Y026686D01*
X027461Y026585D01*
X027474Y026444D02*
X009060Y026444D01*
X009259Y026285D02*
X027609Y026285D01*
X027864Y026285D02*
X039409Y026285D01*
X039664Y026285D02*
X043506Y026285D01*
X043506Y026127D02*
X017960Y026127D01*
X018097Y025968D02*
X043506Y025968D01*
X043506Y025810D02*
X018105Y025810D01*
X018084Y025651D02*
X043506Y025651D01*
X043506Y025493D02*
X025813Y025493D01*
X025792Y025513D02*
X025691Y025555D01*
X025582Y025555D01*
X025481Y025513D01*
X025417Y025450D01*
X018855Y025450D01*
X018792Y025513D01*
X018691Y025555D01*
X018582Y025555D01*
X018481Y025513D01*
X018403Y025436D01*
X018361Y025335D01*
X018361Y025225D01*
X018403Y025124D01*
X018422Y025105D01*
X018403Y025086D01*
X018361Y024985D01*
X018361Y024875D01*
X018403Y024774D01*
X018481Y024697D01*
X018582Y024655D01*
X018691Y024655D01*
X018792Y024697D01*
X018869Y024774D01*
X018911Y024875D01*
X018911Y024960D01*
X025366Y024960D01*
X025466Y024860D01*
X026717Y024860D01*
X026781Y024797D01*
X026882Y024755D01*
X026991Y024755D01*
X027092Y024797D01*
X027169Y024874D01*
X027211Y024975D01*
X027211Y025085D01*
X027169Y025186D01*
X027092Y025263D01*
X026991Y025305D01*
X026882Y025305D01*
X026781Y025263D01*
X026717Y025200D01*
X025901Y025200D01*
X025911Y025225D01*
X025911Y025335D01*
X025869Y025436D01*
X025792Y025513D01*
X025911Y025334D02*
X043506Y025334D01*
X043506Y025176D02*
X027174Y025176D01*
X027211Y025017D02*
X043506Y025017D01*
X043506Y024859D02*
X027154Y024859D01*
X026719Y024859D02*
X018904Y024859D01*
X018795Y024700D02*
X043506Y024700D01*
X043506Y024542D02*
X029474Y024542D01*
X029641Y024383D02*
X043506Y024383D01*
X043506Y024225D02*
X029661Y024225D01*
X029628Y024066D02*
X030495Y024066D01*
X030461Y023908D02*
X029661Y023908D01*
X029489Y022640D02*
X034797Y022640D01*
X034852Y022475D02*
X034591Y022214D01*
X034591Y021846D01*
X034852Y021585D01*
X035221Y021585D01*
X035481Y021846D01*
X035481Y022214D01*
X035221Y022475D01*
X034852Y022475D01*
X034699Y022323D02*
X030475Y022323D01*
X030511Y022164D02*
X034591Y022164D01*
X034591Y022006D02*
X030451Y022006D01*
X030022Y022006D02*
X029451Y022006D01*
X029022Y022006D02*
X018001Y022006D01*
X017911Y021847D02*
X027937Y021847D01*
X027953Y021886D02*
X027911Y021785D01*
X027911Y021675D01*
X027953Y021574D01*
X027956Y021571D01*
X027956Y021389D01*
X027953Y021386D01*
X027911Y021285D01*
X027911Y021175D01*
X027922Y021150D01*
X025555Y021150D01*
X025492Y021213D01*
X025391Y021255D01*
X025282Y021255D01*
X025181Y021213D01*
X025103Y021136D01*
X025061Y021035D01*
X025061Y020925D01*
X025103Y020824D01*
X025122Y020805D01*
X025103Y020786D01*
X025061Y020685D01*
X025061Y020575D01*
X025103Y020474D01*
X025181Y020397D01*
X025282Y020355D01*
X025391Y020355D01*
X025492Y020397D01*
X025569Y020474D01*
X025611Y020575D01*
X025611Y020660D01*
X027072Y020660D01*
X027061Y020635D01*
X027061Y020525D01*
X027103Y020424D01*
X027181Y020347D01*
X027282Y020305D01*
X027391Y020305D01*
X027492Y020347D01*
X027555Y020410D01*
X028017Y020410D01*
X028081Y020347D01*
X028182Y020305D01*
X028291Y020305D01*
X028392Y020347D01*
X028469Y020424D01*
X028511Y020525D01*
X028511Y020635D01*
X028501Y020660D01*
X029666Y020660D01*
X029666Y020660D01*
X029766Y020560D01*
X030767Y020560D01*
X030831Y020497D01*
X030932Y020455D01*
X031041Y020455D01*
X031142Y020497D01*
X031219Y020574D01*
X031261Y020675D01*
X031261Y020785D01*
X031219Y020886D01*
X031142Y020963D01*
X031041Y021005D01*
X030932Y021005D01*
X030831Y020963D01*
X030767Y020900D01*
X030201Y020900D01*
X030211Y020925D01*
X030211Y021035D01*
X030169Y021136D01*
X030092Y021213D01*
X029991Y021255D01*
X029882Y021255D01*
X029781Y021213D01*
X029717Y021150D01*
X028451Y021150D01*
X028461Y021175D01*
X028461Y021285D01*
X028419Y021386D01*
X028416Y021389D01*
X028416Y021571D01*
X028419Y021574D01*
X028461Y021675D01*
X028461Y021785D01*
X028419Y021886D01*
X028342Y021963D01*
X028241Y022005D01*
X028132Y022005D01*
X028031Y021963D01*
X027953Y021886D01*
X027911Y021689D02*
X017911Y021689D01*
X017906Y021530D02*
X027956Y021530D01*
X027947Y021372D02*
X017906Y021372D01*
X017911Y021213D02*
X025180Y021213D01*
X025070Y021055D02*
X017911Y021055D01*
X017911Y020896D02*
X025073Y020896D01*
X025083Y020738D02*
X017906Y020738D01*
X017906Y020579D02*
X025061Y020579D01*
X025157Y020421D02*
X017906Y020421D01*
X017906Y020262D02*
X028861Y020262D01*
X028861Y020285D02*
X028861Y020226D01*
X028791Y020255D01*
X028682Y020255D01*
X028581Y020213D01*
X028503Y020136D01*
X028461Y020035D01*
X028461Y019925D01*
X028503Y019824D01*
X028581Y019747D01*
X028682Y019705D01*
X028791Y019705D01*
X028892Y019747D01*
X028955Y019810D01*
X029967Y019810D01*
X030031Y019747D01*
X030132Y019705D01*
X030241Y019705D01*
X030342Y019747D01*
X030419Y019824D01*
X030461Y019925D01*
X030461Y020035D01*
X030419Y020136D01*
X030342Y020213D01*
X030241Y020255D01*
X030132Y020255D01*
X030061Y020226D01*
X030061Y020285D01*
X030019Y020386D01*
X029942Y020463D01*
X029841Y020505D01*
X029732Y020505D01*
X029631Y020463D01*
X029567Y020400D01*
X029355Y020400D01*
X029292Y020463D01*
X029191Y020505D01*
X029082Y020505D01*
X028981Y020463D01*
X028903Y020386D01*
X028861Y020285D01*
X028938Y020421D02*
X028466Y020421D01*
X028511Y020579D02*
X029747Y020579D01*
X029588Y020421D02*
X029335Y020421D01*
X029985Y020421D02*
X038015Y020421D01*
X038049Y020340D02*
X038294Y020095D01*
X038613Y019963D01*
X038959Y019963D01*
X039279Y020095D01*
X039524Y020340D01*
X039656Y020659D01*
X039656Y021005D01*
X039524Y021325D01*
X039279Y021570D01*
X038959Y021702D01*
X038613Y021702D01*
X038294Y021570D01*
X038049Y021325D01*
X037917Y021005D01*
X037917Y020659D01*
X038049Y020340D01*
X038127Y020262D02*
X030061Y020262D01*
X030433Y020104D02*
X038285Y020104D01*
X037950Y020579D02*
X036271Y020579D01*
X036237Y020545D02*
X036521Y020829D01*
X036521Y021016D01*
X036050Y021016D01*
X036050Y020545D01*
X036237Y020545D01*
X036050Y020579D02*
X036023Y020579D01*
X036023Y020545D02*
X036023Y021016D01*
X036050Y021016D01*
X036050Y021044D01*
X036023Y021044D01*
X036023Y021515D01*
X035835Y021515D01*
X035551Y021231D01*
X035551Y021044D01*
X036023Y021044D01*
X036023Y021016D01*
X035551Y021016D01*
X035551Y020829D01*
X035835Y020545D01*
X036023Y020545D01*
X036023Y020738D02*
X036050Y020738D01*
X036050Y020896D02*
X036023Y020896D01*
X036050Y021044D02*
X036521Y021044D01*
X036521Y021231D01*
X036237Y021515D01*
X036050Y021515D01*
X036050Y021044D01*
X036050Y021055D02*
X036023Y021055D01*
X036023Y021213D02*
X036050Y021213D01*
X036050Y021372D02*
X036023Y021372D01*
X035852Y021585D02*
X036221Y021585D01*
X036481Y021846D01*
X036481Y022214D01*
X036221Y022475D01*
X035852Y022475D01*
X035591Y022214D01*
X035591Y021846D01*
X035852Y021585D01*
X035748Y021689D02*
X035324Y021689D01*
X035481Y021847D02*
X035591Y021847D01*
X035591Y022006D02*
X035481Y022006D01*
X035481Y022164D02*
X035591Y022164D01*
X035699Y022323D02*
X035373Y022323D01*
X035275Y022640D02*
X035797Y022640D01*
X035639Y022798D02*
X035434Y022798D01*
X035481Y022957D02*
X035591Y022957D01*
X035591Y023115D02*
X035481Y023115D01*
X035422Y023274D02*
X035650Y023274D01*
X036264Y023432D02*
X043506Y023432D01*
X043506Y023274D02*
X041967Y023274D01*
X042099Y023115D02*
X043506Y023115D01*
X043506Y022957D02*
X042104Y022957D01*
X041993Y022798D02*
X043506Y022798D01*
X043506Y022640D02*
X036275Y022640D01*
X036434Y022798D02*
X041679Y022798D01*
X041706Y023274D02*
X036422Y023274D01*
X036311Y023591D02*
X043506Y023591D01*
X043506Y023749D02*
X037080Y023749D01*
X037111Y023908D02*
X043506Y023908D01*
X043506Y024066D02*
X037039Y024066D01*
X036633Y024066D02*
X030978Y024066D01*
X029511Y022481D02*
X043506Y022481D01*
X043506Y022323D02*
X036373Y022323D01*
X036481Y022164D02*
X043506Y022164D01*
X043506Y022006D02*
X036481Y022006D01*
X036481Y021847D02*
X043506Y021847D01*
X043506Y021689D02*
X042992Y021689D01*
X043319Y021530D02*
X043506Y021530D01*
X043506Y021372D02*
X043477Y021372D01*
X042580Y021689D02*
X038992Y021689D01*
X039319Y021530D02*
X042254Y021530D01*
X042095Y021372D02*
X039477Y021372D01*
X039570Y021213D02*
X042003Y021213D01*
X041937Y021055D02*
X039636Y021055D01*
X039656Y020896D02*
X041917Y020896D01*
X041917Y020738D02*
X039656Y020738D01*
X039623Y020579D02*
X041950Y020579D01*
X042015Y020421D02*
X039557Y020421D01*
X039446Y020262D02*
X042127Y020262D01*
X042285Y020104D02*
X039287Y020104D01*
X039432Y019155D02*
X039331Y019113D01*
X039267Y019050D01*
X037155Y019050D01*
X037092Y019113D01*
X036991Y019155D01*
X036882Y019155D01*
X036781Y019113D01*
X036703Y019036D01*
X036661Y018935D01*
X036661Y018825D01*
X036703Y018724D01*
X036781Y018647D01*
X036882Y018605D01*
X036991Y018605D01*
X037092Y018647D01*
X037155Y018710D01*
X039267Y018710D01*
X039331Y018647D01*
X039432Y018605D01*
X039541Y018605D01*
X039642Y018647D01*
X039719Y018724D01*
X039761Y018825D01*
X039761Y018935D01*
X039719Y019036D01*
X039642Y019113D01*
X039541Y019155D01*
X039432Y019155D01*
X039426Y019153D02*
X036997Y019153D01*
X036876Y019153D02*
X026531Y019153D01*
X026519Y019124D02*
X026561Y019225D01*
X026561Y019335D01*
X026519Y019436D01*
X026495Y019460D01*
X027017Y019460D01*
X027081Y019397D01*
X027182Y019355D01*
X027291Y019355D01*
X027392Y019397D01*
X027469Y019474D01*
X027511Y019575D01*
X027511Y019685D01*
X027469Y019786D01*
X027392Y019863D01*
X027291Y019905D01*
X027182Y019905D01*
X027081Y019863D01*
X027017Y019800D01*
X026355Y019800D01*
X026292Y019863D01*
X026191Y019905D01*
X026082Y019905D01*
X025981Y019863D01*
X025903Y019786D01*
X025861Y019685D01*
X025861Y019575D01*
X025903Y019474D01*
X025927Y019450D01*
X025605Y019450D01*
X025542Y019513D01*
X025441Y019555D01*
X025332Y019555D01*
X025231Y019513D01*
X025153Y019436D01*
X025111Y019335D01*
X025111Y019225D01*
X025153Y019124D01*
X025231Y019047D01*
X025332Y019005D01*
X025441Y019005D01*
X025542Y019047D01*
X025605Y019110D01*
X026067Y019110D01*
X026131Y019047D01*
X026232Y019005D01*
X026341Y019005D01*
X026442Y019047D01*
X026519Y019124D01*
X026561Y019311D02*
X043506Y019311D01*
X043506Y019153D02*
X039547Y019153D01*
X039737Y018994D02*
X043506Y018994D01*
X043506Y018836D02*
X039761Y018836D01*
X039672Y018677D02*
X043506Y018677D01*
X043506Y018519D02*
X017906Y018519D01*
X017906Y018677D02*
X036750Y018677D01*
X036661Y018836D02*
X017911Y018836D01*
X017911Y018994D02*
X036686Y018994D01*
X037122Y018677D02*
X039300Y018677D01*
X037917Y020738D02*
X036430Y020738D01*
X036521Y020896D02*
X037917Y020896D01*
X037937Y021055D02*
X036521Y021055D01*
X036521Y021213D02*
X038003Y021213D01*
X038095Y021372D02*
X036381Y021372D01*
X036324Y021689D02*
X038580Y021689D01*
X038254Y021530D02*
X028416Y021530D01*
X028425Y021372D02*
X034748Y021372D01*
X034852Y021475D02*
X034591Y021214D01*
X034591Y020846D01*
X034852Y020585D01*
X035221Y020585D01*
X035481Y020846D01*
X035481Y021214D01*
X035221Y021475D01*
X034852Y021475D01*
X034748Y021689D02*
X028461Y021689D01*
X028435Y021847D02*
X034591Y021847D01*
X034591Y021213D02*
X030092Y021213D01*
X030203Y021055D02*
X034591Y021055D01*
X034591Y020896D02*
X031209Y020896D01*
X031261Y020738D02*
X034699Y020738D01*
X035373Y020738D02*
X035643Y020738D01*
X035551Y020896D02*
X035481Y020896D01*
X035481Y021055D02*
X035551Y021055D01*
X035551Y021213D02*
X035481Y021213D01*
X035324Y021372D02*
X035692Y021372D01*
X035801Y020579D02*
X031221Y020579D01*
X030461Y019945D02*
X043506Y019945D01*
X043506Y019787D02*
X030382Y019787D01*
X029991Y019787D02*
X028932Y019787D01*
X028541Y019787D02*
X027469Y019787D01*
X027511Y019628D02*
X043506Y019628D01*
X043506Y019470D02*
X027465Y019470D01*
X027107Y020421D02*
X025516Y020421D01*
X025611Y020579D02*
X027061Y020579D01*
X027911Y021213D02*
X025492Y021213D01*
X025904Y019787D02*
X017906Y019787D01*
X017911Y019945D02*
X028461Y019945D01*
X028490Y020104D02*
X017911Y020104D01*
X017906Y019628D02*
X025861Y019628D01*
X025908Y019470D02*
X025586Y019470D01*
X025187Y019470D02*
X017906Y019470D01*
X017906Y019311D02*
X025111Y019311D01*
X025141Y019153D02*
X017911Y019153D01*
X017906Y018360D02*
X043506Y018360D01*
X043506Y018202D02*
X017911Y018202D01*
X017911Y018043D02*
X043506Y018043D01*
X043506Y017885D02*
X017911Y017885D01*
X017906Y017726D02*
X043506Y017726D01*
X043506Y017568D02*
X027188Y017568D01*
X027219Y017536D02*
X027142Y017613D01*
X027041Y017655D01*
X026932Y017655D01*
X026831Y017613D01*
X026767Y017550D01*
X019205Y017550D01*
X019142Y017613D01*
X019041Y017655D01*
X018932Y017655D01*
X018831Y017613D01*
X018753Y017536D01*
X018711Y017435D01*
X018711Y017325D01*
X018753Y017224D01*
X018831Y017147D01*
X018932Y017105D01*
X018961Y017105D01*
X018961Y017075D01*
X019003Y016974D01*
X019081Y016897D01*
X019182Y016855D01*
X019291Y016855D01*
X019392Y016897D01*
X019469Y016974D01*
X019505Y017060D01*
X026266Y017060D01*
X026661Y016665D01*
X026661Y016575D01*
X026703Y016474D01*
X026781Y016397D01*
X026882Y016355D01*
X026991Y016355D01*
X027092Y016397D01*
X027169Y016474D01*
X027211Y016575D01*
X027211Y016685D01*
X027169Y016786D01*
X027092Y016863D01*
X026991Y016905D01*
X026902Y016905D01*
X026597Y017210D01*
X026767Y017210D01*
X026831Y017147D01*
X026932Y017105D01*
X027041Y017105D01*
X027142Y017147D01*
X027219Y017224D01*
X027261Y017325D01*
X027261Y017435D01*
X027219Y017536D01*
X027261Y017409D02*
X043506Y017409D01*
X043506Y017251D02*
X027984Y017251D01*
X027969Y017286D02*
X027892Y017363D01*
X027791Y017405D01*
X027682Y017405D01*
X027581Y017363D01*
X027503Y017286D01*
X027461Y017185D01*
X027461Y017075D01*
X027503Y016974D01*
X027581Y016897D01*
X027621Y016880D01*
X027581Y016863D01*
X027503Y016786D01*
X027461Y016685D01*
X027461Y016575D01*
X027503Y016474D01*
X027581Y016397D01*
X027682Y016355D01*
X027791Y016355D01*
X027892Y016397D01*
X027955Y016460D01*
X030967Y016460D01*
X031031Y016397D01*
X031132Y016355D01*
X031241Y016355D01*
X031342Y016397D01*
X031419Y016474D01*
X031461Y016575D01*
X031461Y016605D01*
X031491Y016605D01*
X031592Y016647D01*
X031669Y016724D01*
X031711Y016825D01*
X031711Y016935D01*
X031669Y017036D01*
X031592Y017113D01*
X031491Y017155D01*
X031382Y017155D01*
X031281Y017113D01*
X031217Y017050D01*
X031016Y017050D01*
X030916Y016950D01*
X028157Y016950D01*
X028011Y017095D01*
X028011Y017185D01*
X027969Y017286D01*
X028015Y017092D02*
X031259Y017092D01*
X031613Y017092D02*
X043506Y017092D01*
X043506Y016934D02*
X031711Y016934D01*
X031690Y016775D02*
X043506Y016775D01*
X043506Y016617D02*
X031519Y016617D01*
X031403Y016458D02*
X043506Y016458D01*
X043506Y016300D02*
X017906Y016300D01*
X017906Y016458D02*
X026719Y016458D01*
X026661Y016617D02*
X017906Y016617D01*
X017906Y016775D02*
X026551Y016775D01*
X026392Y016934D02*
X019429Y016934D01*
X019044Y016934D02*
X017911Y016934D01*
X017911Y017092D02*
X018961Y017092D01*
X018742Y017251D02*
X017906Y017251D01*
X017906Y017409D02*
X018711Y017409D01*
X018785Y017568D02*
X017906Y017568D01*
X019188Y017568D02*
X026785Y017568D01*
X027230Y017251D02*
X027489Y017251D01*
X027461Y017092D02*
X026715Y017092D01*
X026873Y016934D02*
X027544Y016934D01*
X027499Y016775D02*
X027174Y016775D01*
X027211Y016617D02*
X027461Y016617D01*
X027519Y016458D02*
X027153Y016458D01*
X027953Y016458D02*
X030969Y016458D01*
X030916Y016950D02*
X030916Y016950D01*
X031527Y015190D02*
X036745Y015190D01*
X036663Y014715D02*
X031610Y014715D01*
X031228Y014398D02*
X029944Y014398D01*
X029786Y014239D02*
X031387Y014239D01*
X031545Y014081D02*
X029627Y014081D01*
X029737Y013703D02*
X029613Y013579D01*
X029546Y013418D01*
X029546Y012642D01*
X029593Y012530D01*
X029546Y012418D01*
X029546Y011642D01*
X029613Y011481D01*
X029737Y011357D01*
X029899Y011290D01*
X030074Y011290D01*
X030236Y011357D01*
X030359Y011481D01*
X030426Y011642D01*
X030426Y012418D01*
X030380Y012530D01*
X030426Y012642D01*
X030426Y013418D01*
X030359Y013579D01*
X030236Y013703D01*
X030074Y013770D01*
X029899Y013770D01*
X029737Y013703D01*
X029639Y013605D02*
X028286Y013605D01*
X028385Y013447D02*
X029558Y013447D01*
X029546Y013288D02*
X028407Y013288D01*
X028407Y013130D02*
X029546Y013130D01*
X029546Y012971D02*
X028407Y012971D01*
X028407Y012813D02*
X029546Y012813D01*
X029546Y012654D02*
X028402Y012654D01*
X028365Y012496D02*
X029579Y012496D01*
X029546Y012337D02*
X028407Y012337D01*
X028407Y012179D02*
X029546Y012179D01*
X029546Y012020D02*
X028407Y012020D01*
X028407Y011862D02*
X029546Y011862D01*
X029546Y011703D02*
X028407Y011703D01*
X028357Y011545D02*
X029587Y011545D01*
X029708Y011386D02*
X028208Y011386D01*
X027765Y011386D02*
X027269Y011386D01*
X027399Y011545D02*
X027616Y011545D01*
X027566Y011703D02*
X027445Y011703D01*
X027447Y011862D02*
X027566Y011862D01*
X027566Y012020D02*
X027000Y012020D01*
X026973Y012020D02*
X026407Y012020D01*
X026526Y012016D02*
X026526Y011713D01*
X026537Y011642D01*
X026560Y011573D01*
X026592Y011508D01*
X026635Y011449D01*
X026686Y011398D01*
X026745Y011356D01*
X026810Y011323D01*
X026878Y011300D01*
X026950Y011289D01*
X026973Y011289D01*
X026973Y012016D01*
X026526Y012016D01*
X026526Y011862D02*
X026407Y011862D01*
X026407Y011703D02*
X026527Y011703D01*
X026407Y011666D02*
X026407Y012394D01*
X026351Y012530D01*
X026407Y012666D01*
X026407Y013394D01*
X026343Y013549D01*
X026224Y013667D01*
X026070Y013731D01*
X025903Y013731D01*
X025748Y013667D01*
X025630Y013549D01*
X025566Y013394D01*
X025566Y012666D01*
X025622Y012530D01*
X025566Y012394D01*
X025566Y011666D01*
X025630Y011511D01*
X025748Y011393D01*
X025903Y011329D01*
X026070Y011329D01*
X026224Y011393D01*
X026343Y011511D01*
X026407Y011666D01*
X026357Y011545D02*
X026574Y011545D01*
X026703Y011386D02*
X026208Y011386D01*
X025765Y011386D02*
X025208Y011386D01*
X025357Y011545D02*
X025616Y011545D01*
X025566Y011703D02*
X025407Y011703D01*
X025407Y011862D02*
X025566Y011862D01*
X025566Y012020D02*
X025407Y012020D01*
X025407Y012179D02*
X025566Y012179D01*
X025566Y012337D02*
X025407Y012337D01*
X025365Y012496D02*
X025608Y012496D01*
X025571Y012654D02*
X025402Y012654D01*
X025407Y012813D02*
X025566Y012813D01*
X025566Y012971D02*
X025407Y012971D01*
X025407Y013130D02*
X025566Y013130D01*
X025566Y013288D02*
X025407Y013288D01*
X025385Y013447D02*
X025587Y013447D01*
X025686Y013605D02*
X025286Y013605D01*
X024870Y013764D02*
X026903Y013764D01*
X026973Y013764D02*
X027000Y013764D01*
X027070Y013764D02*
X027244Y013764D01*
X027000Y013605D02*
X026973Y013605D01*
X026973Y013447D02*
X027000Y013447D01*
X027000Y013288D02*
X026973Y013288D01*
X026973Y013130D02*
X027000Y013130D01*
X027000Y012971D02*
X026973Y012971D01*
X026973Y012813D02*
X027000Y012813D01*
X027000Y012654D02*
X026973Y012654D01*
X026973Y012496D02*
X027000Y012496D01*
X027000Y012337D02*
X026973Y012337D01*
X026973Y012179D02*
X027000Y012179D01*
X027000Y011862D02*
X026973Y011862D01*
X026973Y011703D02*
X027000Y011703D01*
X027000Y011545D02*
X026973Y011545D01*
X026973Y011386D02*
X027000Y011386D01*
X027447Y012179D02*
X027566Y012179D01*
X027566Y012337D02*
X027447Y012337D01*
X027409Y012496D02*
X027608Y012496D01*
X027571Y012654D02*
X027437Y012654D01*
X027447Y012813D02*
X027566Y012813D01*
X027566Y012971D02*
X027447Y012971D01*
X027447Y013130D02*
X027566Y013130D01*
X027566Y013288D02*
X027447Y013288D01*
X027860Y013764D02*
X029883Y013764D01*
X030089Y013764D02*
X030883Y013764D01*
X030899Y013770D02*
X030737Y013703D01*
X030613Y013579D01*
X030546Y013418D01*
X030546Y012642D01*
X030593Y012530D01*
X030546Y012418D01*
X030546Y011642D01*
X030613Y011481D01*
X030737Y011357D01*
X030899Y011290D01*
X031074Y011290D01*
X031236Y011357D01*
X031359Y011481D01*
X031426Y011642D01*
X031426Y012418D01*
X031380Y012530D01*
X031426Y012642D01*
X031426Y013418D01*
X031359Y013579D01*
X031236Y013703D01*
X031074Y013770D01*
X030899Y013770D01*
X031089Y013764D02*
X031862Y013764D01*
X031704Y013922D02*
X028019Y013922D01*
X027855Y014239D02*
X024395Y014239D01*
X024553Y014081D02*
X027696Y014081D01*
X027538Y013922D02*
X024712Y013922D01*
X026286Y013605D02*
X026631Y013605D01*
X026546Y013447D02*
X026385Y013447D01*
X026407Y013288D02*
X026526Y013288D01*
X026526Y013130D02*
X026407Y013130D01*
X026407Y012971D02*
X026526Y012971D01*
X026526Y012813D02*
X026407Y012813D01*
X026402Y012654D02*
X026535Y012654D01*
X026564Y012496D02*
X026365Y012496D01*
X026407Y012337D02*
X026526Y012337D01*
X026526Y012179D02*
X026407Y012179D01*
X030265Y011386D02*
X030708Y011386D01*
X030587Y011545D02*
X030386Y011545D01*
X030426Y011703D02*
X030546Y011703D01*
X030546Y011862D02*
X030426Y011862D01*
X030426Y012020D02*
X030546Y012020D01*
X030546Y012179D02*
X030426Y012179D01*
X030426Y012337D02*
X030546Y012337D01*
X030579Y012496D02*
X030394Y012496D01*
X030426Y012654D02*
X030546Y012654D01*
X030546Y012813D02*
X030426Y012813D01*
X030426Y012971D02*
X030546Y012971D01*
X030546Y013130D02*
X030426Y013130D01*
X030426Y013288D02*
X030546Y013288D01*
X030558Y013447D02*
X030414Y013447D01*
X030334Y013605D02*
X030639Y013605D01*
X031334Y013605D02*
X031639Y013605D01*
X031558Y013447D02*
X031414Y013447D01*
X031426Y013288D02*
X031546Y013288D01*
X031546Y013130D02*
X031426Y013130D01*
X031426Y012971D02*
X031546Y012971D01*
X031546Y012813D02*
X031426Y012813D01*
X031426Y012654D02*
X031546Y012654D01*
X031579Y012496D02*
X031394Y012496D01*
X031426Y012337D02*
X031546Y012337D01*
X031546Y012179D02*
X031426Y012179D01*
X031426Y012020D02*
X031546Y012020D01*
X031546Y011862D02*
X031426Y011862D01*
X031426Y011703D02*
X031546Y011703D01*
X031587Y011545D02*
X031386Y011545D01*
X031265Y011386D02*
X031708Y011386D01*
X032265Y011386D02*
X032708Y011386D01*
X032587Y011545D02*
X032386Y011545D01*
X032426Y011703D02*
X032546Y011703D01*
X032546Y011862D02*
X032426Y011862D01*
X032426Y012020D02*
X032546Y012020D01*
X032546Y012179D02*
X032426Y012179D01*
X032426Y012337D02*
X032546Y012337D01*
X032579Y012496D02*
X032394Y012496D01*
X032426Y012654D02*
X032546Y012654D01*
X032546Y012813D02*
X032426Y012813D01*
X032426Y012971D02*
X032546Y012971D01*
X032546Y013130D02*
X032426Y013130D01*
X032426Y013288D02*
X032546Y013288D01*
X033334Y013605D02*
X033639Y013605D01*
X033558Y013447D02*
X033414Y013447D01*
X033426Y013288D02*
X033546Y013288D01*
X033546Y013130D02*
X033426Y013130D01*
X033426Y012971D02*
X033546Y012971D01*
X033546Y012813D02*
X033426Y012813D01*
X033426Y012654D02*
X033546Y012654D01*
X033579Y012496D02*
X033394Y012496D01*
X033426Y012337D02*
X033546Y012337D01*
X033546Y012179D02*
X033426Y012179D01*
X033426Y012020D02*
X033546Y012020D01*
X033546Y011862D02*
X033426Y011862D01*
X033426Y011703D02*
X033546Y011703D01*
X033587Y011545D02*
X033386Y011545D01*
X033265Y011386D02*
X033708Y011386D01*
X034265Y011386D02*
X034708Y011386D01*
X034587Y011545D02*
X034386Y011545D01*
X034426Y011703D02*
X034546Y011703D01*
X034546Y011862D02*
X034426Y011862D01*
X034426Y012020D02*
X034546Y012020D01*
X034546Y012179D02*
X034426Y012179D01*
X034426Y012337D02*
X034546Y012337D01*
X034579Y012496D02*
X034394Y012496D01*
X034426Y012654D02*
X034546Y012654D01*
X034546Y012813D02*
X034426Y012813D01*
X034426Y012971D02*
X034546Y012971D01*
X034546Y013130D02*
X034426Y013130D01*
X034426Y013288D02*
X034546Y013288D01*
X034558Y013447D02*
X034414Y013447D01*
X034334Y013605D02*
X034639Y013605D01*
X030990Y014873D02*
X030332Y014873D01*
X030411Y014715D02*
X030911Y014715D01*
X030940Y014556D02*
X030383Y014556D01*
X029780Y021213D02*
X028461Y021213D01*
X028961Y022164D02*
X018107Y022164D01*
X018096Y022323D02*
X027555Y022323D01*
X027918Y022323D02*
X028998Y022323D01*
X026939Y023908D02*
X002400Y023908D01*
X002400Y024066D02*
X025711Y024066D01*
X025612Y024225D02*
X002400Y024225D01*
X002401Y024383D02*
X025631Y024383D01*
X026061Y024066D02*
X026911Y024066D01*
X025460Y025493D02*
X018813Y025493D01*
X018460Y025493D02*
X018111Y025493D01*
X018029Y025334D02*
X018361Y025334D01*
X018382Y025176D02*
X017841Y025176D01*
X017670Y025017D02*
X018375Y025017D01*
X018368Y024859D02*
X011755Y024859D01*
X011914Y025017D02*
X017503Y025017D01*
X017332Y025176D02*
X012072Y025176D01*
X011643Y025334D02*
X009435Y025334D01*
X009501Y025493D02*
X011561Y025493D01*
X011589Y025651D02*
X009506Y025651D01*
X009506Y025810D02*
X016718Y025810D01*
X016725Y025968D02*
X009457Y025968D01*
X009392Y026127D02*
X016863Y026127D01*
X017110Y026127D02*
X017713Y026127D01*
X018403Y026874D02*
X018481Y026797D01*
X018582Y026755D01*
X018691Y026755D01*
X018792Y026797D01*
X018855Y026860D01*
X026717Y026860D01*
X026781Y026797D01*
X026882Y026755D01*
X026991Y026755D01*
X027092Y026797D01*
X027169Y026874D01*
X027211Y026975D01*
X027211Y027085D01*
X027169Y027186D01*
X027092Y027263D01*
X026991Y027305D01*
X026882Y027305D01*
X026781Y027263D01*
X026717Y027200D01*
X018855Y027200D01*
X018792Y027263D01*
X018691Y027305D01*
X018582Y027305D01*
X018481Y027263D01*
X018403Y027186D01*
X018361Y027085D01*
X018361Y026975D01*
X018403Y026874D01*
X018385Y026919D02*
X002407Y026919D01*
X002406Y026761D02*
X018568Y026761D01*
X018704Y026761D02*
X026868Y026761D01*
X027004Y026761D02*
X027578Y026761D01*
X027485Y026919D02*
X027188Y026919D01*
X027211Y027078D02*
X027461Y027078D01*
X027553Y027236D02*
X027119Y027236D01*
X026753Y027236D02*
X018819Y027236D01*
X018453Y027236D02*
X002408Y027236D01*
X002407Y027078D02*
X018361Y027078D01*
X018303Y029329D02*
X018470Y029329D01*
X018624Y029393D01*
X018743Y029511D01*
X018807Y029666D01*
X018807Y030394D01*
X018751Y030530D01*
X018807Y030666D01*
X018807Y031394D01*
X018743Y031549D01*
X018624Y031667D01*
X018470Y031731D01*
X018303Y031731D01*
X018148Y031667D01*
X018030Y031549D01*
X017966Y031394D01*
X017966Y030666D01*
X018022Y030530D01*
X017966Y030394D01*
X017966Y029666D01*
X018030Y029511D01*
X018148Y029393D01*
X018303Y029329D01*
X018086Y029455D02*
X017687Y029455D01*
X017743Y029511D02*
X017807Y029666D01*
X017807Y030394D01*
X017751Y030530D01*
X017807Y030666D01*
X017807Y031394D01*
X017743Y031549D01*
X017624Y031667D01*
X017470Y031731D01*
X017303Y031731D01*
X017148Y031667D01*
X017030Y031549D01*
X016966Y031394D01*
X016966Y030666D01*
X017022Y030530D01*
X016966Y030394D01*
X016966Y029666D01*
X017030Y029511D01*
X017148Y029393D01*
X017303Y029329D01*
X017470Y029329D01*
X017624Y029393D01*
X017743Y029511D01*
X017785Y029614D02*
X017987Y029614D01*
X017966Y029772D02*
X017807Y029772D01*
X017807Y029931D02*
X017966Y029931D01*
X017966Y030089D02*
X017807Y030089D01*
X017807Y030248D02*
X017966Y030248D01*
X017971Y030406D02*
X017802Y030406D01*
X017765Y030565D02*
X018008Y030565D01*
X017966Y030723D02*
X017807Y030723D01*
X017807Y030882D02*
X017966Y030882D01*
X017966Y031040D02*
X017807Y031040D01*
X017807Y031199D02*
X017966Y031199D01*
X017966Y031357D02*
X017807Y031357D01*
X017757Y031516D02*
X018016Y031516D01*
X018165Y031674D02*
X017608Y031674D01*
X017165Y031674D02*
X010849Y031674D01*
X010856Y031658D02*
X010789Y031819D01*
X010666Y031943D01*
X010504Y032010D01*
X009729Y032010D01*
X009567Y031943D01*
X009443Y031819D01*
X009423Y031770D01*
X008250Y031770D01*
X008229Y031819D01*
X008106Y031943D01*
X007944Y032010D01*
X007169Y032010D01*
X007007Y031943D01*
X006883Y031819D01*
X006816Y031658D01*
X006816Y031482D01*
X006883Y031321D01*
X007007Y031197D01*
X007169Y031130D01*
X007944Y031130D01*
X008106Y031197D01*
X008229Y031321D01*
X008250Y031370D01*
X009423Y031370D01*
X009443Y031321D01*
X009567Y031197D01*
X009729Y031130D01*
X010504Y031130D01*
X010666Y031197D01*
X010789Y031321D01*
X010856Y031482D01*
X010856Y031658D01*
X010856Y031516D02*
X017016Y031516D01*
X016966Y031357D02*
X010804Y031357D01*
X010667Y031199D02*
X016966Y031199D01*
X016966Y031040D02*
X002534Y031040D01*
X002448Y030882D02*
X016966Y030882D01*
X016966Y030723D02*
X002416Y030723D01*
X002416Y030565D02*
X017008Y030565D01*
X016971Y030406D02*
X002415Y030406D01*
X002415Y030248D02*
X007111Y030248D01*
X007144Y030258D02*
X007072Y030235D01*
X007005Y030201D01*
X006944Y030156D01*
X006890Y030103D01*
X006846Y030042D01*
X006811Y029974D01*
X006788Y029902D01*
X006776Y029828D01*
X006776Y029810D01*
X007536Y029810D01*
X007536Y029770D01*
X006776Y029770D01*
X006776Y029752D01*
X006788Y029678D01*
X006811Y029606D01*
X006846Y029538D01*
X006890Y029477D01*
X006944Y029424D01*
X007005Y029379D01*
X007072Y029345D01*
X007144Y029322D01*
X007219Y029310D01*
X007536Y029310D01*
X007536Y029770D01*
X007576Y029770D01*
X007576Y029310D01*
X007894Y029310D01*
X007969Y029322D01*
X008041Y029345D01*
X008108Y029379D01*
X008169Y029424D01*
X008222Y029477D01*
X008267Y029538D01*
X008301Y029606D01*
X008324Y029678D01*
X008336Y029752D01*
X008336Y029770D01*
X007576Y029770D01*
X007576Y029810D01*
X007536Y029810D01*
X007536Y030270D01*
X007219Y030270D01*
X007144Y030258D01*
X006880Y030089D02*
X002414Y030089D01*
X002414Y029931D02*
X006797Y029931D01*
X006809Y029614D02*
X002413Y029614D01*
X002414Y029772D02*
X007536Y029772D01*
X007576Y029772D02*
X010096Y029772D01*
X010096Y029770D02*
X009336Y029770D01*
X009336Y029752D01*
X009348Y029678D01*
X009371Y029606D01*
X009406Y029538D01*
X009450Y029477D01*
X009504Y029424D01*
X009565Y029379D01*
X009632Y029345D01*
X009704Y029322D01*
X009779Y029310D01*
X010096Y029310D01*
X010096Y029770D01*
X010096Y029810D01*
X009336Y029810D01*
X009336Y029828D01*
X009348Y029902D01*
X009371Y029974D01*
X009406Y030042D01*
X009450Y030103D01*
X009504Y030156D01*
X009565Y030201D01*
X009632Y030235D01*
X009704Y030258D01*
X009779Y030270D01*
X010096Y030270D01*
X010096Y029810D01*
X010136Y029810D01*
X010136Y030270D01*
X010454Y030270D01*
X010529Y030258D01*
X010601Y030235D01*
X010668Y030201D01*
X010729Y030156D01*
X010782Y030103D01*
X010827Y030042D01*
X010861Y029974D01*
X010884Y029902D01*
X010896Y029828D01*
X010896Y029810D01*
X010136Y029810D01*
X010136Y029770D01*
X010136Y029310D01*
X010454Y029310D01*
X010529Y029322D01*
X010601Y029345D01*
X010668Y029379D01*
X010729Y029424D01*
X010782Y029477D01*
X010827Y029538D01*
X010861Y029606D01*
X010884Y029678D01*
X010896Y029752D01*
X010896Y029770D01*
X010136Y029770D01*
X010096Y029770D01*
X010136Y029772D02*
X016966Y029772D01*
X016966Y029931D02*
X010875Y029931D01*
X010792Y030089D02*
X016966Y030089D01*
X016966Y030248D02*
X010561Y030248D01*
X010136Y030248D02*
X010096Y030248D01*
X010096Y030089D02*
X010136Y030089D01*
X010136Y029931D02*
X010096Y029931D01*
X010096Y029614D02*
X010136Y029614D01*
X010136Y029455D02*
X010096Y029455D01*
X010760Y029455D02*
X017086Y029455D01*
X016986Y029330D02*
X016526Y029790D01*
X016987Y029614D02*
X010864Y029614D01*
X009671Y030248D02*
X008001Y030248D01*
X007969Y030258D02*
X007894Y030270D01*
X007576Y030270D01*
X007576Y029810D01*
X008336Y029810D01*
X008336Y029828D01*
X008324Y029902D01*
X008301Y029974D01*
X008267Y030042D01*
X008222Y030103D01*
X008169Y030156D01*
X008108Y030201D01*
X008041Y030235D01*
X007969Y030258D01*
X008232Y030089D02*
X009440Y030089D01*
X009357Y029931D02*
X008315Y029931D01*
X008304Y029614D02*
X009369Y029614D01*
X009472Y029455D02*
X008200Y029455D01*
X007576Y029455D02*
X007536Y029455D01*
X007536Y029614D02*
X007576Y029614D01*
X007576Y029931D02*
X007536Y029931D01*
X007536Y030089D02*
X007576Y030089D01*
X007576Y030248D02*
X007536Y030248D01*
X006912Y029455D02*
X002413Y029455D01*
X002413Y029297D02*
X020302Y029297D01*
X020278Y029300D02*
X020350Y029289D01*
X020373Y029289D01*
X020373Y030016D01*
X020400Y030016D01*
X020400Y029289D01*
X020423Y029289D01*
X020494Y029300D01*
X020563Y029323D01*
X020628Y029356D01*
X020686Y029398D01*
X020738Y029449D01*
X020780Y029508D01*
X020813Y029573D01*
X020835Y029642D01*
X020847Y029713D01*
X020847Y030016D01*
X020400Y030016D01*
X020400Y030044D01*
X020373Y030044D01*
X020373Y030771D01*
X020373Y031016D01*
X020400Y031016D01*
X020400Y030044D01*
X020847Y030044D01*
X020847Y030347D01*
X020835Y030418D01*
X020813Y030487D01*
X020791Y030530D01*
X020813Y030573D01*
X020835Y030642D01*
X020847Y030713D01*
X020847Y031016D01*
X020400Y031016D01*
X020400Y031044D01*
X020373Y031044D01*
X020373Y031771D01*
X020350Y031771D01*
X020278Y031760D01*
X020210Y031737D01*
X020145Y031704D01*
X020086Y031662D01*
X020035Y031611D01*
X019992Y031552D01*
X019960Y031487D01*
X019937Y031418D01*
X019926Y031347D01*
X019926Y031044D01*
X020373Y031044D01*
X020373Y031016D01*
X019926Y031016D01*
X019926Y030713D01*
X019937Y030642D01*
X019960Y030573D01*
X019981Y030530D01*
X019960Y030487D01*
X019937Y030418D01*
X019926Y030347D01*
X019926Y030044D01*
X020373Y030044D01*
X020373Y030016D01*
X019926Y030016D01*
X019926Y029713D01*
X019937Y029642D01*
X019960Y029573D01*
X019992Y029508D01*
X020035Y029449D01*
X020086Y029398D01*
X020145Y029356D01*
X020210Y029323D01*
X020278Y029300D01*
X020373Y029297D02*
X020400Y029297D01*
X020470Y029297D02*
X029216Y029297D01*
X029227Y029138D02*
X014532Y029138D01*
X014491Y029155D02*
X014382Y029155D01*
X014281Y029113D01*
X014203Y029036D01*
X014161Y028935D01*
X014161Y028845D01*
X013871Y028555D01*
X013782Y028555D01*
X013681Y028513D01*
X013603Y028436D01*
X013561Y028335D01*
X013561Y028225D01*
X013603Y028124D01*
X013681Y028047D01*
X013782Y028005D01*
X013891Y028005D01*
X013992Y028047D01*
X014069Y028124D01*
X014111Y028225D01*
X014111Y028315D01*
X014402Y028605D01*
X014491Y028605D01*
X014592Y028647D01*
X014669Y028724D01*
X014711Y028825D01*
X014711Y028935D01*
X014669Y029036D01*
X014592Y029113D01*
X014491Y029155D01*
X014341Y029138D02*
X002412Y029138D01*
X002412Y028980D02*
X014180Y028980D01*
X014137Y028821D02*
X002411Y028821D01*
X002411Y028663D02*
X013978Y028663D01*
X013671Y028504D02*
X002411Y028504D01*
X002410Y028346D02*
X013566Y028346D01*
X013577Y028187D02*
X002410Y028187D01*
X002409Y028029D02*
X013725Y028029D01*
X013948Y028029D02*
X027461Y028029D01*
X027461Y027975D02*
X027503Y027874D01*
X027581Y027797D01*
X027682Y027755D01*
X027791Y027755D01*
X027892Y027797D01*
X027955Y027860D01*
X030517Y027860D01*
X030581Y027797D01*
X030682Y027755D01*
X030791Y027755D01*
X030892Y027797D01*
X030969Y027874D01*
X031011Y027975D01*
X031011Y028085D01*
X030969Y028186D01*
X030892Y028263D01*
X030791Y028305D01*
X030682Y028305D01*
X030581Y028263D01*
X030517Y028200D01*
X027955Y028200D01*
X027892Y028263D01*
X027791Y028305D01*
X027682Y028305D01*
X027581Y028263D01*
X027503Y028186D01*
X027461Y028085D01*
X027461Y027975D01*
X027507Y027870D02*
X002409Y027870D01*
X002409Y027712D02*
X043506Y027712D01*
X043506Y027870D02*
X030965Y027870D01*
X031011Y028029D02*
X038383Y028029D01*
X038344Y028045D02*
X038663Y027913D01*
X039009Y027913D01*
X039329Y028045D01*
X039574Y028290D01*
X039706Y028609D01*
X039706Y028955D01*
X039574Y029275D01*
X039329Y029520D01*
X039009Y029652D01*
X038663Y029652D01*
X038344Y029520D01*
X038099Y029275D01*
X037967Y028955D01*
X037967Y028609D01*
X038099Y028290D01*
X038344Y028045D01*
X038202Y028187D02*
X030968Y028187D01*
X030166Y028821D02*
X031805Y028821D01*
X032256Y029297D02*
X038120Y029297D01*
X038042Y029138D02*
X033217Y029138D01*
X033261Y028980D02*
X037977Y028980D01*
X037967Y028821D02*
X033216Y028821D01*
X033287Y029455D02*
X033686Y029455D01*
X033587Y029614D02*
X033385Y029614D01*
X033407Y029772D02*
X033566Y029772D01*
X033566Y029931D02*
X033407Y029931D01*
X033407Y030089D02*
X033566Y030089D01*
X033566Y030248D02*
X033407Y030248D01*
X033402Y030406D02*
X033571Y030406D01*
X033608Y030565D02*
X033365Y030565D01*
X033407Y030723D02*
X033566Y030723D01*
X033566Y030882D02*
X033407Y030882D01*
X033407Y031040D02*
X033566Y031040D01*
X033566Y031199D02*
X033407Y031199D01*
X033407Y031357D02*
X033566Y031357D01*
X033616Y031516D02*
X033357Y031516D01*
X033208Y031674D02*
X033765Y031674D01*
X034208Y031674D02*
X034765Y031674D01*
X034616Y031516D02*
X034357Y031516D01*
X034407Y031357D02*
X034566Y031357D01*
X034566Y031199D02*
X034407Y031199D01*
X034407Y031040D02*
X034566Y031040D01*
X034566Y030882D02*
X034407Y030882D01*
X034407Y030723D02*
X034566Y030723D01*
X034608Y030565D02*
X034365Y030565D01*
X034402Y030406D02*
X034571Y030406D01*
X034566Y030248D02*
X034407Y030248D01*
X034407Y030089D02*
X034566Y030089D01*
X034566Y029931D02*
X034407Y029931D01*
X034407Y029772D02*
X034566Y029772D01*
X034587Y029614D02*
X034385Y029614D01*
X034287Y029455D02*
X034686Y029455D01*
X035287Y029455D02*
X038279Y029455D01*
X038570Y029614D02*
X035385Y029614D01*
X035407Y029772D02*
X043506Y029772D01*
X043506Y029614D02*
X043102Y029614D01*
X043394Y029455D02*
X043506Y029455D01*
X043506Y029931D02*
X035407Y029931D01*
X035407Y030089D02*
X043506Y030089D01*
X043506Y030248D02*
X035407Y030248D01*
X035402Y030406D02*
X043506Y030406D01*
X043506Y030565D02*
X035365Y030565D01*
X035407Y030723D02*
X043506Y030723D01*
X043506Y030882D02*
X041322Y030882D01*
X041319Y030874D02*
X041361Y030975D01*
X041361Y031085D01*
X041319Y031186D01*
X041242Y031263D01*
X041141Y031305D01*
X041032Y031305D01*
X040931Y031263D01*
X040867Y031200D01*
X039455Y031200D01*
X039392Y031263D01*
X039291Y031305D01*
X039182Y031305D01*
X039081Y031263D01*
X039003Y031186D01*
X038961Y031085D01*
X038961Y030975D01*
X039003Y030874D01*
X039081Y030797D01*
X039182Y030755D01*
X039291Y030755D01*
X039392Y030797D01*
X039455Y030860D01*
X040867Y030860D01*
X040931Y030797D01*
X041032Y030755D01*
X041141Y030755D01*
X041242Y030797D01*
X041319Y030874D01*
X041361Y031040D02*
X043506Y031040D01*
X043506Y031199D02*
X041307Y031199D01*
X039494Y031833D02*
X043506Y031833D01*
X043506Y031991D02*
X039509Y031991D01*
X039406Y032150D02*
X043506Y032150D01*
X043506Y032308D02*
X036731Y032308D01*
X036761Y032150D02*
X039067Y032150D01*
X039337Y031674D02*
X043506Y031674D01*
X043506Y031516D02*
X039211Y031516D01*
X039016Y031199D02*
X035407Y031199D01*
X035407Y031357D02*
X043506Y031357D01*
X043506Y032467D02*
X035186Y032467D01*
X035281Y032625D02*
X043506Y032625D01*
X043506Y032784D02*
X035377Y032784D01*
X035473Y032942D02*
X043506Y032942D01*
X043506Y033101D02*
X035569Y033101D01*
X035664Y033259D02*
X043506Y033259D01*
X043506Y033418D02*
X035760Y033418D01*
X035856Y033576D02*
X043506Y033576D01*
X043506Y033735D02*
X035952Y033735D01*
X036047Y033893D02*
X043506Y033893D01*
X043506Y034052D02*
X036143Y034052D01*
X036239Y034210D02*
X036419Y034210D01*
X036553Y034210D02*
X040519Y034210D01*
X040653Y034210D02*
X043506Y034210D01*
X043506Y034369D02*
X040838Y034369D01*
X040861Y034527D02*
X043506Y034527D01*
X040335Y034369D02*
X036738Y034369D01*
X036202Y031674D02*
X035208Y031674D01*
X035357Y031516D02*
X038762Y031516D01*
X038961Y031040D02*
X035407Y031040D01*
X035407Y030882D02*
X039000Y030882D01*
X039102Y029614D02*
X042570Y029614D01*
X042279Y029455D02*
X039394Y029455D01*
X039552Y029297D02*
X042120Y029297D01*
X042042Y029138D02*
X039630Y029138D01*
X039696Y028980D02*
X041977Y028980D01*
X041967Y028821D02*
X039706Y028821D01*
X039706Y028663D02*
X041967Y028663D01*
X042010Y028504D02*
X039662Y028504D01*
X039597Y028346D02*
X042076Y028346D01*
X042202Y028187D02*
X039471Y028187D01*
X039289Y028029D02*
X042383Y028029D01*
X043289Y028029D02*
X043506Y028029D01*
X043506Y028187D02*
X043471Y028187D01*
X043506Y027553D02*
X002408Y027553D01*
X002408Y027395D02*
X043506Y027395D01*
X043506Y027236D02*
X030169Y027236D01*
X030261Y027078D02*
X043506Y027078D01*
X043506Y026919D02*
X030238Y026919D01*
X030054Y026761D02*
X039378Y026761D01*
X039695Y026761D02*
X043506Y026761D01*
X043506Y026602D02*
X039804Y026602D01*
X039798Y026444D02*
X043506Y026444D01*
X038076Y028346D02*
X014142Y028346D01*
X014095Y028187D02*
X027504Y028187D01*
X027919Y027236D02*
X029803Y027236D01*
X029918Y026761D02*
X027895Y026761D01*
X029706Y028821D02*
X014710Y028821D01*
X014693Y028980D02*
X029372Y028980D01*
X029600Y028980D02*
X029661Y028980D01*
X029650Y029455D02*
X029686Y029455D01*
X029587Y029614D02*
X029385Y029614D01*
X029407Y029772D02*
X029566Y029772D01*
X029566Y029931D02*
X029407Y029931D01*
X029407Y030089D02*
X029566Y030089D01*
X029566Y030248D02*
X029407Y030248D01*
X029402Y030406D02*
X029571Y030406D01*
X029608Y030565D02*
X029365Y030565D01*
X029407Y030723D02*
X029566Y030723D01*
X029566Y030882D02*
X029407Y030882D01*
X029407Y031040D02*
X029566Y031040D01*
X029566Y031199D02*
X029407Y031199D01*
X029407Y031357D02*
X029566Y031357D01*
X029616Y031516D02*
X029357Y031516D01*
X029208Y031674D02*
X029765Y031674D01*
X028765Y031674D02*
X028208Y031674D01*
X028357Y031516D02*
X028616Y031516D01*
X028566Y031357D02*
X028407Y031357D01*
X028407Y031199D02*
X028566Y031199D01*
X028566Y031040D02*
X028407Y031040D01*
X028407Y030882D02*
X028566Y030882D01*
X028566Y030723D02*
X028407Y030723D01*
X028365Y030565D02*
X028608Y030565D01*
X028571Y030406D02*
X028402Y030406D01*
X028407Y030248D02*
X028566Y030248D01*
X028566Y030089D02*
X028407Y030089D01*
X028407Y029931D02*
X028566Y029931D01*
X028566Y029772D02*
X028407Y029772D01*
X028385Y029614D02*
X028587Y029614D01*
X028686Y029455D02*
X028287Y029455D01*
X027686Y029455D02*
X026687Y029455D01*
X026785Y029614D02*
X027587Y029614D01*
X027566Y029772D02*
X027532Y029772D01*
X027340Y029772D02*
X026807Y029772D01*
X026807Y029931D02*
X027180Y029931D01*
X027163Y030089D02*
X026807Y030089D01*
X026807Y030248D02*
X027265Y030248D01*
X027571Y030406D02*
X026802Y030406D01*
X026765Y030565D02*
X027608Y030565D01*
X027566Y030723D02*
X026807Y030723D01*
X026807Y030882D02*
X027566Y030882D01*
X027566Y031040D02*
X026807Y031040D01*
X026807Y031199D02*
X027566Y031199D01*
X027566Y031357D02*
X026807Y031357D01*
X026757Y031516D02*
X027106Y031516D01*
X027266Y031516D02*
X027616Y031516D01*
X027765Y031674D02*
X027440Y031674D01*
X026933Y031674D02*
X026608Y031674D01*
X026729Y031833D02*
X026911Y031833D01*
X026117Y032150D02*
X024655Y032150D01*
X024647Y031991D02*
X025158Y031991D01*
X025111Y031833D02*
X024507Y031833D01*
X024470Y031731D02*
X024303Y031731D01*
X024148Y031667D01*
X024030Y031549D01*
X023966Y031394D01*
X023966Y030666D01*
X024022Y030530D01*
X023966Y030394D01*
X023966Y029666D01*
X024030Y029511D01*
X024148Y029393D01*
X024303Y029329D01*
X024470Y029329D01*
X024624Y029393D01*
X024743Y029511D01*
X024807Y029666D01*
X024807Y030394D01*
X024751Y030530D01*
X024807Y030666D01*
X024807Y031394D01*
X024743Y031549D01*
X024624Y031667D01*
X024470Y031731D01*
X024608Y031674D02*
X025153Y031674D01*
X025016Y031516D02*
X024757Y031516D01*
X024807Y031357D02*
X024966Y031357D01*
X024966Y031199D02*
X024807Y031199D01*
X024807Y031040D02*
X024966Y031040D01*
X024966Y030882D02*
X024807Y030882D01*
X024807Y030723D02*
X024966Y030723D01*
X025008Y030565D02*
X024765Y030565D01*
X024802Y030406D02*
X024971Y030406D01*
X024966Y030248D02*
X024807Y030248D01*
X024807Y030089D02*
X024966Y030089D01*
X024966Y029931D02*
X024807Y029931D01*
X024807Y029772D02*
X024966Y029772D01*
X024987Y029614D02*
X024785Y029614D01*
X024687Y029455D02*
X025086Y029455D01*
X025687Y029455D02*
X026086Y029455D01*
X025987Y029614D02*
X025785Y029614D01*
X025807Y029772D02*
X025966Y029772D01*
X025966Y029931D02*
X025807Y029931D01*
X025807Y030089D02*
X025966Y030089D01*
X025966Y030248D02*
X025807Y030248D01*
X025802Y030406D02*
X025971Y030406D01*
X026008Y030565D02*
X025765Y030565D01*
X025807Y030723D02*
X025966Y030723D01*
X025966Y030882D02*
X025807Y030882D01*
X025807Y031040D02*
X025966Y031040D01*
X025966Y031199D02*
X025807Y031199D01*
X025807Y031357D02*
X025966Y031357D01*
X026016Y031516D02*
X025757Y031516D01*
X024265Y031833D02*
X014557Y031833D01*
X014697Y031991D02*
X024125Y031991D01*
X024165Y031674D02*
X023608Y031674D01*
X023624Y031667D02*
X023470Y031731D01*
X023303Y031731D01*
X023148Y031667D01*
X023030Y031549D01*
X022966Y031394D01*
X022966Y030666D01*
X023022Y030530D01*
X022966Y030394D01*
X022966Y029666D01*
X023030Y029511D01*
X023148Y029393D01*
X023303Y029329D01*
X023470Y029329D01*
X023624Y029393D01*
X023743Y029511D01*
X023807Y029666D01*
X023807Y030394D01*
X023751Y030530D01*
X023807Y030666D01*
X023807Y031394D01*
X023743Y031549D01*
X023624Y031667D01*
X023757Y031516D02*
X024016Y031516D01*
X023966Y031357D02*
X023807Y031357D01*
X023807Y031199D02*
X023966Y031199D01*
X023966Y031040D02*
X023807Y031040D01*
X023807Y030882D02*
X023966Y030882D01*
X023966Y030723D02*
X023807Y030723D01*
X023765Y030565D02*
X024008Y030565D01*
X023971Y030406D02*
X023802Y030406D01*
X023807Y030248D02*
X023966Y030248D01*
X023966Y030089D02*
X023807Y030089D01*
X023807Y029931D02*
X023966Y029931D01*
X023966Y029772D02*
X023807Y029772D01*
X023785Y029614D02*
X023987Y029614D01*
X024086Y029455D02*
X023687Y029455D01*
X023086Y029455D02*
X022687Y029455D01*
X022743Y029511D02*
X022807Y029666D01*
X022807Y030394D01*
X022751Y030530D01*
X022807Y030666D01*
X022807Y031394D01*
X022743Y031549D01*
X022624Y031667D01*
X022470Y031731D01*
X022303Y031731D01*
X022148Y031667D01*
X022030Y031549D01*
X021966Y031394D01*
X021966Y030666D01*
X022022Y030530D01*
X021966Y030394D01*
X021966Y029666D01*
X022030Y029511D01*
X022148Y029393D01*
X022303Y029329D01*
X022470Y029329D01*
X022624Y029393D01*
X022743Y029511D01*
X022785Y029614D02*
X022987Y029614D01*
X022966Y029772D02*
X022807Y029772D01*
X022807Y029931D02*
X022966Y029931D01*
X022966Y030089D02*
X022807Y030089D01*
X022807Y030248D02*
X022966Y030248D01*
X022971Y030406D02*
X022802Y030406D01*
X022765Y030565D02*
X023008Y030565D01*
X022966Y030723D02*
X022807Y030723D01*
X022807Y030882D02*
X022966Y030882D01*
X022966Y031040D02*
X022807Y031040D01*
X022807Y031199D02*
X022966Y031199D01*
X022966Y031357D02*
X022807Y031357D01*
X022757Y031516D02*
X023016Y031516D01*
X023165Y031674D02*
X022608Y031674D01*
X022165Y031674D02*
X021608Y031674D01*
X021624Y031667D02*
X021470Y031731D01*
X021303Y031731D01*
X021148Y031667D01*
X021030Y031549D01*
X020966Y031394D01*
X020966Y030666D01*
X021022Y030530D01*
X020966Y030394D01*
X020966Y029666D01*
X021030Y029511D01*
X021148Y029393D01*
X021303Y029329D01*
X021470Y029329D01*
X021624Y029393D01*
X021743Y029511D01*
X021807Y029666D01*
X021807Y030394D01*
X021751Y030530D01*
X021807Y030666D01*
X021807Y031394D01*
X021743Y031549D01*
X021624Y031667D01*
X021757Y031516D02*
X022016Y031516D01*
X021966Y031357D02*
X021807Y031357D01*
X021807Y031199D02*
X021966Y031199D01*
X021966Y031040D02*
X021807Y031040D01*
X021807Y030882D02*
X021966Y030882D01*
X021966Y030723D02*
X021807Y030723D01*
X021765Y030565D02*
X022008Y030565D01*
X021971Y030406D02*
X021802Y030406D01*
X021807Y030248D02*
X021966Y030248D01*
X021966Y030089D02*
X021807Y030089D01*
X021807Y029931D02*
X021966Y029931D01*
X021966Y029772D02*
X021807Y029772D01*
X021785Y029614D02*
X021987Y029614D01*
X022086Y029455D02*
X021687Y029455D01*
X021086Y029455D02*
X020742Y029455D01*
X020826Y029614D02*
X020987Y029614D01*
X020966Y029772D02*
X020847Y029772D01*
X020847Y029931D02*
X020966Y029931D01*
X020966Y030089D02*
X020847Y030089D01*
X020847Y030248D02*
X020966Y030248D01*
X020971Y030406D02*
X020837Y030406D01*
X020809Y030565D02*
X021008Y030565D01*
X020966Y030723D02*
X020847Y030723D01*
X020847Y030882D02*
X020966Y030882D01*
X020966Y031040D02*
X020400Y031040D01*
X020400Y031044D02*
X020847Y031044D01*
X020847Y031347D01*
X020835Y031418D01*
X020813Y031487D01*
X020780Y031552D01*
X020738Y031611D01*
X020686Y031662D01*
X020628Y031704D01*
X020563Y031737D01*
X020494Y031760D01*
X020423Y031771D01*
X020400Y031771D01*
X020400Y031044D01*
X020373Y031040D02*
X019807Y031040D01*
X019807Y030882D02*
X019926Y030882D01*
X019926Y030723D02*
X019807Y030723D01*
X019807Y030666D02*
X019751Y030530D01*
X019807Y030394D01*
X019807Y029666D01*
X019743Y029511D01*
X019624Y029393D01*
X019470Y029329D01*
X019303Y029329D01*
X019148Y029393D01*
X019030Y029511D01*
X018966Y029666D01*
X018966Y030394D01*
X019022Y030530D01*
X018966Y030666D01*
X018966Y031394D01*
X019030Y031549D01*
X019148Y031667D01*
X019303Y031731D01*
X019470Y031731D01*
X019624Y031667D01*
X019743Y031549D01*
X019807Y031394D01*
X019807Y030666D01*
X019765Y030565D02*
X019964Y030565D01*
X019935Y030406D02*
X019802Y030406D01*
X019807Y030248D02*
X019926Y030248D01*
X019926Y030089D02*
X019807Y030089D01*
X019807Y029931D02*
X019926Y029931D01*
X019926Y029772D02*
X019807Y029772D01*
X019785Y029614D02*
X019946Y029614D01*
X020031Y029455D02*
X019687Y029455D01*
X019086Y029455D02*
X018687Y029455D01*
X018785Y029614D02*
X018987Y029614D01*
X018966Y029772D02*
X018807Y029772D01*
X018807Y029931D02*
X018966Y029931D01*
X018966Y030089D02*
X018807Y030089D01*
X018807Y030248D02*
X018966Y030248D01*
X018971Y030406D02*
X018802Y030406D01*
X018765Y030565D02*
X019008Y030565D01*
X018966Y030723D02*
X018807Y030723D01*
X018807Y030882D02*
X018966Y030882D01*
X018966Y031040D02*
X018807Y031040D01*
X018807Y031199D02*
X018966Y031199D01*
X018966Y031357D02*
X018807Y031357D01*
X018757Y031516D02*
X019016Y031516D01*
X019165Y031674D02*
X018608Y031674D01*
X019608Y031674D02*
X020103Y031674D01*
X019974Y031516D02*
X019757Y031516D01*
X019807Y031357D02*
X019927Y031357D01*
X019926Y031199D02*
X019807Y031199D01*
X020373Y031199D02*
X020400Y031199D01*
X020400Y031357D02*
X020373Y031357D01*
X020373Y031516D02*
X020400Y031516D01*
X020400Y031674D02*
X020373Y031674D01*
X020669Y031674D02*
X021165Y031674D01*
X021016Y031516D02*
X020799Y031516D01*
X020845Y031357D02*
X020966Y031357D01*
X020966Y031199D02*
X020847Y031199D01*
X020400Y030882D02*
X020373Y030882D01*
X020373Y030723D02*
X020400Y030723D01*
X020400Y030565D02*
X020373Y030565D01*
X020373Y030406D02*
X020400Y030406D01*
X020400Y030248D02*
X020373Y030248D01*
X020373Y030089D02*
X020400Y030089D01*
X020400Y029931D02*
X020373Y029931D01*
X020373Y029772D02*
X020400Y029772D01*
X020400Y029614D02*
X020373Y029614D01*
X020373Y029455D02*
X020400Y029455D01*
X014608Y028663D02*
X037967Y028663D01*
X038010Y028504D02*
X014301Y028504D01*
X011591Y025176D02*
X009364Y025176D01*
X009206Y025017D02*
X011433Y025017D01*
X011597Y024700D02*
X018477Y024700D01*
X016966Y020738D02*
X015536Y020738D01*
X015720Y020579D02*
X016966Y020579D01*
X016966Y020421D02*
X015846Y020421D01*
X015912Y020262D02*
X016966Y020262D01*
X016962Y020104D02*
X015956Y020104D01*
X015956Y019945D02*
X016962Y019945D01*
X016966Y019787D02*
X015947Y019787D01*
X015881Y019628D02*
X016966Y019628D01*
X016966Y019470D02*
X015803Y019470D01*
X015645Y019311D02*
X016966Y019311D01*
X016962Y019153D02*
X015356Y019153D01*
X016962Y015983D02*
X002381Y015983D01*
X002381Y016141D02*
X007436Y016141D01*
X007361Y016300D02*
X002382Y016300D01*
X002382Y016458D02*
X004969Y016458D01*
X004911Y016617D02*
X002382Y016617D01*
X002383Y016775D02*
X004949Y016775D01*
X005361Y016934D02*
X002383Y016934D01*
X002383Y017092D02*
X005409Y017092D01*
X005863Y017092D02*
X011259Y017092D01*
X010528Y019311D02*
X007094Y019311D01*
X006678Y019311D02*
X002389Y019311D01*
X002388Y019153D02*
X006326Y019153D01*
X006447Y019153D02*
X006611Y019153D01*
X007517Y018043D02*
X005256Y018043D01*
X005256Y018201D02*
X005256Y017855D01*
X005124Y017535D01*
X004879Y017290D01*
X004559Y017158D01*
X004213Y017158D01*
X003894Y017290D01*
X003649Y017535D01*
X003517Y017855D01*
X003517Y018201D01*
X003517Y018043D02*
X002386Y018043D01*
X002385Y017885D02*
X003517Y017885D01*
X003570Y017726D02*
X002385Y017726D01*
X002385Y017568D02*
X003635Y017568D01*
X003775Y017409D02*
X002384Y017409D01*
X002384Y017251D02*
X003990Y017251D01*
X004783Y017251D02*
X007990Y017251D01*
X007775Y017409D02*
X004998Y017409D01*
X005137Y017568D02*
X007635Y017568D01*
X007570Y017726D02*
X005203Y017726D01*
X005256Y017885D02*
X007517Y017885D01*
X010369Y019470D02*
X002389Y019470D01*
X002390Y019628D02*
X010292Y019628D01*
X010226Y019787D02*
X002390Y019787D01*
X002390Y019945D02*
X010217Y019945D01*
X010217Y020104D02*
X002391Y020104D01*
X002391Y020262D02*
X010261Y020262D01*
X010326Y020421D02*
X002391Y020421D01*
X002392Y020579D02*
X010453Y020579D01*
X004341Y024859D02*
X002402Y024859D01*
X002402Y025017D02*
X004067Y025017D01*
X003908Y025176D02*
X002403Y025176D01*
X002403Y025334D02*
X003837Y025334D01*
X003772Y025493D02*
X002403Y025493D01*
X002404Y025651D02*
X003767Y025651D01*
X003767Y025810D02*
X002404Y025810D01*
X002405Y025968D02*
X003815Y025968D01*
X003881Y026127D02*
X002405Y026127D01*
X002405Y026285D02*
X004014Y026285D01*
X002648Y031199D02*
X007006Y031199D01*
X006868Y031357D02*
X002761Y031357D01*
X002892Y031516D02*
X006816Y031516D01*
X006823Y031674D02*
X003061Y031674D01*
X003230Y031833D02*
X006897Y031833D01*
X007123Y031991D02*
X003479Y031991D01*
X003750Y032150D02*
X006240Y032150D01*
X006280Y032150D02*
X014167Y032150D01*
X014175Y031991D02*
X010550Y031991D01*
X010776Y031833D02*
X014315Y031833D01*
X009683Y031991D02*
X007990Y031991D01*
X008216Y031833D02*
X009457Y031833D01*
X009428Y031357D02*
X008244Y031357D01*
X008107Y031199D02*
X009566Y031199D01*
X005721Y032308D02*
X004170Y032308D01*
X017911Y016141D02*
X043506Y016141D01*
X043506Y015983D02*
X017911Y015983D01*
X017906Y015824D02*
X043506Y015824D01*
X042270Y014081D02*
X039203Y014081D01*
X039377Y013922D02*
X042096Y013922D01*
X041973Y013764D02*
X039499Y013764D01*
X039565Y013605D02*
X041908Y013605D01*
X041867Y013447D02*
X039606Y013447D01*
X039606Y013288D02*
X041867Y013288D01*
X041879Y013130D02*
X039594Y013130D01*
X039528Y012971D02*
X041945Y012971D01*
X042026Y012813D02*
X039446Y012813D01*
X039501Y012654D02*
X042185Y012654D01*
X042484Y012496D02*
X039607Y012496D01*
X040718Y012337D02*
X043506Y012337D01*
X043506Y012179D02*
X040761Y012179D01*
X040715Y012020D02*
X043506Y012020D01*
X043506Y011862D02*
X041394Y011862D01*
X041504Y011703D02*
X043506Y011703D01*
X043506Y011545D02*
X041711Y011545D01*
X041761Y011386D02*
X043506Y011386D01*
X043506Y011228D02*
X041721Y011228D01*
X042989Y012496D02*
X043506Y012496D01*
X043506Y012654D02*
X043288Y012654D01*
X043446Y012813D02*
X043506Y012813D01*
X043392Y008533D02*
X008141Y008533D01*
X008161Y008375D02*
X043366Y008375D01*
X043324Y008216D02*
X038039Y008216D01*
X038111Y008058D02*
X043272Y008058D01*
X043221Y007899D02*
X038585Y007899D01*
X038611Y007741D02*
X038658Y007741D01*
X039015Y007741D02*
X043169Y007741D01*
X043118Y007582D02*
X039111Y007582D01*
X039090Y007424D02*
X043048Y007424D01*
X042968Y007265D02*
X038915Y007265D01*
X038757Y007265D02*
X034265Y007265D01*
X034107Y007265D02*
X030615Y007265D01*
X030699Y007107D02*
X042887Y007107D01*
X042806Y006948D02*
X031057Y006948D01*
X031159Y006790D02*
X042725Y006790D01*
X042614Y006631D02*
X040431Y006631D01*
X040579Y006570D02*
X040259Y006702D01*
X039913Y006702D01*
X039594Y006570D01*
X039349Y006325D01*
X039217Y006005D01*
X039217Y005659D01*
X039349Y005340D01*
X039594Y005095D01*
X039913Y004963D01*
X040259Y004963D01*
X040579Y005095D01*
X040824Y005340D01*
X040956Y005659D01*
X040956Y006005D01*
X040824Y006325D01*
X040579Y006570D01*
X040676Y006473D02*
X042499Y006473D01*
X042384Y006314D02*
X040828Y006314D01*
X040894Y006156D02*
X042269Y006156D01*
X042128Y005997D02*
X040956Y005997D01*
X040956Y005839D02*
X041969Y005839D01*
X041811Y005680D02*
X040956Y005680D01*
X040899Y005521D02*
X041652Y005521D01*
X041444Y005363D02*
X040833Y005363D01*
X040688Y005204D02*
X041226Y005204D01*
X041008Y005046D02*
X040461Y005046D01*
X040724Y004887D02*
X029226Y004887D01*
X029380Y005046D02*
X035712Y005046D01*
X035594Y005095D02*
X035913Y004963D01*
X036259Y004963D01*
X036579Y005095D01*
X036824Y005340D01*
X036956Y005659D01*
X036956Y006005D01*
X036824Y006325D01*
X036579Y006570D01*
X036259Y006702D01*
X035913Y006702D01*
X035594Y006570D01*
X035349Y006325D01*
X035217Y006005D01*
X035217Y005659D01*
X035349Y005340D01*
X035594Y005095D01*
X035484Y005204D02*
X029445Y005204D01*
X029508Y005363D02*
X035339Y005363D01*
X035274Y005521D02*
X029508Y005521D01*
X029508Y005680D02*
X032271Y005680D01*
X032127Y005839D02*
X029452Y005839D01*
X029387Y005997D02*
X031994Y005997D01*
X032328Y006314D02*
X035344Y006314D01*
X035279Y006156D02*
X032550Y006156D01*
X032656Y005997D02*
X035217Y005997D01*
X035217Y005839D02*
X032646Y005839D01*
X032501Y005680D02*
X035217Y005680D01*
X035496Y006473D02*
X032169Y006473D01*
X031143Y006631D02*
X035742Y006631D01*
X036431Y006631D02*
X039742Y006631D01*
X039496Y006473D02*
X036676Y006473D01*
X036828Y006314D02*
X039344Y006314D01*
X039279Y006156D02*
X036894Y006156D01*
X036956Y005997D02*
X039217Y005997D01*
X039217Y005839D02*
X036956Y005839D01*
X036956Y005680D02*
X039217Y005680D01*
X039274Y005521D02*
X036899Y005521D01*
X036833Y005363D02*
X039339Y005363D01*
X039484Y005204D02*
X036688Y005204D01*
X036461Y005046D02*
X039712Y005046D01*
X040048Y004570D02*
X021436Y004570D01*
X021458Y004412D02*
X039560Y004412D01*
X040412Y004729D02*
X028978Y004729D01*
X028300Y004729D02*
X021768Y004729D01*
X021926Y004887D02*
X028051Y004887D01*
X027898Y005046D02*
X022021Y005046D01*
X022087Y005204D02*
X027832Y005204D01*
X027769Y005363D02*
X022108Y005363D01*
X022108Y005521D02*
X027769Y005521D01*
X027769Y005680D02*
X025222Y005680D01*
X025261Y005839D02*
X027825Y005839D01*
X027891Y005997D02*
X025208Y005997D01*
X024986Y006156D02*
X028034Y006156D01*
X029243Y006156D02*
X030736Y006156D01*
X031120Y007424D02*
X033933Y007424D01*
X034440Y007424D02*
X038102Y007424D01*
X037633Y008216D02*
X034339Y008216D01*
X033933Y008216D02*
X023689Y008216D01*
X023283Y008216D02*
X008061Y008216D01*
X007711Y008216D02*
X006561Y008216D01*
X006493Y008692D02*
X006474Y008692D01*
X006779Y008692D02*
X007743Y008692D01*
X008029Y008692D02*
X012493Y008692D01*
X012779Y008692D02*
X012949Y008692D01*
X013929Y008692D02*
X020749Y008692D01*
X020589Y008850D02*
X014089Y008850D01*
X014205Y009009D02*
X020472Y009009D01*
X020406Y009167D02*
X014271Y009167D01*
X014308Y009326D02*
X020369Y009326D01*
X020369Y009484D02*
X014308Y009484D01*
X014292Y009643D02*
X020385Y009643D01*
X020451Y009801D02*
X014226Y009801D01*
X014139Y009960D02*
X020538Y009960D01*
X023759Y007741D02*
X030358Y007741D01*
X030261Y007582D02*
X023743Y007582D01*
X023586Y007424D02*
X030283Y007424D01*
X034551Y004253D02*
X038734Y004253D01*
X024751Y005680D02*
X022077Y005680D01*
X022011Y005839D02*
X024653Y005839D01*
X024494Y005997D02*
X021902Y005997D01*
X020576Y005997D02*
X017208Y005997D01*
X017261Y005839D02*
X020466Y005839D01*
X020401Y005680D02*
X017222Y005680D01*
X016751Y005680D02*
X014277Y005680D01*
X014308Y005521D02*
X020369Y005521D01*
X020369Y005363D02*
X014308Y005363D01*
X014287Y005204D02*
X020391Y005204D01*
X020456Y005046D02*
X014221Y005046D01*
X014126Y004887D02*
X020551Y004887D01*
X020710Y004729D02*
X013968Y004729D01*
X013636Y004570D02*
X021041Y004570D01*
X016653Y005839D02*
X014211Y005839D01*
X014102Y005997D02*
X016494Y005997D01*
X016966Y013447D02*
X002375Y013447D01*
X002375Y013605D02*
X016966Y013605D01*
X016966Y013764D02*
X002376Y013764D01*
X002376Y013922D02*
X016962Y013922D01*
X016962Y014081D02*
X002376Y014081D01*
X002377Y014239D02*
X016966Y014239D01*
X016966Y014398D02*
X002377Y014398D01*
X002377Y014556D02*
X016966Y014556D01*
X016966Y014715D02*
X002378Y014715D01*
X002378Y014873D02*
X016962Y014873D01*
X016962Y015032D02*
X002379Y015032D01*
X002379Y015190D02*
X016962Y015190D01*
X016966Y015349D02*
X002379Y015349D01*
X002380Y015507D02*
X016966Y015507D01*
X016966Y015666D02*
X002380Y015666D01*
X002380Y015824D02*
X016966Y015824D01*
X029287Y029455D02*
X029322Y029455D01*
X032287Y029455D02*
X032686Y029455D01*
X032587Y029614D02*
X032385Y029614D01*
X032407Y029772D02*
X032566Y029772D01*
X032566Y029931D02*
X032407Y029931D01*
X032407Y030089D02*
X032566Y030089D01*
X032566Y030248D02*
X032407Y030248D01*
X032402Y030406D02*
X032571Y030406D01*
X032608Y030565D02*
X032365Y030565D01*
X032407Y030723D02*
X032566Y030723D01*
X032566Y030882D02*
X032407Y030882D01*
X032407Y031040D02*
X032566Y031040D01*
X032566Y031199D02*
X032407Y031199D01*
X032407Y031357D02*
X032566Y031357D01*
X032616Y031516D02*
X032357Y031516D01*
X032208Y031674D02*
X032765Y031674D01*
X043446Y020262D02*
X043506Y020262D01*
X043506Y020104D02*
X043287Y020104D01*
M02*
